<svg width="25" height="24" viewBox="0 0 25 24" fill="none" xmlns="http://www.w3.org/2000/svg">
<g id="Frame 2131328320">
<path id="Subtract" fill-rule="evenodd" clip-rule="evenodd" d="M7.10156 3.6001C5.44471 3.6001 4.10156 4.94324 4.10156 6.6001V17.4001C4.10156 19.057 5.44471 20.4001 7.10156 20.4001H17.9016C19.5584 20.4001 20.9016 19.0569 20.9016 17.4001V6.6001C20.9016 4.94324 19.5584 3.6001 17.9016 3.6001H7.10156ZM18.8016 6.7501C18.8016 7.33 18.3315 7.8001 17.7516 7.8001C17.1717 7.8001 16.7016 7.33 16.7016 6.7501C16.7016 6.1702 17.1717 5.7001 17.7516 5.7001C18.3315 5.7001 18.8016 6.1702 18.8016 6.7501ZM12.5016 14.7001C13.9927 14.7001 15.2016 13.4913 15.2016 12.0001C15.2016 10.5089 13.9927 9.3001 12.5016 9.3001C11.0104 9.3001 9.80156 10.5089 9.80156 12.0001C9.80156 13.4913 11.0104 14.7001 12.5016 14.7001ZM12.5016 16.2001C14.8212 16.2001 16.7016 14.3197 16.7016 12.0001C16.7016 9.6805 14.8212 7.8001 12.5016 7.8001C10.182 7.8001 8.30156 9.6805 8.30156 12.0001C8.30156 14.3197 10.182 16.2001 12.5016 16.2001Z" fill="#D9D9D9"/>
</g>
</svg>
