<svg width="25" height="24" viewBox="0 0 25 24" fill="none" xmlns="http://www.w3.org/2000/svg">
<g id="Icon / 16 px / Telegram">
<path id="Path-3" fill-rule="evenodd" clip-rule="evenodd" d="M4.21792 10.8324C9.37014 8.46151 12.8058 6.89847 14.5248 6.14334C19.433 3.9872 20.4529 3.61262 21.1176 3.60023C21.2638 3.59753 21.5907 3.63581 21.8024 3.8173C22.1165 4.08651 22.1183 4.67086 22.0835 5.05761C21.8175 8.00928 20.6666 15.1721 20.0811 18.478C19.8333 19.8768 19.3455 20.3459 18.8733 20.3918C17.847 20.4915 17.0676 19.6754 16.0735 18.9872C14.518 17.9102 13.6392 17.2398 12.1293 16.1889C10.3844 14.9744 11.5156 14.3069 12.51 13.216C12.7703 12.9306 17.2923 8.58627 17.3799 8.19216C17.3908 8.14286 17.401 7.95911 17.2976 7.86213C17.1943 7.76516 17.0418 7.79826 16.9317 7.82465C16.7757 7.86206 14.2907 9.59682 9.47688 13.0289C8.77152 13.5404 8.13264 13.7897 7.56025 13.7766C6.92917 13.7623 5.71535 13.3998 4.81295 13.09C3.70614 12.71 2.82646 12.509 2.90309 11.8637C2.94299 11.5275 3.38125 11.1838 4.21792 10.8324Z" fill="#D9D9D9"/>
</g>
</svg>
