<svg width="25" height="24" viewBox="0 0 25 24" fill="none" xmlns="http://www.w3.org/2000/svg">
<g id="youtube" clip-path="url(#clip0_3111_48970)">
<path id="Vector" d="M23.998 6.16684C23.722 5.13447 22.909 4.32071 21.876 4.04448C20.005 3.5437 12.5 3.5437 12.5 3.5437C12.5 3.5437 4.995 3.5437 3.123 4.04448C2.091 4.32071 1.278 5.13348 1.002 6.16684C0.5 8.0388 0.5 11.9437 0.5 11.9437C0.5 11.9437 0.5 15.8486 1.002 17.7206C1.278 18.7529 2.091 19.5667 3.124 19.8429C4.995 20.3437 12.5 20.3437 12.5 20.3437C12.5 20.3437 20.005 20.3437 21.877 19.8429C22.909 19.5667 23.722 18.7539 23.999 17.7206C24.5 15.8486 24.5 11.9437 24.5 11.9437C24.5 11.9437 24.5 8.0388 23.998 6.16684ZM10.046 15.4899V8.3975L16.318 11.9437L10.046 15.4899Z" fill="#D9D9D9"/>
</g>
<defs>
<clipPath id="clip0_3111_48970">
<rect width="24" height="24" fill="white" transform="translate(0.5)"/>
</clipPath>
</defs>
</svg>
