<svg width="25" height="25" viewBox="0 0 25 25" fill="none" xmlns="http://www.w3.org/2000/svg">
<path d="M12.5005 21.5327C12.1994 21.5323 11.9054 21.4414 11.6568 21.2716C7.97286 18.7708 6.37771 17.0561 5.49786 15.9841C3.62286 13.699 2.72521 11.3529 2.75052 8.81224C2.78005 5.90084 5.11583 3.53271 7.95739 3.53271C10.0236 3.53271 11.4547 4.69662 12.2882 5.666C12.3146 5.69639 12.3472 5.72077 12.3838 5.73747C12.4205 5.75418 12.4603 5.76282 12.5005 5.76282C12.5408 5.76282 12.5806 5.75418 12.6172 5.73747C12.6538 5.72077 12.6865 5.69639 12.7129 5.666C13.5463 4.69568 14.9774 3.53271 17.0436 3.53271C19.8852 3.53271 22.221 5.90084 22.2505 8.81271C22.2758 11.3538 21.3772 13.6999 19.5032 15.9846C18.6233 17.0566 17.0282 18.7713 13.3443 21.2721C13.0955 21.4417 12.8015 21.5325 12.5005 21.5327Z" fill="white"/>
</svg>
