<svg width="25" height="25" viewBox="0 0 25 25" fill="none" xmlns="http://www.w3.org/2000/svg">
<path fill-rule="evenodd" clip-rule="evenodd" d="M3.87446 10.7855C9.24136 8.24528 12.8202 6.57059 14.6108 5.76153C19.7235 3.45137 20.7859 3.05004 21.4783 3.03676C21.6306 3.03387 21.9711 3.07489 22.1916 3.26934C22.5189 3.55778 22.5207 4.18387 22.4844 4.59824C22.2073 7.76075 21.0085 15.4352 20.3986 18.9772C20.1405 20.476 19.6324 20.9786 19.1405 21.0277C18.0714 21.1346 17.2595 20.2601 16.224 19.5228C14.6037 18.3689 13.6883 17.6506 12.1155 16.5247C10.2979 15.2234 11.4762 14.5082 12.512 13.3394C12.7831 13.0336 17.4936 8.37895 17.5848 7.95668C17.5962 7.90387 17.6068 7.707 17.4992 7.60309C17.3915 7.49918 17.2326 7.53465 17.118 7.56293C16.9555 7.60301 14.367 9.46168 9.35254 13.1389C8.61779 13.687 7.95229 13.954 7.35605 13.94C6.69868 13.9247 5.43428 13.5363 4.49429 13.2043C3.34136 12.7972 2.42502 12.5819 2.50485 11.8905C2.54641 11.5303 3.00293 11.162 3.87446 10.7855Z" fill="white"/>
</svg>
