<svg width="23" height="22" viewBox="0 0 23 22" fill="none" xmlns="http://www.w3.org/2000/svg">
<path fill-rule="evenodd" clip-rule="evenodd" d="M4.83203 0.543945C2.62289 0.543945 0.832031 2.33481 0.832031 4.54395V17.8773C0.832031 20.0864 2.6229 21.8773 4.83204 21.8773H18.1654C20.3745 21.8773 22.1654 20.0864 22.1654 17.8773V4.54395C22.1654 2.33481 20.3745 0.543945 18.1654 0.543945H4.83203ZM19.4987 4.54395C19.4987 5.28032 18.9017 5.87728 18.1654 5.87728C17.429 5.87728 16.832 5.28032 16.832 4.54395C16.832 3.80757 17.429 3.21061 18.1654 3.21061C18.9017 3.21061 19.4987 3.80757 19.4987 4.54395ZM11.4987 14.5439C13.3396 14.5439 14.832 13.0516 14.832 11.2106C14.832 9.36966 13.3396 7.87728 11.4987 7.87728C9.65775 7.87728 8.16536 9.36966 8.16536 11.2106C8.16536 13.0516 9.65775 14.5439 11.4987 14.5439ZM11.4987 16.5439C14.4442 16.5439 16.832 14.1561 16.832 11.2106C16.832 8.26509 14.4442 5.87728 11.4987 5.87728C8.55318 5.87728 6.16536 8.26509 6.16536 11.2106C6.16536 14.1561 8.55318 16.5439 11.4987 16.5439Z" fill="url(#paint0_linear_3111_52878)"/>
<defs>
<linearGradient id="paint0_linear_3111_52878" x1="27.498" y1="-9.09399" x2="-4.50196" y2="30.906" gradientUnits="userSpaceOnUse">
<stop stop-color="#C913B9"/>
<stop offset="0.500947" stop-color="#F9373F"/>
<stop offset="1" stop-color="#FECD00"/>
</linearGradient>
</defs>
</svg>
