<svg width="571" height="126" viewBox="0 0 571 126" fill="none" xmlns="http://www.w3.org/2000/svg">
<path d="M242.034 44.5V9.59091H265.199V15.6761H249.415V22.4943H255.091C257.852 22.4943 260.233 22.9432 262.233 23.8409C264.244 24.7273 265.795 25.983 266.886 27.608C267.977 29.233 268.523 31.1477 268.523 33.3523C268.523 35.5455 267.977 37.483 266.886 39.1648C265.795 40.8352 264.244 42.142 262.233 43.0852C260.233 44.0284 257.852 44.5 255.091 44.5H242.034ZM249.415 38.5682H255.091C256.409 38.5682 257.523 38.3295 258.432 37.8523C259.341 37.3636 260.028 36.7216 260.494 35.9261C260.972 35.1193 261.21 34.2386 261.21 33.2841C261.21 31.8977 260.682 30.7273 259.625 29.7727C258.58 28.8068 257.068 28.3239 255.091 28.3239H249.415V38.5682ZM273.3 44.5V9.59091H296.822V15.6761H280.68V23.9943H295.612V30.0795H280.68V38.4148H296.891V44.5H273.3ZM315.389 44.9773C312.844 44.9773 310.577 44.5398 308.588 43.6648C306.611 42.7784 305.048 41.5625 303.901 40.017C302.764 38.4602 302.179 36.6648 302.145 34.6307H309.577C309.622 35.483 309.901 36.233 310.412 36.8807C310.935 37.517 311.628 38.0114 312.491 38.3636C313.355 38.7159 314.327 38.892 315.406 38.892C316.531 38.892 317.526 38.6932 318.389 38.2955C319.253 37.8977 319.929 37.3466 320.418 36.642C320.906 35.9375 321.151 35.125 321.151 34.2045C321.151 33.2727 320.889 32.4489 320.366 31.733C319.855 31.0057 319.116 30.4375 318.151 30.0284C317.196 29.6193 316.06 29.4148 314.741 29.4148H311.486V23.9943H314.741C315.855 23.9943 316.838 23.8011 317.69 23.4148C318.554 23.0284 319.224 22.4943 319.702 21.8125C320.179 21.1193 320.418 20.3125 320.418 19.392C320.418 18.517 320.207 17.75 319.787 17.0909C319.378 16.4205 318.798 15.8977 318.048 15.5227C317.31 15.1477 316.446 14.9602 315.457 14.9602C314.457 14.9602 313.543 15.142 312.713 15.5057C311.884 15.858 311.219 16.3636 310.719 17.0227C310.219 17.6818 309.952 18.4545 309.918 19.3409H302.844C302.878 17.3295 303.452 15.5568 304.565 14.0227C305.679 12.4886 307.179 11.2898 309.065 10.4261C310.963 9.55114 313.105 9.11364 315.491 9.11364C317.901 9.11364 320.009 9.55114 321.815 10.4261C323.622 11.3011 325.026 12.483 326.026 13.9716C327.037 15.4489 327.537 17.108 327.526 18.9489C327.537 20.9034 326.929 22.5341 325.702 23.8409C324.486 25.1477 322.901 25.9773 320.946 26.3295V26.6023C323.514 26.9318 325.469 27.8239 326.81 29.2784C328.162 30.7216 328.832 32.5284 328.821 34.6989C328.832 36.6875 328.259 38.4545 327.099 40C325.952 41.5455 324.366 42.7614 322.344 43.6477C320.321 44.5341 318.003 44.9773 315.389 44.9773Z" fill="#303030"/>
<rect x="85" y="84" width="104" height="41" rx="20.5" stroke="#545454"/>
<path d="M108.523 111.72C107.467 111.72 106.558 111.481 105.795 111.003C105.038 110.52 104.455 109.855 104.048 109.007C103.641 108.16 103.438 107.189 103.438 106.095C103.438 104.987 103.646 104.009 104.062 103.162C104.479 102.31 105.066 101.644 105.824 101.166C106.581 100.688 107.474 100.449 108.501 100.449C109.33 100.449 110.069 100.603 110.717 100.911C111.366 101.214 111.889 101.64 112.287 102.189C112.689 102.738 112.929 103.38 113.004 104.114H110.938C110.824 103.602 110.563 103.162 110.156 102.793C109.754 102.423 109.214 102.239 108.537 102.239C107.945 102.239 107.427 102.395 106.982 102.707C106.541 103.015 106.198 103.455 105.952 104.028C105.705 104.597 105.582 105.269 105.582 106.045C105.582 106.841 105.703 107.527 105.945 108.105C106.186 108.683 106.527 109.13 106.967 109.447C107.412 109.765 107.936 109.923 108.537 109.923C108.939 109.923 109.304 109.85 109.631 109.703C109.962 109.552 110.239 109.336 110.462 109.057C110.689 108.777 110.848 108.441 110.938 108.048H113.004C112.929 108.754 112.699 109.384 112.315 109.938C111.932 110.491 111.418 110.927 110.774 111.244C110.135 111.562 109.384 111.72 108.523 111.72ZM118.45 111.741C117.759 111.741 117.134 111.614 116.575 111.358C116.016 111.098 115.574 110.721 115.247 110.229C114.925 109.736 114.764 109.133 114.764 108.418C114.764 107.802 114.882 107.295 115.119 106.898C115.356 106.5 115.675 106.185 116.078 105.953C116.48 105.721 116.93 105.546 117.427 105.428C117.924 105.309 118.431 105.219 118.947 105.158C119.6 105.082 120.131 105.02 120.538 104.973C120.945 104.921 121.241 104.838 121.426 104.724C121.61 104.611 121.703 104.426 121.703 104.17V104.121C121.703 103.5 121.528 103.02 121.177 102.679C120.832 102.338 120.315 102.168 119.629 102.168C118.914 102.168 118.35 102.326 117.939 102.643C117.531 102.956 117.25 103.304 117.093 103.688L115.098 103.233C115.334 102.57 115.68 102.035 116.135 101.628C116.594 101.216 117.122 100.918 117.718 100.733C118.315 100.544 118.942 100.449 119.6 100.449C120.036 100.449 120.498 100.501 120.985 100.605C121.478 100.705 121.937 100.889 122.363 101.159C122.794 101.429 123.147 101.815 123.422 102.317C123.696 102.814 123.833 103.46 123.833 104.256V111.5H121.76V110.009H121.674C121.537 110.283 121.331 110.553 121.056 110.818C120.782 111.083 120.429 111.304 119.998 111.479C119.567 111.654 119.051 111.741 118.45 111.741ZM118.912 110.037C119.499 110.037 120.001 109.921 120.417 109.689C120.839 109.457 121.158 109.154 121.376 108.78C121.599 108.401 121.71 107.996 121.71 107.565V106.159C121.634 106.235 121.487 106.306 121.27 106.372C121.056 106.434 120.813 106.488 120.538 106.536C120.263 106.578 119.996 106.618 119.735 106.656C119.475 106.689 119.257 106.718 119.082 106.741C118.67 106.794 118.294 106.881 117.953 107.004C117.617 107.127 117.347 107.305 117.143 107.537C116.944 107.764 116.845 108.067 116.845 108.446C116.845 108.972 117.039 109.369 117.427 109.639C117.815 109.904 118.31 110.037 118.912 110.037ZM128.338 100.591L130.746 104.838L133.175 100.591H135.497L132.095 106.045L135.526 111.5H133.203L130.746 107.423L128.295 111.5H125.966L129.361 106.045L126.009 100.591H128.338ZM140.833 111.741C140.141 111.741 139.516 111.614 138.958 111.358C138.399 111.098 137.956 110.721 137.63 110.229C137.308 109.736 137.147 109.133 137.147 108.418C137.147 107.802 137.265 107.295 137.502 106.898C137.739 106.5 138.058 106.185 138.461 105.953C138.863 105.721 139.313 105.546 139.81 105.428C140.307 105.309 140.814 105.219 141.33 105.158C141.983 105.082 142.514 105.02 142.921 104.973C143.328 104.921 143.624 104.838 143.809 104.724C143.993 104.611 144.086 104.426 144.086 104.17V104.121C144.086 103.5 143.91 103.02 143.56 102.679C143.214 102.338 142.698 102.168 142.012 102.168C141.297 102.168 140.733 102.326 140.321 102.643C139.914 102.956 139.632 103.304 139.476 103.688L137.48 103.233C137.717 102.57 138.063 102.035 138.517 101.628C138.977 101.216 139.505 100.918 140.101 100.733C140.698 100.544 141.325 100.449 141.983 100.449C142.419 100.449 142.881 100.501 143.368 100.605C143.861 100.705 144.32 100.889 144.746 101.159C145.177 101.429 145.53 101.815 145.804 102.317C146.079 102.814 146.216 103.46 146.216 104.256V111.5H144.142V110.009H144.057C143.92 110.283 143.714 110.553 143.439 110.818C143.165 111.083 142.812 111.304 142.381 111.479C141.95 111.654 141.434 111.741 140.833 111.741ZM141.294 110.037C141.882 110.037 142.383 109.921 142.8 109.689C143.221 109.457 143.541 109.154 143.759 108.78C143.981 108.401 144.093 107.996 144.093 107.565V106.159C144.017 106.235 143.87 106.306 143.652 106.372C143.439 106.434 143.195 106.488 142.921 106.536C142.646 106.578 142.379 106.618 142.118 106.656C141.858 106.689 141.64 106.718 141.465 106.741C141.053 106.794 140.676 106.881 140.336 107.004C139.999 107.127 139.73 107.305 139.526 107.537C139.327 107.764 139.228 108.067 139.228 108.446C139.228 108.972 139.422 109.369 139.81 109.639C140.198 109.904 140.693 110.037 141.294 110.037ZM149.045 115.591V100.591H151.119V102.359H151.296C151.419 102.132 151.597 101.869 151.829 101.571C152.061 101.273 152.383 101.012 152.795 100.79C153.207 100.562 153.751 100.449 154.428 100.449C155.309 100.449 156.095 100.671 156.786 101.116C157.478 101.562 158.02 102.203 158.413 103.041C158.81 103.879 159.009 104.888 159.009 106.067C159.009 107.246 158.813 108.257 158.42 109.099C158.027 109.937 157.487 110.584 156.8 111.038C156.114 111.488 155.33 111.713 154.45 111.713C153.787 111.713 153.245 111.602 152.823 111.379C152.406 111.157 152.08 110.896 151.843 110.598C151.606 110.3 151.424 110.035 151.296 109.803H151.168V115.591H149.045ZM151.126 106.045C151.126 106.812 151.237 107.485 151.46 108.062C151.682 108.64 152.004 109.092 152.425 109.419C152.847 109.741 153.363 109.902 153.974 109.902C154.608 109.902 155.138 109.734 155.565 109.398C155.991 109.057 156.313 108.595 156.531 108.013C156.753 107.43 156.864 106.775 156.864 106.045C156.864 105.326 156.755 104.679 156.538 104.107C156.325 103.534 156.003 103.081 155.572 102.75C155.146 102.419 154.613 102.253 153.974 102.253C153.358 102.253 152.837 102.411 152.411 102.729C151.99 103.046 151.67 103.489 151.452 104.057C151.235 104.625 151.126 105.288 151.126 106.045ZM164.563 111.741C163.872 111.741 163.247 111.614 162.688 111.358C162.129 111.098 161.687 110.721 161.36 110.229C161.038 109.736 160.877 109.133 160.877 108.418C160.877 107.802 160.996 107.295 161.232 106.898C161.469 106.5 161.789 106.185 162.191 105.953C162.594 105.721 163.043 105.546 163.54 105.428C164.038 105.309 164.544 105.219 165.06 105.158C165.714 105.082 166.244 105.02 166.651 104.973C167.058 104.921 167.354 104.838 167.539 104.724C167.724 104.611 167.816 104.426 167.816 104.17V104.121C167.816 103.5 167.641 103.02 167.29 102.679C166.945 102.338 166.429 102.168 165.742 102.168C165.027 102.168 164.464 102.326 164.052 102.643C163.645 102.956 163.363 103.304 163.207 103.688L161.211 103.233C161.448 102.57 161.793 102.035 162.248 101.628C162.707 101.216 163.235 100.918 163.832 100.733C164.428 100.544 165.056 100.449 165.714 100.449C166.149 100.449 166.611 100.501 167.099 100.605C167.591 100.705 168.05 100.889 168.477 101.159C168.907 101.429 169.26 101.815 169.535 102.317C169.809 102.814 169.947 103.46 169.947 104.256V111.5H167.873V110.009H167.788C167.65 110.283 167.444 110.553 167.17 110.818C166.895 111.083 166.542 111.304 166.112 111.479C165.681 111.654 165.165 111.741 164.563 111.741ZM165.025 110.037C165.612 110.037 166.114 109.921 166.531 109.689C166.952 109.457 167.272 109.154 167.489 108.78C167.712 108.401 167.823 107.996 167.823 107.565V106.159C167.747 106.235 167.601 106.306 167.383 106.372C167.17 106.434 166.926 106.488 166.651 106.536C166.377 106.578 166.109 106.618 165.849 106.656C165.588 106.689 165.371 106.718 165.195 106.741C164.783 106.794 164.407 106.881 164.066 107.004C163.73 107.127 163.46 107.305 163.256 107.537C163.058 107.764 162.958 108.067 162.958 108.446C162.958 108.972 163.152 109.369 163.54 109.639C163.929 109.904 164.424 110.037 165.025 110.037Z" fill="#545454"/>
<rect x="220" y="84" width="117" height="41" rx="20.5" stroke="#545454"/>
<path d="M245.902 100.591V102.423H241.023V111.5H238.928V100.591H245.902ZM246.388 111.5L246.381 109.661H246.772C247.075 109.661 247.328 109.597 247.532 109.469C247.74 109.336 247.911 109.114 248.043 108.801C248.176 108.489 248.278 108.058 248.349 107.509C248.42 106.955 248.472 106.259 248.505 105.42L248.697 100.591H256.31V111.5H254.229V102.423H250.664L250.494 106.131C250.451 107.03 250.359 107.816 250.217 108.489C250.079 109.161 249.878 109.722 249.613 110.172C249.348 110.617 249.007 110.951 248.59 111.173C248.174 111.391 247.667 111.5 247.07 111.5H246.388ZM264.632 105.207V107.054H258.816V105.207H264.632ZM260.542 100.591V111.5H258.418V100.591H260.542ZM267.956 111.72C266.943 111.72 266.058 111.483 265.3 111.01C264.542 110.536 263.955 109.878 263.539 109.036C263.122 108.188 262.914 107.205 262.914 106.088C262.914 104.961 263.122 103.976 263.539 103.134C263.955 102.286 264.542 101.628 265.3 101.159C266.058 100.686 266.943 100.449 267.956 100.449C268.974 100.449 269.86 100.686 270.613 101.159C271.37 101.628 271.957 102.286 272.374 103.134C272.795 103.976 273.006 104.961 273.006 106.088C273.006 107.205 272.795 108.188 272.374 109.036C271.957 109.878 271.37 110.536 270.613 111.01C269.86 111.483 268.974 111.72 267.956 111.72ZM267.956 109.902C268.643 109.902 269.204 109.729 269.64 109.384C270.08 109.033 270.404 108.569 270.613 107.991C270.821 107.414 270.925 106.779 270.925 106.088C270.925 105.392 270.821 104.755 270.613 104.178C270.404 103.595 270.08 103.129 269.64 102.778C269.204 102.428 268.643 102.253 267.956 102.253C267.275 102.253 266.713 102.428 266.273 102.778C265.833 103.129 265.508 103.595 265.3 104.178C265.092 104.755 264.988 105.392 264.988 106.088C264.988 106.779 265.092 107.414 265.3 107.991C265.508 108.569 265.833 109.033 266.273 109.384C266.713 109.729 267.275 109.902 267.956 109.902ZM274.196 102.423V100.591H283.4V102.423H279.842V111.5H277.768V102.423H274.196ZM289.84 111.72C288.765 111.72 287.84 111.491 287.063 111.031C286.291 110.567 285.695 109.916 285.273 109.078C284.857 108.235 284.648 107.248 284.648 106.116C284.648 104.999 284.857 104.014 285.273 103.162C285.695 102.31 286.282 101.644 287.035 101.166C287.792 100.688 288.678 100.449 289.691 100.449C290.307 100.449 290.903 100.551 291.481 100.754C292.058 100.958 292.577 101.277 293.036 101.713C293.496 102.149 293.858 102.714 294.123 103.411C294.388 104.102 294.521 104.942 294.521 105.932V106.685H285.849V105.094H292.44C292.44 104.535 292.326 104.04 292.099 103.609C291.871 103.174 291.552 102.83 291.14 102.58C290.733 102.329 290.254 102.203 289.705 102.203C289.109 102.203 288.588 102.35 288.143 102.643C287.702 102.932 287.362 103.311 287.12 103.78C286.883 104.244 286.765 104.748 286.765 105.293V106.536C286.765 107.265 286.893 107.885 287.148 108.396C287.409 108.908 287.771 109.298 288.235 109.568C288.699 109.833 289.241 109.966 289.862 109.966C290.264 109.966 290.631 109.909 290.962 109.795C291.294 109.677 291.58 109.502 291.822 109.27C292.063 109.038 292.248 108.751 292.376 108.411L294.386 108.773C294.225 109.365 293.936 109.883 293.519 110.328C293.107 110.768 292.589 111.112 291.964 111.358C291.344 111.599 290.636 111.72 289.84 111.72ZM304.27 105.129V106.969H298.361V105.129H304.27ZM298.958 100.591V111.5H296.877V100.591H298.958ZM305.755 100.591V111.5H303.681V100.591H305.755ZM311.77 111.741C311.079 111.741 310.454 111.614 309.895 111.358C309.337 111.098 308.894 110.721 308.567 110.229C308.245 109.736 308.084 109.133 308.084 108.418C308.084 107.802 308.203 107.295 308.439 106.898C308.676 106.5 308.996 106.185 309.398 105.953C309.801 105.721 310.25 105.546 310.748 105.428C311.245 105.309 311.751 105.219 312.267 105.158C312.921 105.082 313.451 105.02 313.858 104.973C314.266 104.921 314.561 104.838 314.746 104.724C314.931 104.611 315.023 104.426 315.023 104.17V104.121C315.023 103.5 314.848 103.02 314.498 102.679C314.152 102.338 313.636 102.168 312.949 102.168C312.234 102.168 311.671 102.326 311.259 102.643C310.852 102.956 310.57 103.304 310.414 103.688L308.418 103.233C308.655 102.57 309 102.035 309.455 101.628C309.914 101.216 310.442 100.918 311.039 100.733C311.635 100.544 312.263 100.449 312.921 100.449C313.356 100.449 313.818 100.501 314.306 100.605C314.798 100.705 315.257 100.889 315.684 101.159C316.114 101.429 316.467 101.815 316.742 102.317C317.016 102.814 317.154 103.46 317.154 104.256V111.5H315.08V110.009H314.995C314.857 110.283 314.651 110.553 314.377 110.818C314.102 111.083 313.749 111.304 313.319 111.479C312.888 111.654 312.372 111.741 311.77 111.741ZM312.232 110.037C312.819 110.037 313.321 109.921 313.738 109.689C314.159 109.457 314.479 109.154 314.696 108.78C314.919 108.401 315.03 107.996 315.03 107.565V106.159C314.954 106.235 314.808 106.306 314.59 106.372C314.377 106.434 314.133 106.488 313.858 106.536C313.584 106.578 313.316 106.618 313.056 106.656C312.795 106.689 312.578 106.718 312.402 106.741C311.99 106.794 311.614 106.881 311.273 107.004C310.937 107.127 310.667 107.305 310.463 107.537C310.265 107.764 310.165 108.067 310.165 108.446C310.165 108.972 310.359 109.369 310.748 109.639C311.136 109.904 311.631 110.037 312.232 110.037Z" fill="#545454"/>
<rect x="368" y="84" width="118" height="41" rx="20.5" stroke="#545454"/>
<path d="M386.068 111.5L386.061 109.661H386.452C386.755 109.661 387.008 109.597 387.212 109.469C387.42 109.336 387.59 109.114 387.723 108.801C387.856 108.489 387.957 108.058 388.028 107.509C388.099 106.955 388.152 106.259 388.185 105.42L388.376 100.591H395.99V111.5H393.909V102.423H390.344L390.173 106.131C390.131 107.03 390.038 107.816 389.896 108.489C389.759 109.161 389.558 109.722 389.293 110.172C389.027 110.617 388.687 110.951 388.27 111.173C387.853 111.391 387.347 111.5 386.75 111.5H386.068ZM401.997 111.741C401.306 111.741 400.681 111.614 400.122 111.358C399.563 111.098 399.12 110.721 398.794 110.229C398.472 109.736 398.311 109.133 398.311 108.418C398.311 107.802 398.429 107.295 398.666 106.898C398.903 106.5 399.222 106.185 399.625 105.953C400.027 105.721 400.477 105.546 400.974 105.428C401.471 105.309 401.978 105.219 402.494 105.158C403.147 105.082 403.678 105.02 404.085 104.973C404.492 104.921 404.788 104.838 404.973 104.724C405.157 104.611 405.25 104.426 405.25 104.17V104.121C405.25 103.5 405.074 103.02 404.724 102.679C404.378 102.338 403.862 102.168 403.176 102.168C402.461 102.168 401.897 102.326 401.485 102.643C401.078 102.956 400.797 103.304 400.64 103.688L398.645 103.233C398.881 102.57 399.227 102.035 399.681 101.628C400.141 101.216 400.669 100.918 401.265 100.733C401.862 100.544 402.489 100.449 403.147 100.449C403.583 100.449 404.045 100.501 404.532 100.605C405.025 100.705 405.484 100.889 405.91 101.159C406.341 101.429 406.694 101.815 406.968 102.317C407.243 102.814 407.38 103.46 407.38 104.256V111.5H405.306V110.009H405.221C405.084 110.283 404.878 110.553 404.603 110.818C404.329 111.083 403.976 111.304 403.545 111.479C403.114 111.654 402.598 111.741 401.997 111.741ZM402.458 110.037C403.046 110.037 403.547 109.921 403.964 109.689C404.386 109.457 404.705 109.154 404.923 108.78C405.145 108.401 405.257 107.996 405.257 107.565V106.159C405.181 106.235 405.034 106.306 404.816 106.372C404.603 106.434 404.359 106.488 404.085 106.536C403.81 106.578 403.543 106.618 403.282 106.656C403.022 106.689 402.804 106.718 402.629 106.741C402.217 106.794 401.841 106.881 401.5 107.004C401.163 107.127 400.894 107.305 400.69 107.537C400.491 107.764 400.392 108.067 400.392 108.446C400.392 108.972 400.586 109.369 400.974 109.639C401.362 109.904 401.857 110.037 402.458 110.037ZM410.209 111.5V100.591H412.332V105.165H413.355L416.956 100.591H419.584L415.358 105.896L419.634 111.5H416.999L413.71 107.139H412.332V111.5H410.209ZM420.672 102.423V100.591H429.877V102.423H426.319V111.5H424.245V102.423H420.672ZM436.21 111.72C435.188 111.72 434.295 111.486 433.533 111.017C432.77 110.548 432.179 109.893 431.757 109.05C431.336 108.207 431.125 107.222 431.125 106.095C431.125 104.964 431.336 103.974 431.757 103.126C432.179 102.279 432.77 101.621 433.533 101.152C434.295 100.683 435.188 100.449 436.21 100.449C437.233 100.449 438.125 100.683 438.888 101.152C439.65 101.621 440.242 102.279 440.663 103.126C441.085 103.974 441.295 104.964 441.295 106.095C441.295 107.222 441.085 108.207 440.663 109.05C440.242 109.893 439.65 110.548 438.888 111.017C438.125 111.486 437.233 111.72 436.21 111.72ZM436.217 109.938C436.88 109.938 437.429 109.762 437.865 109.412C438.301 109.062 438.623 108.595 438.831 108.013C439.044 107.43 439.151 106.789 439.151 106.088C439.151 105.392 439.044 104.753 438.831 104.17C438.623 103.583 438.301 103.112 437.865 102.757C437.429 102.402 436.88 102.224 436.217 102.224C435.55 102.224 434.996 102.402 434.555 102.757C434.12 103.112 433.795 103.583 433.582 104.17C433.374 104.753 433.27 105.392 433.27 106.088C433.27 106.789 433.374 107.43 433.582 108.013C433.795 108.595 434.12 109.062 434.555 109.412C434.996 109.762 435.55 109.938 436.217 109.938ZM443.02 108.616H445.193C445.221 109.062 445.422 109.405 445.797 109.646C446.175 109.888 446.665 110.009 447.267 110.009C447.877 110.009 448.398 109.878 448.829 109.618C449.26 109.353 449.475 108.943 449.475 108.389C449.475 108.058 449.393 107.769 449.227 107.523C449.066 107.272 448.836 107.078 448.538 106.94C448.244 106.803 447.896 106.734 447.494 106.734H445.718V105.065H447.494C448.095 105.065 448.545 104.928 448.843 104.653C449.142 104.379 449.291 104.036 449.291 103.624C449.291 103.179 449.13 102.821 448.808 102.551C448.491 102.277 448.048 102.139 447.48 102.139C446.902 102.139 446.422 102.269 446.038 102.53C445.654 102.786 445.453 103.117 445.434 103.524H443.289C443.304 102.913 443.488 102.378 443.843 101.919C444.203 101.455 444.686 101.095 445.292 100.839C445.903 100.579 446.597 100.449 447.373 100.449C448.183 100.449 448.884 100.579 449.475 100.839C450.067 101.1 450.524 101.46 450.846 101.919C451.173 102.378 451.336 102.906 451.336 103.503C451.336 104.104 451.156 104.597 450.797 104.98C450.441 105.359 449.977 105.631 449.404 105.797V105.911C449.826 105.939 450.2 106.067 450.527 106.294C450.853 106.521 451.109 106.822 451.294 107.196C451.478 107.57 451.571 107.994 451.571 108.467C451.571 109.135 451.386 109.713 451.017 110.2C450.652 110.688 450.145 111.064 449.497 111.33C448.853 111.59 448.117 111.72 447.288 111.72C446.483 111.72 445.761 111.595 445.122 111.344C444.487 111.088 443.983 110.728 443.609 110.264C443.24 109.8 443.043 109.251 443.02 108.616ZM455.362 104.341H458.529C459.864 104.341 460.892 104.672 461.612 105.335C462.331 105.998 462.691 106.853 462.691 107.899C462.691 108.581 462.53 109.194 462.208 109.739C461.886 110.283 461.415 110.714 460.795 111.031C460.174 111.344 459.419 111.5 458.529 111.5H453.763V100.591H455.844V109.668H458.529C459.14 109.668 459.642 109.509 460.035 109.192C460.428 108.87 460.624 108.46 460.624 107.963C460.624 107.437 460.428 107.009 460.035 106.678C459.642 106.341 459.14 106.173 458.529 106.173H455.362V104.341ZM464.239 111.5V100.591H466.363V111.5H464.239Z" fill="#545454"/>
<path d="M138.809 80.3298V29.3457L232.715 29.3457" stroke="#D9D9D9" stroke-width="2" stroke-miterlimit="1" stroke-dasharray="2 2"/>
<path d="M428.82 80.3298V29.3457H336.782" stroke="#D9D9D9" stroke-width="2" stroke-miterlimit="1" stroke-dasharray="2 2"/>
<path d="M279 80.3298L279 48.3213" stroke="#D9D9D9" stroke-width="2" stroke-miterlimit="1" stroke-dasharray="2 2"/>
</svg>
