<svg width="42" height="68" viewBox="0 0 42 68" fill="none" xmlns="http://www.w3.org/2000/svg">
<g clip-path="url(#clip0_3111_50341)">
<path d="M22.9228 43.1364C22.9228 43.1364 22.9566 43.1364 22.9701 43.1364C23.0106 43.1364 23.0579 43.1303 23.0985 43.1181C23.1255 43.1181 23.1525 43.1364 23.1796 43.1364C23.2607 43.1364 23.3418 43.1242 23.4229 43.0938C32.0726 40.1326 38.3166 34.1008 40.5668 26.5368C43.0942 18.0363 40.4317 8.62985 33.2619 0.725279C33.1267 0.579348 32.924 0.494225 32.7145 0.500305C32.505 0.506386 32.3091 0.603672 32.1874 0.755683C30.8629 2.4278 29.3425 4.14248 27.7274 5.94838C24.2 9.90066 20.3279 14.2543 17.9695 19.0761C15.2394 16.8385 12.1512 14.9049 9.27248 13.1051C7.44118 11.9619 5.70449 10.8796 4.157 9.77906C3.98806 9.66353 3.77182 9.62097 3.56909 9.66961C3.36637 9.71826 3.19742 9.84595 3.11633 10.0223C-0.688189 18.1883 -0.330033 26.6097 4.10294 33.134C8.04936 38.9348 14.9083 42.583 22.916 43.1303L22.9228 43.1364ZM28.7884 6.72059C30.2075 5.12752 31.559 3.61349 32.7753 2.12378C39.2491 9.59056 41.621 18.3342 39.2694 26.2327C37.2083 33.1644 31.8563 38.5456 24.1527 41.519C25.9434 37.2748 26.3016 33.6448 25.6866 30.489C26.7679 26.5915 28.4843 22.1163 31.2279 17.6289C31.4103 17.337 31.2887 16.9661 30.9643 16.802C30.6399 16.6378 30.2277 16.7472 30.0453 17.0391C27.7207 20.8394 26.1191 24.6275 25.0109 28.0873C23.8216 24.9254 21.6253 22.2804 18.9966 19.9577C21.2334 15.1967 25.1122 10.8431 28.7884 6.72059ZM4.03536 11.2384C5.42742 12.1869 6.92761 13.1233 8.50888 14.1144C18.0033 20.0489 28.7208 26.7496 23.0377 40.7285C21.7335 37.4086 18.0979 29.6864 10.3942 22.8277C10.1307 22.5906 9.69821 22.5966 9.44142 22.8277C9.17788 23.0648 9.18463 23.454 9.44142 23.685C17.4829 30.8417 21.0374 39.178 22.0173 41.8291C14.7867 41.0873 8.86027 37.8099 5.25172 32.5078C1.18366 26.5185 0.751179 18.8085 4.0286 11.2384H4.03536Z" fill="#222222"/>
<path d="M11.6157 54.1999V48.8662H11.5615L9.87869 49.9363V49.3413L11.6157 48.2383H12.2247V54.1999H11.6157Z" fill="#222222"/>
<path d="M16.2806 54.3197C15.8024 54.3197 15.3918 54.1944 15.049 53.9438C14.7091 53.6904 14.4474 53.3323 14.2639 52.8696C14.0805 52.4069 13.9887 51.8588 13.9887 51.2253V51.2129C13.9887 50.5767 14.0805 50.0272 14.2639 49.5644C14.4474 49.1017 14.7091 48.745 15.049 48.4944C15.3918 48.2438 15.8024 48.1184 16.2806 48.1184C16.7589 48.1184 17.1679 48.2451 17.5078 48.4985C17.8507 48.7492 18.1138 49.1059 18.2973 49.5686C18.4838 50.0313 18.577 50.5794 18.577 51.2129V51.2253C18.577 51.8615 18.4838 52.411 18.2973 52.8737C18.1138 53.3365 17.8507 53.6931 17.5078 53.9438C17.1679 54.1944 16.7589 54.3197 16.2806 54.3197ZM16.2806 53.8281C16.6325 53.8281 16.9333 53.7221 17.1829 53.51C17.4326 53.2979 17.6236 52.9977 17.7559 52.6093C17.8913 52.2182 17.9589 51.7569 17.9589 51.2253V51.2129C17.9589 50.6786 17.8913 50.2172 17.7559 49.8289C17.6236 49.4405 17.4326 49.1417 17.1829 48.9323C16.9333 48.7203 16.6325 48.6142 16.2806 48.6142C15.9287 48.6142 15.628 48.7203 15.3783 48.9323C15.1287 49.1444 14.9377 49.4446 14.8053 49.833C14.673 50.2213 14.6068 50.6813 14.6068 51.2129V51.2253C14.6068 51.7569 14.673 52.2182 14.8053 52.6093C14.9377 52.9977 15.1287 53.2979 15.3783 53.51C15.628 53.7221 15.9287 53.8281 16.2806 53.8281Z" fill="#222222"/>
<path d="M22.0554 54.3197C21.5772 54.3197 21.1667 54.1944 20.8238 53.9438C20.4839 53.6904 20.2222 53.3323 20.0388 52.8696C19.8553 52.4069 19.7636 51.8588 19.7636 51.2253V51.2129C19.7636 50.5767 19.8553 50.0272 20.0388 49.5644C20.2222 49.1017 20.4839 48.745 20.8238 48.4944C21.1667 48.2438 21.5772 48.1184 22.0554 48.1184C22.5337 48.1184 22.9427 48.2451 23.2826 48.4985C23.6255 48.7492 23.8887 49.1059 24.0721 49.5686C24.2586 50.0313 24.3518 50.5794 24.3518 51.2129V51.2253C24.3518 51.8615 24.2586 52.411 24.0721 52.8737C23.8887 53.3365 23.6255 53.6931 23.2826 53.9438C22.9427 54.1944 22.5337 54.3197 22.0554 54.3197ZM22.0554 53.8281C22.4074 53.8281 22.7081 53.7221 22.9578 53.51C23.2074 53.2979 23.3984 52.9977 23.5307 52.6093C23.6661 52.2182 23.7338 51.7569 23.7338 51.2253V51.2129C23.7338 50.6786 23.6661 50.2172 23.5307 49.8289C23.3984 49.4405 23.2074 49.1417 22.9578 48.9323C22.7081 48.7203 22.4074 48.6142 22.0554 48.6142C21.7035 48.6142 21.4028 48.7203 21.1531 48.9323C20.9035 49.1444 20.7125 49.4446 20.5802 49.833C20.4478 50.2213 20.3817 50.6813 20.3817 51.2129V51.2253C20.3817 51.7569 20.4478 52.2182 20.5802 52.6093C20.7125 52.9977 20.9035 53.2979 21.1531 53.51C21.4028 53.7221 21.7035 53.8281 22.0554 53.8281Z" fill="#222222"/>
<path d="M26.8016 51.279C26.4076 51.279 26.0978 51.1399 25.8722 50.8617C25.6497 50.5808 25.5384 50.2021 25.5384 49.7256V49.7214C25.5384 49.2449 25.6497 48.8676 25.8722 48.5894C26.0978 48.3112 26.4076 48.1721 26.8016 48.1721C27.1956 48.1721 27.5054 48.3112 27.731 48.5894C27.9596 48.8676 28.0739 49.2449 28.0739 49.7214V49.7256C28.0739 50.2021 27.9596 50.5808 27.731 50.8617C27.5054 51.1399 27.1956 51.279 26.8016 51.279ZM26.8016 50.8989C27.0513 50.8989 27.2453 50.7942 27.3836 50.5849C27.522 50.3756 27.5912 50.0891 27.5912 49.7256V49.7214C27.5912 49.3551 27.522 49.0687 27.3836 48.8621C27.2453 48.6528 27.0513 48.5481 26.8016 48.5481C26.555 48.5481 26.3625 48.6528 26.2241 48.8621C26.0858 49.0687 26.0166 49.3551 26.0166 49.7214V49.7256C26.0166 50.0891 26.0858 50.3756 26.2241 50.5849C26.3625 50.7942 26.555 50.8989 26.8016 50.8989ZM27.158 54.1999H26.5941L30.9839 48.2383H31.5433L27.158 54.1999ZM31.3313 54.266C30.9372 54.266 30.6275 54.1269 30.4019 53.8488C30.1793 53.5678 30.068 53.1905 30.068 52.7167V52.7085C30.068 52.2347 30.1793 51.8588 30.4019 51.5806C30.6275 51.2997 30.9372 51.1592 31.3313 51.1592C31.7253 51.1592 32.0351 51.2997 32.2606 51.5806C32.4862 51.8588 32.599 52.2347 32.599 52.7085V52.7167C32.599 53.1932 32.4862 53.5706 32.2606 53.8488C32.0351 54.1269 31.7253 54.266 31.3313 54.266ZM31.3313 53.8901C31.5779 53.8901 31.7704 53.7854 31.9087 53.5761C32.0501 53.3668 32.1208 53.0803 32.1208 52.7167V52.7085C32.1208 52.3449 32.0501 52.0598 31.9087 51.8533C31.7704 51.6439 31.5779 51.5393 31.3313 51.5393C31.0816 51.5393 30.8876 51.6439 30.7493 51.8533C30.6109 52.0598 30.5417 52.3449 30.5417 52.7085V52.7167C30.5417 53.0803 30.6109 53.3668 30.7493 53.5761C30.8876 53.7854 31.0816 53.8901 31.3313 53.8901Z" fill="#222222"/>
<path d="M8.50266 64.0714L6.06641 58.1097H6.71156L8.77787 63.336H8.83201L10.8983 58.1097H11.548L9.11172 64.0714H8.50266Z" fill="#222222"/>
<path d="M12.6939 64.0714V58.1097H16.6235V58.6178H13.3075V60.7662H16.4566V61.2702H13.3075V63.5632H16.6235V64.0714H12.6939Z" fill="#222222"/>
<path d="M20.702 64.1912C20.1185 64.1912 19.6102 64.0645 19.1771 63.8111C18.7439 63.5549 18.4071 63.1941 18.1665 62.7286C17.9289 62.2604 17.8101 61.7109 17.8101 61.0802V61.0719C17.8101 60.4467 17.9289 59.9041 18.1665 59.4441C18.4071 58.9814 18.7439 58.6233 19.1771 58.3699C19.6132 58.1166 20.1215 57.9899 20.702 57.9899C21.1652 57.9899 21.5802 58.0642 21.9472 58.213C22.3141 58.3617 22.6179 58.5724 22.8585 58.8451C23.1021 59.1177 23.2676 59.44 23.3548 59.8118L23.3638 59.8531H22.7457L22.7322 59.8118C22.5968 59.3904 22.3532 59.0682 22.0013 58.8451C21.6494 58.6192 21.2163 58.5063 20.702 58.5063C20.2418 58.5063 19.8418 58.6123 19.5019 58.8244C19.165 59.0337 18.9034 59.3298 18.7169 59.7127C18.5304 60.0955 18.4372 60.5486 18.4372 61.0719V61.0802C18.4372 61.609 18.5304 62.0676 18.7169 62.456C18.9034 62.8443 19.165 63.1445 19.5019 63.3566C19.8418 63.5687 20.2433 63.6747 20.7065 63.6747C21.1276 63.6747 21.496 63.5935 21.8118 63.431C22.1276 63.2657 22.3713 63.0371 22.5427 62.7452C22.7171 62.4532 22.8044 62.1144 22.8044 61.7288V61.5966H20.7877V61.1008H23.4179V61.6792C23.4179 62.1805 23.3052 62.6198 23.0796 62.9972C22.857 63.3745 22.5427 63.6678 22.1367 63.8772C21.7306 64.0865 21.2524 64.1912 20.702 64.1912Z" fill="#222222"/>
<path d="M24.2255 64.0714L26.6618 58.1097H27.14V58.8451H26.9415L24.8752 64.0714H24.2255ZM25.2812 62.2411L25.4707 61.7577H28.4754L28.6649 62.2411H25.2812ZM29.0619 64.0714L26.9956 58.8451V58.1097H27.2753L29.7116 64.0714H29.0619Z" fill="#222222"/>
<path d="M30.8666 64.0714V58.1097H31.4711L35.4458 63.2946L35.0037 63.0674H35.324V58.1097H35.9331V64.0714H35.3421L31.3538 58.8822L31.796 59.1095H31.4711V64.0714H30.8666Z" fill="#222222"/>
</g>
<defs>
<clipPath id="clip0_3111_50341">
<rect width="41" height="67" fill="white" transform="translate(0.5 0.5)"/>
</clipPath>
</defs>
</svg>
