<svg width="53" height="53" viewBox="0 0 53 53" fill="none" xmlns="http://www.w3.org/2000/svg">
<g clip-path="url(#clip0_3111_50345)">
<path d="M26.5 0.5C12.1624 0.5 0.5 12.1624 0.5 26.5C0.5 40.8376 12.1624 52.5 26.5 52.5C40.8376 52.5 52.5 40.8376 52.5 26.5C52.5 12.1624 40.8318 0.5 26.5 0.5ZM26.5 1.66566C33.1384 1.66566 39.1707 4.28839 43.6293 8.54304L39.5787 12.5937L32.4215 10.3498C32.3108 10.3148 32.1884 10.3148 32.0718 10.3498L23.0555 13.1765C23.0555 13.1765 23.0205 13.194 23.003 13.1998C22.9739 13.2115 22.9506 13.2232 22.9273 13.2406C22.8923 13.264 22.8573 13.2931 22.8282 13.3222C22.8107 13.3397 22.7932 13.3514 22.7757 13.3747C22.7349 13.4271 22.7 13.4913 22.6766 13.5554C22.6766 13.5612 22.6766 13.5729 22.6766 13.5787C22.665 13.6253 22.6533 13.6778 22.6533 13.7302V18.9291L17.7168 17.3787C17.606 17.3438 17.4836 17.3438 17.3671 17.3787L8.3507 20.2054C8.3507 20.2054 8.31573 20.2229 8.29825 20.2288C8.26911 20.2404 8.2458 20.2521 8.22248 20.2696C8.18751 20.2929 8.15254 20.322 8.1234 20.3512C8.10591 20.3686 8.08843 20.3803 8.07094 20.4036C8.03014 20.4561 7.99518 20.5202 7.97186 20.5843C7.97186 20.5901 7.97186 20.6018 7.97186 20.6076C7.96021 20.6542 7.94855 20.7067 7.94855 20.7591V33.2317C7.94855 33.4881 8.11174 33.7096 8.35653 33.7854L15.9974 36.1808L8.54887 43.6293C4.29422 39.1707 1.67148 33.1384 1.67148 26.5C1.67148 12.8035 12.8152 1.66566 26.5058 1.66566H26.5ZM20.3861 39.9633V28.7148L28.2368 31.1743V42.4229L20.3861 39.9633ZM35.8835 27.9221L28.8138 30.1369L21.7441 27.9221L28.8138 25.7074L35.8835 27.9221ZM32.2525 15.9508L25.1828 13.736L32.2525 11.5213L39.3222 13.736L32.2525 15.9508ZM23.819 14.5287L31.6697 16.9882V25.381L28.9945 24.5417C28.8838 24.5067 28.7614 24.5067 28.6448 24.5417L27.1411 25.0138V20.765C27.1411 20.7125 27.1295 20.6659 27.1178 20.6134C27.1178 20.6076 27.1178 20.5959 27.1178 20.5901C27.0945 20.5202 27.0595 20.4619 27.0187 20.4094C27.0071 20.392 26.9896 20.3803 26.9721 20.3628C26.9371 20.3278 26.908 20.3045 26.8672 20.2754C26.8439 20.2637 26.8206 20.2521 26.7972 20.2404C26.7798 20.2346 26.7623 20.2171 26.7448 20.2113L23.8306 19.2962V14.5287H23.819ZM24.6058 20.765L17.5361 22.9797L10.4664 20.765L17.5361 18.5502L24.6058 20.765ZM9.10838 21.5576L16.9591 24.0171V35.2657L9.10838 32.8062V21.5576ZM18.1247 24.0171L25.9755 21.5576V25.3751L19.6284 27.3626C19.6284 27.3626 19.5935 27.3801 19.576 27.3859C19.5469 27.3976 19.5235 27.4092 19.5002 27.4267C19.4653 27.45 19.4303 27.4792 19.4011 27.5083C19.3837 27.5258 19.3662 27.5374 19.3487 27.5607C19.3079 27.6132 19.2729 27.6773 19.2496 27.7414C19.2496 27.7473 19.2496 27.7589 19.2496 27.7647C19.238 27.8114 19.2263 27.8638 19.2263 27.9163V34.916L18.1306 35.2599V24.0113L18.1247 24.0171ZM29.4025 31.1743L37.2532 28.7148V39.9633L29.4025 42.4229V31.1743ZM36.8102 26.9896L32.8354 25.7423V16.9824L40.6861 14.5229V25.7715L36.8102 26.9837V26.9896ZM26.5 51.3343C19.8616 51.3343 13.8293 48.7116 9.37065 44.457L17.2505 36.5771L17.3729 36.6179C17.4312 36.6354 17.4895 36.6471 17.5477 36.6471C17.606 36.6471 17.6643 36.6354 17.7226 36.6179L19.2263 36.1458V40.3946C19.2263 40.6511 19.3895 40.8726 19.6343 40.9483L28.6506 43.7751C28.7089 43.7925 28.7672 43.8042 28.8255 43.8042C28.8838 43.8042 28.9421 43.7925 29.0003 43.7751L38.0167 40.9483C38.2615 40.8726 38.4247 40.6453 38.4247 40.3946V27.9221C38.4247 27.8696 38.413 27.823 38.4014 27.7706C38.4014 27.7647 38.4014 27.7531 38.4014 27.7473C38.4014 27.7414 38.3955 27.7298 38.3897 27.7239L41.4554 26.7623C41.7002 26.6865 41.8634 26.4592 41.8634 26.2086V13.736C41.8634 13.6836 41.8517 13.637 41.8401 13.5845C41.8401 13.5787 41.8401 13.567 41.8401 13.5612C41.8167 13.4913 41.7818 13.433 41.741 13.3805C41.7293 13.363 41.7118 13.3514 41.6944 13.3339C41.6594 13.2989 41.6244 13.2698 41.5894 13.2465C41.5661 13.2348 41.5428 13.2232 41.5195 13.2115C41.502 13.2057 41.4845 13.194 41.467 13.1882L40.8609 12.9959L44.4803 9.37648C48.7349 13.8351 51.3577 19.8674 51.3577 26.5058C51.3577 40.2023 40.214 51.3402 26.5233 51.3402L26.5 51.3343Z" fill="#222222"/>
</g>
<defs>
<clipPath id="clip0_3111_50345">
<rect width="52" height="52" fill="white" transform="translate(0.5 0.5)"/>
</clipPath>
</defs>
</svg>
