<svg width="52" height="53" viewBox="0 0 52 53" fill="none" xmlns="http://www.w3.org/2000/svg">
<g clip-path="url(#clip0_3111_50347)">
<path d="M26 0.5C11.6624 0.5 0 12.1624 0 26.5C0 40.8376 11.6624 52.5 26 52.5C40.3376 52.5 52 40.8376 52 26.5C52 12.1624 40.3376 0.5 26 0.5ZM26 1.66566C32.6384 1.66566 38.6707 4.28839 43.1293 8.54304L32.7375 18.9349C32.3936 18.9524 32.0556 19.0048 31.7758 19.0573C31.9332 18.9232 32.0906 18.7775 32.2421 18.6201C33.501 17.268 33.9673 15.6652 34.1305 14.8318C34.2004 14.4821 34.521 12.687 33.8682 12.0866C33.2212 11.4863 31.4553 11.9293 31.1114 12.0284C30.5344 12.1857 29.5844 12.5296 28.6344 13.1882C28.9957 12.5121 29.2522 11.6961 29.2522 10.7286C29.2522 8.88108 28.5003 7.38904 28.0574 6.66633C27.8709 6.35743 26.8801 4.83625 26 4.83625C25.1199 4.83625 24.1291 6.36326 23.9368 6.66633C23.488 7.38904 22.742 8.88108 22.742 10.7286C22.742 11.6961 22.9984 12.5121 23.3598 13.1882C22.4098 12.5296 21.4598 12.1857 20.8828 12.0284C20.5389 11.9351 18.7729 11.4863 18.126 12.0866C17.479 12.687 17.7938 14.4762 17.8637 14.8318C18.0327 15.6652 18.499 17.268 19.7521 18.6201C19.9036 18.7833 20.061 18.9232 20.2183 19.0573C19.5306 18.9174 18.4232 18.7892 17.9395 19.2438C17.2809 19.8557 17.6014 21.6858 17.6772 22.0472C17.8462 22.9039 18.3241 24.5417 19.6122 25.9288C19.7521 26.0804 19.8978 26.2144 20.0435 26.3426C19.3383 26.1911 18.1027 26.0221 17.5781 26.5117C16.8962 27.1469 17.2343 29.0528 17.31 29.4258C17.4616 30.1951 17.8579 31.5648 18.8137 32.8587L17.8812 33.7912C17.7588 33.8378 17.6481 33.8903 17.5723 33.9602C17.4849 34.0418 17.4091 34.17 17.3508 34.3216L8.03721 43.6352C3.78256 39.1765 1.15983 33.1442 1.15983 26.5058C1.16566 12.8093 12.3093 1.66566 26 1.66566ZM27.5911 36.2158C27.1598 36.6762 26.8334 37.1774 26.5828 37.6903V35.5338C26.7285 35.5455 26.9558 35.563 27.2647 35.563C27.5736 35.563 27.9525 35.5455 28.3721 35.4989C28.0982 35.7204 27.8359 35.9535 27.5911 36.2158ZM28.4421 37.0142C30.2546 35.0676 32.9706 34.6654 33.6059 34.8286C33.8216 35.4581 33.6176 38.1915 31.805 40.1382C30.3129 41.741 27.9874 41.8634 27.0141 41.8401C26.9384 40.89 26.9442 38.6228 28.4362 37.0084L28.4421 37.0142ZM25.4172 27.9104V30.2418C25.1782 29.758 24.8693 29.2917 24.4788 28.8488L25.4172 27.9104ZM26.5828 15.4379C26.5828 15.4379 26.6003 15.4262 26.612 15.4146C26.6003 15.4321 26.5887 15.4496 26.5828 15.4729V15.4379ZM25.4172 15.4729C25.4172 15.4729 25.3939 15.4379 25.388 15.4146C25.3997 15.4204 25.4055 15.4262 25.4172 15.4379V15.4729ZM26.5828 20.5435C26.7169 20.5551 26.9267 20.5668 27.2006 20.5668C27.5736 20.5668 28.0574 20.5435 28.5878 20.4561C28.2206 20.7242 27.8534 21.0331 27.5095 21.4002C27.1132 21.8257 26.816 22.2803 26.577 22.7466V20.5377L26.5828 20.5435ZM27.0141 19.3953C26.95 18.4978 26.9733 16.4404 28.3255 14.9833C29.9574 13.229 32.4344 12.8268 33.0581 12.9609C33.2387 13.5729 33.0231 16.0732 31.3853 17.8275C30.0332 19.2846 27.9175 19.4128 27.0083 19.3953H27.0141ZM26.0058 14.4296C25.3822 13.9925 23.9135 12.7569 23.9135 10.7345C23.9135 8.33905 25.458 6.36326 26.0058 6.03105C26.5537 6.35743 28.0982 8.33322 28.0982 10.7345C28.0982 12.7685 26.6411 13.9983 26.0117 14.4296H26.0058ZM24.9859 19.3953C24.0825 19.4186 21.9668 19.2846 20.6088 17.8275C18.9769 16.0732 18.7613 13.5729 18.9419 12.9609C19.5656 12.8268 22.0426 13.2232 23.6745 14.9833C25.0267 16.4404 25.0558 18.4978 24.9859 19.3953ZM24.7994 20.5668C25.0733 20.5668 25.2831 20.5551 25.4172 20.5435V22.7524C25.184 22.2861 24.881 21.8257 24.4846 21.4061C24.1408 21.0331 23.7736 20.7242 23.4064 20.4619C23.9426 20.5493 24.4205 20.5726 24.7935 20.5726L24.7994 20.5668ZM24.9859 26.6923L24.9276 26.7506C23.9601 26.7623 21.8444 26.6166 20.469 25.1362C18.7787 23.3178 18.5631 20.7358 18.7554 20.118C19.3907 19.9723 21.9435 20.3745 23.6337 22.1929C25.0092 23.6733 25.05 25.7423 24.9859 26.6865V26.6923ZM23.8086 27.8696L23.6279 28.0503C23.523 27.9629 23.4181 27.8755 23.3132 27.7997C23.488 27.8288 23.6512 27.8522 23.8144 27.8696H23.8086ZM23.5579 29.5657C25.05 31.1685 25.0558 33.4415 24.98 34.3973C24.0067 34.4265 21.6871 34.3041 20.195 32.6955C18.3824 30.7488 18.1784 28.0095 18.3941 27.3859C19.0294 27.2169 21.7453 27.619 23.5579 29.5715V29.5657ZM18.3941 34.8286C19.0352 34.6654 21.7512 35.0676 23.5579 37.0142C25.05 38.617 25.0558 40.89 24.98 41.8459C24.0126 41.8692 21.6812 41.7526 20.195 40.144C18.3824 38.1974 18.1784 35.4581 18.3941 34.8344V34.8286ZM24.4089 36.2158C24.1641 35.9535 23.9018 35.7145 23.6279 35.4989C24.0475 35.5455 24.4264 35.563 24.7353 35.563C25.0442 35.563 25.2715 35.5455 25.4172 35.5338V37.6845C25.1666 37.1774 24.8402 36.6762 24.4089 36.2158ZM27.0199 34.3915C26.9442 33.4415 26.95 31.1743 28.4421 29.5598C30.2546 27.6132 32.9706 27.2111 33.6059 27.3742C33.8216 28.0037 33.6176 30.7372 31.805 32.6838C30.3129 34.2866 27.9874 34.409 27.0141 34.3857L27.0199 34.3915ZM27.5911 28.7672C27.1598 29.2276 26.8334 29.7289 26.5828 30.2418V27.893C26.7227 27.9046 26.9384 27.9163 27.2239 27.9163C27.6144 27.9163 28.1273 27.8871 28.6927 27.7939C28.3138 28.0678 27.9408 28.3884 27.5911 28.7614V28.7672ZM27.0141 26.7506C26.9442 25.8356 26.9617 23.7082 28.3663 22.1987C30.0565 20.3803 32.6151 19.9781 33.2446 20.1238C33.4369 20.7416 33.2212 23.3236 31.531 25.142C30.1323 26.6515 27.9583 26.7739 27.0141 26.7564V26.7506ZM26 51.3343C19.3616 51.3343 13.3293 48.7116 8.87066 44.457L17.2109 36.1167C17.3566 37.5971 18.0036 39.4971 19.3383 40.9308C21.0285 42.7493 23.4589 43.0115 24.7353 43.0115C25.0442 43.0115 25.2715 42.9941 25.4172 42.9824V47.4935C25.4172 47.814 25.6794 48.0763 26 48.0763C26.3206 48.0763 26.5828 47.814 26.5828 47.4935V42.9824C26.7285 42.9941 26.9558 43.0115 27.2647 43.0115C28.5353 43.0115 30.9715 42.7493 32.6617 40.9308C34.9231 38.5005 35.232 34.7121 34.416 33.9544C34.1013 33.663 33.3611 33.5755 32.4344 33.7038C32.5102 33.628 32.586 33.5581 32.6617 33.4765C34.0081 32.031 34.5093 30.3117 34.6841 29.4141C34.7599 29.0411 35.098 27.1353 34.416 26.5C33.8915 26.0104 32.6559 26.1853 31.9507 26.331C32.0964 26.2028 32.2421 26.0687 32.382 25.9172C33.67 24.5359 34.1479 22.8923 34.317 22.0355C34.3869 21.6742 34.7075 19.8674 34.0605 19.2438L43.9511 9.35317C48.2058 13.8118 50.8285 19.8441 50.8285 26.4825C50.8285 40.179 39.6848 51.3169 25.9942 51.3169L26 51.3343Z" fill="#222222"/>
</g>
<defs>
<clipPath id="clip0_3111_50347">
<rect width="51" height="52" fill="white" transform="translate(0.5 0.5)"/>
</clipPath>
</defs>
</svg>
