<svg width="53" height="53" viewBox="0 0 53 53" fill="none" xmlns="http://www.w3.org/2000/svg">
<g clip-path="url(#clip0_3111_50349)">
<path d="M26.5 0.5C12.1624 0.5 0.5 12.1624 0.5 26.5C0.5 40.8376 12.1624 52.5 26.5 52.5C40.8376 52.5 52.5 40.8376 52.5 26.5C52.5 12.1624 40.8376 0.5 26.5 0.5ZM26.5 1.66566C33.1384 1.66566 39.1707 4.28839 43.6293 8.54304L33.4765 18.6959L31.932 15.8809C31.3783 14.7094 31.0927 13.4738 31.0927 12.2149V11.3814C31.7221 11.2882 32.2059 10.7461 32.2059 10.0934V7.72125C32.2059 7.00437 31.6231 6.41571 30.9004 6.41571H22.0938C21.3769 6.41571 20.7883 6.99854 20.7883 7.72125V10.0934C20.7883 10.7461 21.272 11.2882 21.9015 11.3814V12.2149C21.9015 13.4738 21.6217 14.7094 21.0797 15.8517L18.4045 20.7242C18.0082 21.5518 17.81 22.4319 17.81 23.3236V34.3624L8.54303 43.6293C4.28838 39.1707 1.66566 33.1384 1.66566 26.5C1.66566 12.8035 12.8093 1.66566 26.5 1.66566ZM22.0938 10.2274C22.018 10.2274 21.9539 10.1633 21.9539 10.0875V7.71542C21.9539 7.63965 22.018 7.57554 22.0938 7.57554H30.9004C30.9761 7.57554 31.0402 7.63965 31.0402 7.71542V10.0875C31.0402 10.1633 30.9761 10.2274 30.9004 10.2274H29.927V12.2149C29.927 13.6486 30.2476 15.0532 30.8945 16.4112L33.5464 21.2371C33.8611 21.9073 34.0185 22.6067 34.0185 23.3236V44.5036C34.0185 45.0048 33.459 45.4245 32.8004 45.4245H20.1938C19.5352 45.4245 18.9757 45.0048 18.9757 44.5036V23.3236C18.9757 22.6009 19.1389 21.8957 19.4419 21.2545L22.1171 16.3821C22.7466 15.0532 23.0671 13.6486 23.0671 12.2149V10.2274H22.0938ZM26.5 51.3343C19.8616 51.3343 13.8293 48.7116 9.37066 44.457L17.8158 36.0118V44.5036C17.8158 45.6518 18.8824 46.5901 20.1996 46.5901H32.8062C34.1176 46.5901 35.19 45.6518 35.19 44.5036V23.3236C35.19 22.426 34.9918 21.5518 34.5955 20.7242L34.0651 19.7625L44.4569 9.37066C48.7116 13.8293 51.3343 19.8616 51.3343 26.5C51.3343 40.1965 40.1906 51.3343 26.5 51.3343Z" fill="#222222"/>
<path d="M23.207 24.0931V37.9061C23.207 38.2267 23.4971 38.489 23.8516 38.489H34.6543C35.0088 38.489 35.2988 38.2267 35.2988 37.9061V24.0931C35.2988 23.7725 35.0088 23.5103 34.6543 23.5103H23.8516C23.4971 23.5103 23.207 23.7725 23.207 24.0931ZM24.4961 24.6759H34.0097V37.3233H24.4961V24.6759Z" fill="#222222"/>
</g>
<defs>
<clipPath id="clip0_3111_50349">
<rect width="52" height="52" fill="white" transform="translate(0.5 0.5)"/>
</clipPath>
</defs>
</svg>
