<svg width="1601" height="398" viewBox="0 0 1601 398" fill="none" xmlns="http://www.w3.org/2000/svg">
<g clip-path="url(#clip0_3111_52088)">
<rect width="1600" height="397" transform="translate(0.5 0.0366211)" fill="url(#paint0_radial_3111_52088)"/>
<path opacity="0.5" d="M863.901 37.6593C837.367 135.678 722.835 34.0052 696.849 -30.3101C670.864 -94.6254 703.526 -168.47 769.801 -195.247C836.076 -222.024 889.532 -179.261 918.045 -122.579C946.558 -65.896 890.435 -60.3596 863.901 37.6593Z" fill="#FF5A00"/>
<path opacity="0.5" d="M44.4822 82.4019C167.14 15.819 168.359 227.493 127.116 314.746C85.8725 401.999 -17.9924 439.44 -104.873 398.373C-191.753 357.306 -228.75 253.282 -187.506 166.029C-146.263 78.7758 -78.1759 148.985 44.4822 82.4019Z" fill="#FF5A00"/>
<path opacity="0.5" d="M1312.95 170.305C1426.18 16.0466 1551.95 277.473 1551.95 409.671C1551.95 541.869 1444.94 649.037 1312.95 649.037C1180.95 649.037 1073.95 541.869 1073.95 409.671C1073.95 277.473 1199.71 324.564 1312.95 170.305Z" fill="#FF6C1C"/>
<g opacity="0.2">
<path d="M-3.5 154.037L2.56218 143.537H-9.56218L-3.5 154.037Z" fill="white"/>
<path d="M50.5 154.037L56.5622 143.537H44.4378L50.5 154.037Z" fill="white"/>
<path d="M104.5 154.037L110.562 143.537H98.4378L104.5 154.037Z" fill="white"/>
<path d="M158.5 154.037L164.562 143.537H152.438L158.5 154.037Z" fill="white"/>
</g>
<g opacity="0.2">
<path d="M-3.5 191.037L2.56218 201.537H-9.56218L-3.5 191.037Z" fill="white"/>
<path d="M50.5 191.037L56.5622 201.537H44.4378L50.5 191.037Z" fill="white"/>
<path d="M104.5 191.037L110.562 201.537H98.4378L104.5 191.037Z" fill="white"/>
<path d="M158.5 191.037L164.562 201.537H152.438L158.5 191.037Z" fill="white"/>
</g>
<g opacity="0.2">
<path d="M-3.5 242.037L2.56218 252.537H-9.56218L-3.5 242.037Z" fill="white"/>
<path d="M50.5 242.037L56.5622 252.537H44.4378L50.5 242.037Z" fill="white"/>
<path d="M104.5 242.037L110.562 252.537H98.4378L104.5 242.037Z" fill="white"/>
<path d="M158.5 242.037L164.562 252.537H152.438L158.5 242.037Z" fill="white"/>
</g>
<g opacity="0.2">
<path d="M-3.5 307.037L2.56218 296.537H-9.56218L-3.5 307.037Z" fill="white"/>
<path d="M50.5 307.037L56.5622 296.537H44.4378L50.5 307.037Z" fill="white"/>
<path d="M104.5 307.037L110.562 296.537H98.4378L104.5 307.037Z" fill="white"/>
<path d="M158.5 307.037L164.562 296.537H152.438L158.5 307.037Z" fill="white"/>
</g>
<g opacity="0.2">
<path d="M-3.5 344.037L2.56218 354.537H-9.56218L-3.5 344.037Z" fill="white"/>
<path d="M50.5 344.037L56.5622 354.537H44.4378L50.5 344.037Z" fill="white"/>
<path d="M104.5 344.037L110.562 354.537H98.4378L104.5 344.037Z" fill="white"/>
<path d="M158.5 344.037L164.562 354.537H152.438L158.5 344.037Z" fill="white"/>
</g>
<g opacity="0.2">
<path d="M1437.5 37.0366L1443.56 26.5366H1431.44L1437.5 37.0366Z" fill="white"/>
<path d="M1491.5 37.0366L1497.56 26.5366H1485.44L1491.5 37.0366Z" fill="white"/>
<path d="M1545.5 37.0366L1551.56 26.5366H1539.44L1545.5 37.0366Z" fill="white"/>
<path d="M1599.5 37.0366L1605.56 26.5366H1593.44L1599.5 37.0366Z" fill="white"/>
</g>
<g opacity="0.2">
<path d="M1437.5 74.0366L1443.56 84.5366H1431.44L1437.5 74.0366Z" fill="white"/>
<path d="M1491.5 74.0366L1497.56 84.5366H1485.44L1491.5 74.0366Z" fill="white"/>
<path d="M1545.5 74.0366L1551.56 84.5366H1539.44L1545.5 74.0366Z" fill="white"/>
<path d="M1599.5 74.0366L1605.56 84.5366H1593.44L1599.5 74.0366Z" fill="white"/>
</g>
<g opacity="0.2">
<path d="M1437.5 139.037L1443.56 128.537H1431.44L1437.5 139.037Z" fill="white"/>
<path d="M1491.5 139.037L1497.56 128.537H1485.44L1491.5 139.037Z" fill="white"/>
<path d="M1545.5 139.037L1551.56 128.537H1539.44L1545.5 139.037Z" fill="white"/>
<path d="M1599.5 139.037L1605.56 128.537H1593.44L1599.5 139.037Z" fill="white"/>
</g>
<g opacity="0.2">
<path d="M1437.5 176.037L1443.56 186.537H1431.44L1437.5 176.037Z" fill="white"/>
<path d="M1491.5 176.037L1497.56 186.537H1485.44L1491.5 176.037Z" fill="white"/>
<path d="M1545.5 176.037L1551.56 186.537H1539.44L1545.5 176.037Z" fill="white"/>
<path d="M1599.5 176.037L1605.56 186.537H1593.44L1599.5 176.037Z" fill="white"/>
</g>
</g>
<defs>
<radialGradient id="paint0_radial_3111_52088" cx="0" cy="0" r="1" gradientUnits="userSpaceOnUse" gradientTransform="translate(-2.09769e-05 198.5) scale(1600 2638.75)">
<stop stop-color="#FF9155"/>
<stop offset="1" stop-color="#FF5A00"/>
</radialGradient>
<clipPath id="clip0_3111_52088">
<rect width="1600" height="397" fill="white" transform="translate(0.5 0.0366211)"/>
</clipPath>
</defs>
</svg>
