<svg width="571" height="402" viewBox="0 0 571 402" fill="none" xmlns="http://www.w3.org/2000/svg">
<g clip-path="url(#clip0_3111_48984)">
<path d="M106.977 372.475L92.2188 508.541C92.2036 508.763 92.2325 508.985 92.3037 509.194C92.3749 509.402 92.4867 509.593 92.6318 509.752C92.7769 509.911 92.952 510.036 93.1456 510.118C93.3392 510.2 93.5468 510.238 93.755 510.228C94.1025 510.238 94.4427 510.12 94.7189 509.895C94.9952 509.67 95.1908 509.351 95.2734 508.991L119.259 372.475H106.977Z" fill="white" stroke="#222222" stroke-linecap="round" stroke-linejoin="round"/>
<path d="M163.552 372.476L178.31 505.921C178.325 506.143 178.295 506.365 178.224 506.573C178.153 506.782 178.041 506.972 177.896 507.131C177.751 507.29 177.576 507.415 177.383 507.497C177.189 507.579 176.982 507.617 176.774 507.608C176.426 507.618 176.086 507.501 175.81 507.275C175.534 507.05 175.338 506.731 175.256 506.371L151.27 372.472L163.552 372.476Z" fill="white" stroke="#222222" stroke-linecap="round" stroke-linejoin="round"/>
<path d="M171.988 364.124H97.3763C96.0812 364.124 95.0312 365.243 95.0312 366.624V369.975C95.0312 371.356 96.0812 372.476 97.3763 372.476H171.988C173.283 372.476 174.333 371.356 174.333 369.975V366.624C174.333 365.243 173.283 364.124 171.988 364.124Z" fill="white" stroke="#222222" stroke-linecap="round" stroke-linejoin="round"/>
<path d="M96.8922 355.633C95.3639 354.845 93.7833 354.179 92.1631 353.639C87.3666 352.229 85.6602 354.884 85.6602 354.884L90.5205 385.144C90.5205 385.144 95.8669 384.852 96.9631 376.591C98.1055 367.964 99.9042 364.994 99.9042 364.994L96.8922 355.633Z" fill="#EFAF00" stroke="#222222" stroke-linecap="round" stroke-linejoin="round"/>
<path d="M181.493 327.764C179.431 353.897 172.939 364.333 165.234 364.333C165.137 364.335 165.04 364.323 164.946 364.299C115.512 363.675 92.6936 365.706 92.2182 361.954C91.8244 358.973 107.502 344.88 125.329 340.394C141.78 336.233 143.131 341.479 152.568 337.663C151.94 334.905 151.387 331.989 150.929 328.937C153.015 329.062 154.984 329.149 156.847 329.209C169.757 329.602 177.466 328.596 181.493 327.764Z" fill="#222222"/>
<path d="M71.4343 355.764C69.7704 355.409 68.0842 355.187 66.3894 355.098C61.4226 355.011 60.3867 358.033 60.3867 358.033L72.1793 386.023C72.1793 386.023 77.2915 384.314 76.4152 376.023C75.4999 367.365 76.543 364.013 76.543 364.013L71.4343 355.764Z" fill="#EFAF00" stroke="#222222" stroke-linecap="round" stroke-linejoin="round"/>
<path d="M156.831 329.189C155.863 354.275 152.414 364.332 140.242 364.332C140.144 364.333 140.047 364.322 139.951 364.298C106.582 363.878 85.3415 364.676 74.9077 364.067C69.8877 363.78 71.0727 356.937 71.4345 355.769C71.4345 355.769 82.4963 344.879 100.316 340.374C116.767 336.213 119.69 341.369 127.815 338.736C126.843 334.633 126.089 330.474 125.558 326.281C138.334 328.096 148.629 328.928 156.831 329.189Z" fill="#FFCEB4" stroke="#222222" stroke-linecap="round" stroke-linejoin="round"/>
<path d="M133.865 193.574C130.193 196.547 124.013 201.634 121.469 210.039C128.011 211.26 137.338 215.368 140.981 217.929C140.981 217.929 139.346 223.084 137.753 226.133C119.035 261.896 119.035 325.302 119.035 325.302C169.608 333.286 185.047 326.815 185.047 326.815C185.799 294.04 181.049 233.248 177.459 202.077C180.517 203.002 183.657 203.582 186.828 203.809C185.874 187.257 189.525 182.033 189.525 182.033C183.596 180.017 174.181 179.9 169.523 180.392C166.617 180.528 163.534 180.921 163.534 180.921C161.888 181.145 140.857 187.911 133.865 193.574Z" fill="white" stroke="#222222" stroke-linecap="round" stroke-linejoin="round"/>
<path d="M168.743 179.725C186.716 203.218 185.155 297.806 185.155 297.806L161.435 297.87C157.052 297.888 152.821 296.158 149.573 293.02C146.325 289.882 144.294 285.562 143.881 280.91C141.579 254.168 128.789 252.137 128.789 252.137L130.755 246.361C130.755 246.361 152.8 241.443 151.601 218.238C150.537 197.813 138.343 189.491 138.343 189.491C138.343 189.491 141.891 187.456 144.676 186.953C147.461 186.45 155.45 202.261 157.536 203.717C158.075 204.095 165.203 202.151 171.507 199.583C171.507 199.583 164.947 181.957 163.702 180.754C162.457 179.551 168.743 179.725 168.743 179.725Z" fill="#EFAF00" stroke="#222222" stroke-linecap="round" stroke-linejoin="round"/>
<path d="M245.987 164.803C247.824 165.136 249.414 168.85 249.641 169.308C249.868 169.765 250.705 172.216 250.705 172.216C250.705 172.216 248.839 173.4 247.892 171.558C246.774 169.368 245.791 169.448 244.227 169.709C243.578 169.822 242.889 170.242 243.163 171.157C243.436 172.073 245.962 171.736 246.639 172.088C247.675 172.621 247.753 173.945 247.753 173.945L243.06 174.388C242.478 174.444 239.391 173.601 236.823 172.262C232.817 178.265 221.167 194.279 207.973 198.992C198.82 202.26 191.444 202.499 186.719 202.075C186.151 187.997 189.021 182.785 189.447 182.1C194.229 182.278 199.508 182.149 204.471 181.256C211.567 179.982 222.565 169.739 233.729 166.505C234.673 166.35 240.881 163.884 245.987 164.803Z" fill="#FFCEB4" stroke="#222222" stroke-linecap="round" stroke-linejoin="round"/>
<path d="M244.609 179.694C244.609 179.694 249.835 177.262 247.66 172.023L244.609 179.694Z" fill="white"/>
<path d="M244.609 179.694C244.609 179.694 249.835 177.262 247.66 172.023" stroke="#222222" stroke-linecap="round" stroke-linejoin="round"/>
<path d="M243.852 185.012C245.451 185.012 246.747 183.63 246.747 181.926C246.747 180.221 245.451 178.839 243.852 178.839C242.253 178.839 240.957 180.221 240.957 181.926C240.957 183.63 242.253 185.012 243.852 185.012Z" fill="#FF5A00" stroke="#222222" stroke-linecap="round" stroke-linejoin="round"/>
<path d="M190.679 182.138C190.679 182.138 188.164 189.613 191.492 202.219C189.905 202.263 188.316 202.216 186.734 202.076C186.167 187.997 189.037 182.785 189.462 182.101L190.679 182.138Z" fill="#222222"/>
<path d="M162.593 267.662C162.593 267.662 160.085 269.368 157.868 269.791C154.987 270.321 149.949 268.475 148.495 266.576C132.498 264.273 119.027 242.089 119.027 238.06C119.027 233.143 120.003 220.896 124.799 210.827C130.717 212.491 137.873 215.77 141.048 217.926C137.763 226.815 136.933 235.855 136.603 236.665C136.099 237.902 147.15 258.981 148.566 261.088C152.784 260.26 153.887 261.466 154.391 262.567C154.895 263.668 155.1 266.89 160.514 266.062C161.99 265.839 162.593 267.662 162.593 267.662Z" fill="#FFCEB4" stroke="#222222" stroke-linecap="round" stroke-linejoin="round"/>
<path d="M140.973 217.928C140.448 219.312 139.909 220.696 139.338 222.066C135.886 219.013 130.022 216.543 122.352 216.271C123.129 214.44 123.952 212.61 124.799 210.832C130.855 212.538 137.919 215.775 140.973 217.928Z" fill="#222222"/>
<path d="M162.112 262.977C162.076 263.032 162.028 263.077 161.973 263.108C161.917 263.139 161.855 263.155 161.793 263.155C161.744 263.155 161.697 263.145 161.653 263.125C161.608 263.104 161.568 263.075 161.535 263.038C161.502 263.001 161.476 262.957 161.459 262.908C161.443 262.86 161.435 262.809 161.438 262.758C161.436 262.7 161.449 262.643 161.473 262.591C161.272 261.104 160.962 259.636 160.547 258.2C159.838 260.882 157.099 262.017 157.063 262.032C157.021 262.046 156.977 262.054 156.932 262.054C156.838 262.072 156.741 262.05 156.663 261.992C156.584 261.934 156.53 261.845 156.514 261.744C156.497 261.644 156.518 261.541 156.572 261.457C156.627 261.373 156.71 261.316 156.804 261.298C156.953 261.237 159.965 259.982 159.965 256.933C159.965 256.606 159.933 256.28 159.87 255.961V255.927C159.856 255.887 159.849 255.845 159.848 255.802C159.796 255.567 159.731 255.336 159.653 255.11C159.62 255.012 159.624 254.904 159.666 254.81C159.707 254.715 159.781 254.642 159.873 254.607C159.965 254.571 160.066 254.576 160.155 254.62C160.243 254.664 160.312 254.743 160.345 254.841C160.447 255.139 160.53 255.443 160.593 255.753C161.064 257.175 161.464 258.623 161.789 260.091C162.335 262.637 162.215 262.834 162.112 262.977Z" fill="white" stroke="#222222" stroke-linecap="round" stroke-linejoin="round"/>
<path d="M161.621 266.35C162.752 266.35 163.668 265.353 163.668 264.122C163.668 262.892 162.752 261.895 161.621 261.895C160.491 261.895 159.574 262.892 159.574 264.122C159.574 265.353 160.491 266.35 161.621 266.35Z" fill="#FF5A00" stroke="#222222" stroke-linecap="round" stroke-linejoin="round"/>
<path d="M156.208 265.807C157.611 265.807 158.748 264.569 158.748 263.042C158.748 261.515 157.611 260.277 156.208 260.277C154.805 260.277 153.668 261.515 153.668 263.042C153.668 264.569 154.805 265.807 156.208 265.807Z" fill="#FF5A00" stroke="#222222" stroke-linecap="round" stroke-linejoin="round"/>
<path d="M140.68 217.682L144.994 209.455" stroke="#222222" stroke-linecap="round" stroke-linejoin="round"/>
<path d="M146.803 173.447C146.803 173.447 149.485 181.504 143.965 187.854C143.965 187.854 155.782 189.594 164.453 182.067C164.453 182.067 161.012 176.987 161.742 167.898L146.803 173.447Z" fill="#FFCEB4" stroke="#222222" stroke-linecap="round" stroke-linejoin="round"/>
<path d="M164.472 182.064C163.762 182.642 163.013 183.247 162.698 183.433C156.89 187.064 149.351 181.163 147.443 177.634C147.41 176.213 147.192 174.804 146.797 173.447L161.74 167.898C161.094 176.008 163.819 181.114 164.472 182.064Z" fill="#222222"/>
<path d="M142.434 170.788C134.799 165.14 132.699 158.533 133.653 153.01C133.353 153.048 133.051 153.06 132.749 153.048C131.872 153.01 130.074 153.502 129.499 152.821C128.924 152.14 128.814 151.013 129.414 150.359C127.838 150.476 126.257 150.476 124.681 150.359C122.868 150.23 121.275 149.141 120.839 147.333C120.516 146.005 121.392 144.617 122.56 143.928C123.512 143.442 124.551 143.175 125.607 143.145C124.899 142.713 124.099 142.48 123.283 142.468C122.467 142.456 121.661 142.666 120.942 143.077C120.856 143.128 120.754 143.139 120.66 143.11C120.566 143.08 120.487 143.012 120.44 142.92C120.393 142.829 120.382 142.721 120.409 142.62C120.437 142.52 120.501 142.435 120.587 142.385C121.572 141.804 122.705 141.571 123.823 141.719C123.196 140.967 122.822 140.015 122.758 139.011C122.704 137.955 122.858 136.898 123.208 135.908C123.559 134.918 124.099 134.017 124.795 133.262C126.1 131.923 128.14 131.219 129.992 131.17C130.715 131.144 131.435 131.297 132.093 131.618C132.751 131.939 133.33 132.419 133.785 133.02C133.54 131.507 134.267 129.196 135.204 128.481C137.332 126.888 140.298 128.292 140.802 129.782C140.965 130.274 141.011 130.856 141.288 131.261C141.778 130.531 142.388 129.748 143.129 129.442C145.893 128.243 148.17 130.028 148.426 131.522C148.642 132.789 147.982 134.068 146.978 134.866C147.336 134.766 147.712 134.776 148.064 134.894C148.416 135.013 148.73 135.235 148.969 135.535C149.568 136.329 149.604 137.426 149.419 138.429C149.318 138.984 149.15 139.523 148.919 140.032C149.575 139.821 150.664 139.2 150.849 137.385C150.854 137.334 150.869 137.284 150.892 137.239C150.916 137.194 150.947 137.154 150.985 137.122C151.023 137.09 151.066 137.066 151.112 137.052C151.159 137.037 151.207 137.033 151.255 137.039C151.303 137.044 151.35 137.06 151.392 137.085C151.434 137.11 151.471 137.143 151.502 137.184C151.532 137.224 151.554 137.27 151.568 137.319C151.581 137.369 151.585 137.421 151.58 137.472C151.545 138.166 151.322 138.835 150.939 139.398C150.555 139.961 150.028 140.394 149.419 140.645C155.83 140.645 160.477 144.049 162.67 151.781C165.494 161.721 142.434 170.788 142.434 170.788Z" fill="#222222"/>
<path d="M133.435 153.073C133.381 153.074 133.327 153.065 133.276 153.047C133.146 153.002 133.038 152.904 132.975 152.774C132.913 152.644 132.901 152.494 132.942 152.355C133.676 150.191 134.736 148.169 136.078 146.367C139.03 142.384 142.954 140.126 147.431 139.846C147.568 139.838 147.702 139.887 147.804 139.984C147.906 140.081 147.968 140.217 147.976 140.362C147.984 140.508 147.937 140.651 147.846 140.76C147.755 140.869 147.628 140.935 147.491 140.943C143.273 141.208 139.718 143.254 136.916 147.021C135.642 148.73 134.635 150.645 133.932 152.695C133.898 152.806 133.831 152.903 133.742 152.971C133.653 153.039 133.545 153.075 133.435 153.073Z" fill="#EFAF00"/>
<path d="M148.254 155.926C148.254 161.925 146.228 165.435 142.34 165.567C142.34 165.567 138.437 164.433 138.029 167.054C137.675 169.323 141.127 170.458 142.17 170.727C143.908 172.364 154.303 181.613 162.519 176.684C171.683 171.188 165.045 142.982 152.525 147.559C151.809 147.82 148.268 148.993 148.254 155.926Z" fill="#FFCEB4" stroke="#222222" stroke-linecap="round" stroke-linejoin="round"/>
<path d="M140.68 218.084C140.68 218.084 137.26 231.433 136.316 235.707" stroke="#222222" stroke-linecap="round" stroke-linejoin="round"/>
<path d="M141.273 171.9C143.685 171.9 145.641 169.816 145.641 167.244C145.641 164.673 143.685 162.588 141.273 162.588C138.862 162.588 136.906 164.673 136.906 167.244C136.906 169.816 138.862 171.9 141.273 171.9Z" fill="#FFCEB4"/>
<path d="M139.582 165.023C139.582 165.023 141.636 164.025 143.435 166.616" stroke="#222222" stroke-linecap="round" stroke-linejoin="round"/>
<path d="M141.511 165.402L139.996 167.244" stroke="#222222" stroke-linecap="round" stroke-linejoin="round"/>
<path d="M155.218 162.147C155.919 161.943 156.305 161.06 156.078 160.173C155.852 159.286 155.101 158.731 154.399 158.935C153.698 159.138 153.312 160.022 153.538 160.909C153.764 161.796 154.516 162.35 155.218 162.147Z" fill="#222222"/>
<path d="M163.626 159.435C164.165 159.279 164.419 158.433 164.193 157.546C163.967 156.659 163.347 156.067 162.808 156.223C162.269 156.379 162.015 157.224 162.241 158.111C162.467 158.998 163.087 159.591 163.626 159.435Z" fill="#222222"/>
<path d="M160.055 159.448C160.055 159.448 163.443 160.518 163.223 161.649C163.007 162.453 162.607 163.188 162.059 163.786" stroke="#222222" stroke-linecap="round" stroke-linejoin="round"/>
<path d="M154.211 166.32C154.211 166.32 156.694 169.368 161.746 167.897" stroke="#222222" stroke-linecap="round" stroke-linejoin="round"/>
<path d="M395.2 183.441C375.723 182.102 354.873 152.138 348.168 141.69C345.06 143.491 340.445 145.919 336.638 146.055C335.293 146.105 334.864 142.84 334.864 142.84C334.123 142.545 333.555 141.169 333.594 139.792C333.594 139.792 332.097 138.99 332.175 136.766C331.397 136.151 330.839 135.272 330.593 134.273C330.131 132.132 335.116 129.976 335.751 129.575C336.975 128.819 335.311 128.928 334.445 127.835C332.029 124.787 333.601 123.296 333.601 123.296C333.601 123.296 336.226 125.188 338.649 125.691C341.072 126.194 344.216 127.166 345.018 127.68C347.049 129.067 348.921 130.7 350.598 132.548C360.376 139.735 385.855 155.353 385.855 155.353C386.87 101.763 396.722 99.7959 403.044 98.0144C403.069 98.0258 418.806 185.064 395.2 183.441Z" fill="#FFCEB4" stroke="#222222" stroke-linecap="round" stroke-linejoin="round"/>
<path d="M325.444 133.116L338.216 154.347C338.521 154.854 338.729 155.42 338.829 156.013C338.928 156.605 338.917 157.213 338.796 157.801C338.675 158.389 338.447 158.946 338.124 159.44C337.801 159.934 337.39 160.355 336.914 160.679L324.274 169.311C323.313 169.966 322.148 170.188 321.035 169.928C319.921 169.667 318.95 168.946 318.335 167.923L307.848 150.467L303.945 147.819C304.705 148.575 311.165 145.22 316.518 141.563C321.872 137.905 325.799 134.191 325.459 133.128L325.444 133.116Z" stroke="#222222" stroke-linecap="round" stroke-linejoin="round"/>
<path d="M325.407 133.048C325.424 133.07 325.436 133.096 325.442 133.123C325.797 134.186 321.859 137.9 316.502 141.558C311.145 145.216 304.688 148.59 303.929 147.814C303.909 147.796 303.891 147.774 303.876 147.75C303.305 146.797 308.942 141.861 314.434 138.112C319.926 134.364 324.832 132.094 325.407 133.048Z" stroke="#222222" stroke-linecap="round" stroke-linejoin="round"/>
<path d="M328.713 130.887C331.036 129.299 335.255 130.887 335.751 133.777L338.199 154.346L327.535 136.607C326.985 135.68 326.8 134.56 327.021 133.489C327.241 132.418 327.849 131.483 328.713 130.887Z" stroke="#222222" stroke-linecap="round" stroke-linejoin="round"/>
<path d="M342.484 140.59C343.031 142.795 341.115 143.948 336.389 145.586C336.389 145.586 336.205 145.722 334.261 141.013C331.423 134.08 331.745 132.915 331.745 132.915C334.342 131.898 336.922 131.247 337.851 130.952C339.792 130.335 342.133 139.164 342.484 140.59Z" fill="#FFCEB4"/>
<path d="M340.327 140.597C340.327 140.597 341.937 139.463 342.484 140.597C343.452 142.629 340.898 143.869 336.176 145.515" fill="#FFCEB4"/>
<path d="M340.327 140.597C340.327 140.597 341.937 139.463 342.484 140.597C343.452 142.629 340.898 143.869 336.176 145.515" stroke="#222222" stroke-linecap="round" stroke-linejoin="round"/>
<path d="M334.926 142.569C340.247 140.942 341.666 139.864 341.666 139.864C342.415 139.55 341.847 136.195 340.322 136.838" fill="#FFCEB4"/>
<path d="M334.926 142.569C340.247 140.942 341.666 139.864 341.666 139.864C342.415 139.55 341.847 136.195 340.322 136.838" stroke="#222222" stroke-linecap="round" stroke-linejoin="round"/>
<path d="M333.566 139.387C339.165 137.564 340.307 136.841 340.307 136.841C341.119 136.573 340.662 133.252 338.693 133.925" fill="#FFCEB4"/>
<path d="M333.566 139.387C339.165 137.564 340.307 136.841 340.307 136.841C341.119 136.573 340.662 133.252 338.693 133.925" stroke="#222222" stroke-linecap="round" stroke-linejoin="round"/>
<path d="M331.75 132.916C332.062 133.816 336.923 131.24 337.856 130.953C339.168 130.544 340.371 133.309 338.714 133.926C336.639 134.969 334.476 135.8 332.254 136.407" fill="#FFCEB4"/>
<path d="M331.75 132.916C332.062 133.816 336.923 131.24 337.856 130.953C339.168 130.544 340.371 133.309 338.714 133.926C336.639 134.969 334.476 135.8 332.254 136.407" stroke="#222222" stroke-linecap="round" stroke-linejoin="round"/>
<path d="M494.853 440.111C494.853 440.111 483.387 392.963 486.551 346.174C489.347 304.892 496.879 273.191 482.095 228.634L481.996 228.679C472.169 199.263 457.35 183.24 457.35 183.24C452.334 163.027 470.04 123.98 469.991 108.124C469.959 97.5335 452.334 91.179 452.334 91.179L406.185 96.8905L403.07 98.0252C403.07 98.0252 395.797 118.239 392.186 127.309C385.64 143.751 399.302 154.891 401.161 156.078C403.02 157.266 406.185 183.248 406.185 183.248C390.575 230.453 384.604 272.136 384.604 272.136C375.714 325.351 381.816 441.666 381.816 441.666C381.816 441.666 395.652 446.269 437.348 446.012C479.044 445.754 494.853 440.111 494.853 440.111Z" fill="white"/>
<mask id="mask0_3111_48984" style="mask-type:luminance" maskUnits="userSpaceOnUse" x="379" y="91" width="116" height="356">
<path d="M494.853 440.111C494.853 440.111 483.387 392.963 486.551 346.174C489.347 304.892 496.879 273.191 482.095 228.634L481.996 228.679C472.169 199.263 457.35 183.24 457.35 183.24C452.334 163.027 470.04 123.98 469.991 108.124C469.959 97.5335 452.334 91.179 452.334 91.179L406.185 96.8905L403.07 98.0252C403.07 98.0252 395.797 118.239 392.186 127.309C385.64 143.751 399.302 154.891 401.161 156.078C403.02 157.266 406.185 183.248 406.185 183.248C390.575 230.453 384.604 272.136 384.604 272.136C375.714 325.351 381.816 441.666 381.816 441.666C381.816 441.666 395.652 446.269 437.348 446.012C479.044 445.754 494.853 440.111 494.853 440.111Z" fill="white"/>
</mask>
<g mask="url(#mask0_3111_48984)">
<path d="M387.582 114.963H482.082" stroke="#222222" stroke-linecap="round" stroke-linejoin="round"/>
<path d="M387.582 134.003H482.082" stroke="#222222" stroke-linecap="round" stroke-linejoin="round"/>
<path d="M387.582 153.045H482.082" stroke="#222222" stroke-linecap="round" stroke-linejoin="round"/>
<path d="M387.582 172.087H482.082" stroke="#222222" stroke-linecap="round" stroke-linejoin="round"/>
<path d="M387.582 191.127H482.082" stroke="#222222" stroke-linecap="round" stroke-linejoin="round"/>
<path d="M387.582 210.169H482.082" stroke="#222222" stroke-linecap="round" stroke-linejoin="round"/>
<path d="M387.582 229.208H482.082" stroke="#222222" stroke-linecap="round" stroke-linejoin="round"/>
<path d="M387.582 248.25H492.346" stroke="#222222" stroke-linecap="round" stroke-linejoin="round"/>
<path d="M378.91 267.29H492.348" stroke="#222222" stroke-linecap="round" stroke-linejoin="round"/>
<path d="M374.277 286.332H514.348" stroke="#222222" stroke-linecap="round" stroke-linejoin="round"/>
<path d="M374.277 305.371H514.348" stroke="#222222" stroke-linecap="round" stroke-linejoin="round"/>
<path d="M374.277 324.413H514.348" stroke="#222222" stroke-linecap="round" stroke-linejoin="round"/>
<path d="M374.277 343.453H514.348" stroke="#222222" stroke-linecap="round" stroke-linejoin="round"/>
<path d="M374.277 362.495H514.348" stroke="#222222" stroke-linecap="round" stroke-linejoin="round"/>
<path d="M374.277 381.54H514.348" stroke="#222222" stroke-linecap="round" stroke-linejoin="round"/>
<path d="M374.277 400.581H514.348" stroke="#222222" stroke-linecap="round" stroke-linejoin="round"/>
<path d="M409.062 91.179V453.161" stroke="#222222" stroke-linecap="round" stroke-linejoin="round"/>
<path d="M425.195 91.179V453.161" stroke="#222222" stroke-linecap="round" stroke-linejoin="round"/>
<path d="M441.324 91.179V453.161" stroke="#222222" stroke-linecap="round" stroke-linejoin="round"/>
<path d="M457.453 91.179V453.161" stroke="#222222" stroke-linecap="round" stroke-linejoin="round"/>
<path d="M473.586 91.179V453.161" stroke="#222222" stroke-linecap="round" stroke-linejoin="round"/>
<path d="M392.93 91.179V453.161" stroke="#222222" stroke-linecap="round" stroke-linejoin="round"/>
</g>
<path d="M494.853 440.111C494.853 440.111 483.387 392.963 486.551 346.174C489.347 304.892 496.879 273.191 482.095 228.634L481.996 228.679C472.169 199.263 457.35 183.24 457.35 183.24C452.334 163.027 470.04 123.98 469.991 108.124C469.959 97.5335 452.334 91.179 452.334 91.179L406.185 96.8905L403.07 98.0252C403.07 98.0252 395.797 118.239 392.186 127.309C385.64 143.751 399.303 154.891 401.161 156.078C403.02 157.266 406.185 183.248 406.185 183.248C390.575 230.453 384.604 272.136 384.604 272.136C375.714 325.351 381.816 441.666 381.816 441.666C381.816 441.666 395.652 446.269 437.348 446.012C479.044 445.754 494.853 440.111 494.853 440.111Z" stroke="#222222" stroke-linecap="round" stroke-linejoin="round"/>
<path d="M424.159 264.83C408.904 264.83 400.808 261.456 396.672 257.181C401.018 259.746 408.188 261.592 419.817 261.845C454.23 262.602 457.799 205.108 458.1 188.261C458.803 201.197 460.399 264.83 424.159 264.83Z" fill="#222222"/>
<path d="M458.108 183.67C458.108 183.67 460.145 262.723 419.814 261.846C382.918 261.044 390.883 244.216 391.606 239.264C394.214 221.396 406.94 183.662 406.94 183.662C406.94 183.662 421.549 189.23 458.108 183.67Z" fill="#EFAF00" stroke="#222222" stroke-linecap="round" stroke-linejoin="round"/>
<path d="M489.233 169.276C486.48 190.405 442.328 235.284 441.197 236.43L441.236 236.551C441.236 236.551 437.823 243.738 434.428 243.738C431.033 243.738 427.864 241.782 426.076 243.802C424.288 245.822 422.444 249.097 421.081 249.396C419.438 249.77 417.725 249.531 416.228 248.719C416.228 248.719 417.395 245.693 418.601 242.769C417.516 243.847 416.043 246.23 415.22 247.172C413.979 248.587 412.879 247.301 412.879 247.301C412.879 247.301 415.263 242.455 416.178 241.173C417.094 239.891 419.868 237.939 421.379 237.33C423.057 236.369 431.973 231.278 437.447 229.716C444.262 215.044 460.73 180.669 470.142 170.018C470.142 170.018 454.433 127.945 453.688 116.053C452.943 104.161 456.672 93.9938 462.703 96.8912C477.099 103.764 490.286 161.193 489.233 169.276Z" fill="#FFCEB4" stroke="#222222" stroke-linecap="round" stroke-linejoin="round"/>
<path d="M418.172 248.727C418.172 248.727 421.315 241.106 422.429 240.311C424.363 238.912 426.882 237.066 426.882 237.066" stroke="#222222" stroke-linecap="round" stroke-linejoin="round"/>
<path d="M420.086 249.047C420.086 249.047 423.116 242.526 424.212 241.732L428.664 238.486" stroke="#222222" stroke-linecap="round" stroke-linejoin="round"/>
<path d="M397.82 36.223C397.82 36.223 383.597 32.414 379.276 43.3907C374.955 54.3674 386.538 56.792 386.109 62.6813C385.853 66.1498 387.467 75.7421 396.83 68.4874C405.823 61.5163 441.176 94.3896 452.334 91.1821C463.491 87.9746 471.846 69.2438 463.069 62.3938C454.292 55.5438 448.985 65.0718 446.04 62.0988C443.095 59.1258 444.522 54.0194 437.394 52.7296C430.93 51.5608 428.057 57.9343 428.057 57.9343C428.057 57.9343 432.179 36.8887 421.671 30.6476C411.163 24.4065 401.79 27.8145 397.82 36.223Z" fill="#222222"/>
<path d="M463.289 59.6963C454.161 53.391 450.071 62.31 446.991 59.5186C443.912 56.7271 444.348 51.9915 437.164 51.1328C430.654 50.3499 427.695 58.0812 427.695 58.0812" stroke="#222222" stroke-linecap="round" stroke-linejoin="round"/>
<path d="M424.259 59.7651C424.259 59.7651 430.397 87.309 452.332 91.1596C452.332 91.1596 420.115 109.315 406.184 96.8559C406.184 96.8559 416.639 90.8948 410.689 73.9304L424.259 59.7651Z" fill="#FFCEB4" stroke="#222222" stroke-linecap="round" stroke-linejoin="round"/>
<path d="M423.588 60.6318C424.297 63.3514 425.411 85.8306 411.525 89.7908C412.803 86.1786 413.172 81.0231 410.695 73.9499L423.588 60.6318Z" fill="#222222"/>
<path d="M425.099 50.8422C427.76 51.6782 426.262 60.8015 423.949 62.1329C424.659 64.8789 420.802 78.7303 408.048 82.7587C404.416 83.8934 396.898 72.6481 395.426 68.9224C393.272 63.4984 391.307 58.4904 390.941 56.4705C390.352 53.2063 390.207 45.8986 398.956 44.3667C406.622 43.0277 409.102 59.7575 421.505 53.9287C421.512 53.9363 422.417 49.9874 425.099 50.8422Z" fill="#FFCEB4" stroke="#222222" stroke-linecap="round" stroke-linejoin="round"/>
<path d="M399.148 60.6323V67.5845L402.058 68.9235" stroke="#222222" stroke-linecap="round" stroke-linejoin="round"/>
<path d="M403.664 73.3295C403.664 73.3295 407.144 74.1124 408.691 69.8496" stroke="#222222" stroke-linecap="round" stroke-linejoin="round"/>
<path d="M404.635 60.5284C405.185 60.2392 405.34 59.376 404.981 58.6004C404.623 57.8247 403.886 57.4303 403.336 57.7195C402.786 58.0087 402.631 58.872 402.989 59.6476C403.348 60.4233 404.085 60.8176 404.635 60.5284Z" fill="#222222"/>
<path d="M396.275 64.8992C396.855 64.6866 397.111 63.8513 396.847 63.0334C396.584 62.2156 395.9 61.7249 395.32 61.9374C394.74 62.15 394.483 62.9853 394.747 63.8032C395.011 64.621 395.695 65.1117 396.275 64.8992Z" fill="#222222"/>
<path d="M392.582 58.187C392.778 57.7048 393.122 57.3085 393.559 57.0642C393.995 56.8199 394.497 56.7423 394.98 56.8443" stroke="#222222" stroke-linecap="round" stroke-linejoin="round"/>
<path d="M422.521 60.6273C425.372 60.6273 427.683 58.1633 427.683 55.1238C427.683 52.0843 425.372 49.6204 422.521 49.6204C419.67 49.6204 417.359 52.0843 417.359 55.1238C417.359 58.1633 419.67 60.6273 422.521 60.6273Z" fill="#FFCEB4"/>
<path d="M420.562 58.483C420.562 58.483 419.962 56.3157 420.516 54.3601C420.701 53.6473 421.068 53.0031 421.576 52.4991C422.084 51.995 422.713 51.6507 423.393 51.5044" stroke="#222222" stroke-linecap="round" stroke-linejoin="round"/>
<path d="M423.393 55.7858L420.516 54.3599" stroke="#222222" stroke-linecap="round" stroke-linejoin="round"/>
<path d="M426.359 63.8573C427.685 63.8573 428.761 62.7108 428.761 61.2966C428.761 59.8823 427.685 58.7358 426.359 58.7358C425.032 58.7358 423.957 59.8823 423.957 61.2966C423.957 62.7108 425.032 63.8573 426.359 63.8573Z" fill="white" stroke="#222222" stroke-linecap="round" stroke-linejoin="round"/>
<path d="M400.621 54.4537C400.621 54.4537 401.292 51.9384 404.279 52.7327" stroke="#222222" stroke-linecap="round" stroke-linejoin="round"/>
<path d="M568.55 280.696H2.80469V535.109H568.55V280.696Z" fill="white"/>
<path d="M539.924 430.982L519.695 312.863L536.384 310.08L551.944 430.982" fill="white"/>
<path d="M539.924 430.982L519.695 312.863L536.384 310.08L551.944 430.982" stroke="#222222" stroke-linecap="round" stroke-linejoin="round"/>
<path d="M519.695 312.863L536.384 310.08L538.023 323.84L520.877 320.33L519.695 312.863Z" fill="#222222"/>
<path d="M31.7852 430.982L52.0143 312.864L35.3259 310.08L19.7656 430.982" fill="white"/>
<path d="M31.7852 430.982L52.0143 312.864L35.3259 310.08L19.7656 430.982" stroke="#222222" stroke-linecap="round" stroke-linejoin="round"/>
<path d="M35.3243 310.08L52.0127 312.864L49.6144 328.009L34.6289 315.897L35.3243 310.08Z" fill="#222222"/>
<path d="M285.677 310.818C441.904 310.818 568.55 300.872 568.55 288.604C568.55 276.335 441.904 266.389 285.677 266.389C129.451 266.389 2.80469 276.335 2.80469 288.604C2.80469 300.872 129.451 310.818 285.677 310.818Z" fill="white" stroke="#222222" stroke-linecap="round" stroke-linejoin="round"/>
<path d="M568.548 288.605V300.387C568.548 312.654 441.895 322.598 285.675 322.598C149.039 322.598 35.0296 314.991 8.59916 304.877C4.80666 303.428 2.81641 301.927 2.81641 300.387V288.605C2.81641 290.148 4.80666 291.631 8.59916 293.098C9.83376 293.567 11.2599 294.036 12.8564 294.498C45.7259 303.905 155.421 310.819 285.675 310.819C415.929 310.819 525.628 303.905 558.493 294.498C565.046 292.622 568.548 290.647 568.548 288.605Z" fill="white" stroke="#222222" stroke-linecap="round" stroke-linejoin="round"/>
<path d="M399.218 308.888C391.019 364.997 301.28 398.316 235.505 391.724C154.799 383.599 111.481 342.098 93.512 319.399C91.942 317.422 90.9375 315.006 90.618 312.438C90.2985 309.869 90.6774 307.258 91.7098 304.912C142.151 308.578 209.625 310.817 283.758 310.817C324.886 310.817 363.961 310.128 399.218 308.888Z" fill="white" stroke="#222222" stroke-linecap="round" stroke-linejoin="round"/>
<path d="M483.199 272.369L482.259 272.778L399.242 308.817V308.889C363.985 310.129 324.911 310.818 283.782 310.818C209.635 310.818 142.176 308.579 91.7344 304.913C93.093 301.771 95.535 299.307 98.5531 298.033L167.932 268.401C167.932 268.401 169.706 268.311 173.037 268.159C201.355 266.877 342.791 261.4 483.199 272.369Z" fill="white" stroke="#222222" stroke-linecap="round" stroke-linejoin="round"/>
<path d="M111.305 297.926H105.739C104.9 297.922 104.088 297.608 103.441 297.037C102.794 296.467 102.353 295.676 102.191 294.798L99.9492 282.607H117.095L114.867 294.783C114.709 295.666 114.267 296.464 113.617 297.037C112.967 297.611 112.149 297.925 111.305 297.926Z" fill="white" stroke="#222222" stroke-linecap="round" stroke-linejoin="round"/>
<path d="M118.441 281.851C118.441 284.163 113.989 284.499 108.508 284.499C103.027 284.499 98.5742 284.499 98.5742 281.851C98.5742 278.825 103.027 278.148 108.508 278.148C113.989 278.148 118.441 279.204 118.441 281.851Z" fill="white" stroke="#222222" stroke-linecap="round" stroke-linejoin="round"/>
<path d="M114.954 277.142C114.954 279.454 112.042 280.694 108.448 280.694C104.854 280.694 101.941 279.798 101.941 277.142C101.941 275.41 103.584 274.196 105.922 273.697C106.071 273.655 108.441 272.959 108.441 271.427C108.441 269.736 106.475 269.275 106.475 269.275C106.475 269.275 111.556 267.921 110.97 273.712C113.315 274.287 114.954 275.561 114.954 277.142Z" fill="white" stroke="#222222" stroke-linecap="round" stroke-linejoin="round"/>
<path d="M106.157 276.599C106.647 277.079 106.845 277.7 106.604 277.983C106.363 278.267 105.763 278.101 105.274 277.605C104.784 277.11 104.564 276.504 104.827 276.221C105.089 275.937 105.65 276.115 106.157 276.599Z" fill="white" stroke="#FF5A00" stroke-linecap="round" stroke-linejoin="round"/>
<path d="M107.78 281.571C108.419 281.779 108.845 282.244 108.745 282.611C108.646 282.978 108.036 283.107 107.397 282.895C106.759 282.683 106.333 282.222 106.432 281.855C106.532 281.488 107.142 281.363 107.78 281.571Z" fill="white" stroke="#FF5A00" stroke-linecap="round" stroke-linejoin="round"/>
<path d="M110.54 278.265C109.973 278.643 109.362 278.689 109.171 278.364C108.979 278.038 109.281 277.471 109.848 277.093C110.416 276.714 111.026 276.669 111.218 276.994C111.409 277.32 111.104 277.887 110.54 278.265Z" fill="white" stroke="#FF5A00" stroke-linecap="round" stroke-linejoin="round"/>
<path d="M108.572 275.523C108.008 275.901 107.44 276.026 107.309 275.799C107.178 275.572 107.525 275.084 108.089 274.702C108.654 274.32 109.221 274.203 109.356 274.43C109.491 274.657 109.14 275.145 108.572 275.523Z" fill="white" stroke="#FF5A00" stroke-linecap="round" stroke-linejoin="round"/>
<path d="M113.755 281.096C113.188 281.474 112.62 281.599 112.489 281.372C112.357 281.145 112.705 280.653 113.269 280.275C113.833 279.897 114.401 279.776 114.536 279.999C114.67 280.222 114.319 280.718 113.755 281.096Z" fill="white" stroke="#FF5A00" stroke-linecap="round" stroke-linejoin="round"/>
<path d="M104.008 281.48C104.059 281.218 103.57 280.889 102.915 280.745C102.261 280.601 101.69 280.696 101.639 280.958C101.588 281.22 102.077 281.549 102.732 281.693C103.386 281.837 103.957 281.742 104.008 281.48Z" fill="white" stroke="#FF5A00" stroke-linecap="round" stroke-linejoin="round"/>
<path d="M64.9145 287.557H59.82C59.013 287.557 58.2312 287.258 57.6085 286.71C56.9858 286.163 56.5611 285.402 56.4071 284.557L54.3281 273.21H70.4099L68.3309 284.557C68.1768 285.403 67.7516 286.164 67.1281 286.712C66.5047 287.259 65.7221 287.558 64.9145 287.557Z" fill="white" stroke="#222222" stroke-linecap="round" stroke-linejoin="round"/>
<path d="M70.7763 272.993C70.7763 275.16 67.5195 276.322 62.3683 276.322C57.217 276.322 53.5664 275.482 53.5664 272.993C53.5664 270.145 57.217 269.245 62.3683 269.245C67.5195 269.245 70.7763 270.504 70.7763 272.993Z" fill="white" stroke="#222222" stroke-linecap="round" stroke-linejoin="round"/>
<path d="M61.3853 272.312C59.3524 272.339 57.0003 272.362 56.0815 270.016C54.9959 267.251 58.2917 264.369 61.8358 265.856C62.8257 266.272 63.5494 266.427 64.0745 265.568C64.6421 264.638 63.6274 263.25 62.1729 263.745C62.1729 263.745 64.3618 262.701 65.976 264.206C68.3601 266.427 68.8355 272.218 61.3853 272.312Z" fill="white" stroke="#222222" stroke-linecap="round" stroke-linejoin="round"/>
<path d="M60.7776 271.098C60.1639 270.962 59.7133 270.655 59.7524 270.409C59.7914 270.163 60.3377 270.073 60.9479 270.209C61.5581 270.345 62.0122 270.651 61.9732 270.897C61.9342 271.143 61.3914 271.234 60.7776 271.098Z" fill="white" stroke="#FF5A00" stroke-linecap="round" stroke-linejoin="round"/>
<path d="M58.9721 268.829C58.6599 269.408 58.2412 269.775 58.039 269.65C57.8368 269.525 57.922 268.954 58.2377 268.375C58.5534 267.797 58.9685 267.43 59.1707 267.555C59.373 267.679 59.2949 268.235 58.9721 268.829Z" fill="white" stroke="#FF5A00" stroke-linecap="round" stroke-linejoin="round"/>
<path d="M66.6935 272.547C66.3777 273.126 65.9591 273.493 65.7569 273.368C65.5547 273.243 65.6434 272.672 65.9555 272.093C66.2677 271.514 66.6864 271.148 66.8921 271.272C67.0979 271.397 67.0057 271.968 66.6935 272.547Z" fill="white" stroke="#FF5A00" stroke-linecap="round" stroke-linejoin="round"/>
<path d="M62.0735 268.635C61.5413 268.99 61.0092 269.104 60.885 268.892C60.7608 268.68 61.1014 268.234 61.6194 267.856C62.1373 267.477 62.6837 267.383 62.8078 267.595C62.932 267.806 62.6021 268.279 62.0735 268.635Z" fill="white" stroke="#FF5A00" stroke-linecap="round" stroke-linejoin="round"/>
<path d="M63.0578 273.909C62.5292 274.264 61.9935 274.381 61.8729 274.17C61.7523 273.958 62.0751 273.496 62.6037 273.141C63.1323 272.785 63.668 272.668 63.7922 272.884C63.9164 273.099 63.5829 273.561 63.0578 273.909Z" fill="white" stroke="#FF5A00" stroke-linecap="round" stroke-linejoin="round"/>
<path d="M63.9378 269.966C63.324 269.834 62.8735 269.523 62.9125 269.278C62.9515 269.032 63.4979 268.941 64.1081 269.077C64.7183 269.213 65.1724 269.523 65.1334 269.765C65.0944 270.008 64.5516 270.102 63.9378 269.966Z" fill="white" stroke="#FF5A00" stroke-linecap="round" stroke-linejoin="round"/>
<path d="M57.4112 273.368C56.7975 273.232 56.3469 272.926 56.3895 272.68C56.4321 272.434 56.9713 272.343 57.5851 272.479C58.1988 272.616 58.6494 272.922 58.6104 273.168C58.5713 273.414 58.025 273.504 57.4112 273.368Z" fill="white" stroke="#FF5A00" stroke-linecap="round" stroke-linejoin="round"/>
<path d="M87.0993 287.556H81.6359C80.881 287.555 80.15 287.275 79.5676 286.763C78.9852 286.251 78.5876 285.539 78.4429 284.749L76.332 273.205H92.4102L90.2993 284.749C90.1544 285.54 89.7558 286.253 89.172 286.765C88.5881 287.277 87.8553 287.557 87.0993 287.556Z" fill="white" stroke="#222222" stroke-linecap="round" stroke-linejoin="round"/>
<path d="M93.6929 272.992C93.6929 275.16 89.5172 276.321 84.366 276.321C79.2147 276.321 75.0391 275.481 75.0391 272.992C75.0391 270.144 79.2147 269.524 84.366 269.524C89.5172 269.524 93.6929 270.504 93.6929 272.992Z" fill="white" stroke="#222222" stroke-linecap="round" stroke-linejoin="round"/>
<path d="M84.1361 272.864C82.3906 272.933 78.5875 272.864 78.1263 270.364C77.6012 267.493 81.1631 266.037 83.6146 266.665C84.647 266.926 87.0913 267.24 87.329 266.158C87.5348 265.235 87.1552 264.622 86.1476 264.778C86.1476 264.778 87.698 262.41 89.6954 264.456C92.3207 267.126 92.2532 272.543 84.1361 272.864Z" fill="white" stroke="#222222" stroke-linecap="round" stroke-linejoin="round"/>
<path d="M84.7833 268.095C85.2409 268.549 85.429 269.131 85.2019 269.396C84.9749 269.661 84.4143 269.506 83.9531 269.052C83.4919 268.598 83.3074 268.019 83.5345 267.754C83.7615 267.49 84.3221 267.645 84.7833 268.095Z" fill="white" stroke="#FF5A00" stroke-linecap="round" stroke-linejoin="round"/>
<path d="M83.3433 270.577C83.9429 270.774 84.3473 271.209 84.2515 271.553C84.1558 271.897 83.5846 272.018 82.9886 271.822C82.3925 271.625 81.9846 271.19 82.0804 270.846C82.1761 270.502 82.7402 270.381 83.3433 270.577Z" fill="white" stroke="#FF5A00" stroke-linecap="round" stroke-linejoin="round"/>
<path d="M81.7773 269.626C81.2452 269.981 80.713 270.099 80.5888 269.887C80.4647 269.675 80.7911 269.213 81.3232 268.858C81.8554 268.502 82.3875 268.389 82.5082 268.601C82.6288 268.812 82.3059 269.27 81.7773 269.626Z" fill="white" stroke="#FF5A00" stroke-linecap="round" stroke-linejoin="round"/>
<path d="M85.3676 274.287C84.7574 274.446 84.2217 274.374 84.165 274.132C84.1082 273.89 84.5588 273.565 85.169 273.406C85.7792 273.247 86.3149 273.319 86.3681 273.565C86.4213 273.811 85.9779 274.121 85.3676 274.287Z" fill="white" stroke="#FF5A00" stroke-linecap="round" stroke-linejoin="round"/>
<path d="M87.1797 271.037C86.6475 271.393 86.1154 271.51 85.9912 271.294C85.867 271.079 86.1934 270.625 86.7256 270.269C87.2577 269.914 87.7899 269.797 87.9105 270.008C88.0311 270.22 87.7083 270.682 87.1797 271.037Z" fill="white" stroke="#FF5A00" stroke-linecap="round" stroke-linejoin="round"/>
<path d="M87.8558 268.696C87.242 268.56 86.7915 268.254 86.8305 268.008C86.8695 267.762 87.4123 267.671 88.0261 267.808C88.6398 267.944 89.0904 268.25 89.0513 268.496C89.0123 268.742 88.4695 268.833 87.8558 268.696Z" fill="white" stroke="#FF5A00" stroke-linecap="round" stroke-linejoin="round"/>
<path d="M79.3859 273.61C78.8219 273.319 78.4494 272.899 78.5522 272.676C78.6551 272.453 79.1944 272.502 79.7585 272.797C80.3225 273.092 80.695 273.508 80.5922 273.731C80.4893 273.955 79.9465 273.909 79.3859 273.61Z" fill="white" stroke="#FF5A00" stroke-linecap="round" stroke-linejoin="round"/>
<path d="M88.9522 273.394C88.3917 273.103 88.0156 272.683 88.1185 272.456C88.2214 272.229 88.7642 272.286 89.3247 272.577C89.8853 272.868 90.2613 273.292 90.1585 273.515C90.0556 273.738 89.5163 273.685 88.9522 273.394Z" fill="white" stroke="#FF5A00" stroke-linecap="round" stroke-linejoin="round"/>
<path d="M222.404 277.782C222.458 277.81 222.504 277.855 222.535 277.911C222.565 277.967 222.579 278.032 222.574 278.096C222.57 278.161 222.547 278.223 222.509 278.273C222.471 278.324 222.419 278.361 222.361 278.38C212.314 281.443 200.011 283.244 186.753 283.244C173.495 283.244 161.096 281.428 151.027 278.327C150.972 278.31 150.922 278.276 150.884 278.23C150.845 278.183 150.821 278.126 150.812 278.065C150.803 278.004 150.811 277.942 150.835 277.886C150.859 277.829 150.897 277.782 150.946 277.748C154.192 275.429 174.148 274.722 186.753 274.722C199.106 274.745 218.739 275.985 222.404 277.782Z" fill="white" stroke="#222222" stroke-linecap="round" stroke-linejoin="round"/>
<path d="M194.559 275.606C194.559 275.606 199.813 274.717 198.461 269.305L194.559 275.606Z" fill="white"/>
<path d="M194.559 275.606C194.559 275.606 199.813 274.717 198.461 269.305" stroke="#222222" stroke-linecap="round" stroke-linejoin="round"/>
<path d="M195.495 279.779C196.605 278.608 196.615 276.7 195.517 275.516C194.419 274.332 192.629 274.321 191.518 275.492C190.408 276.663 190.398 278.571 191.496 279.755C192.594 280.939 194.384 280.95 195.495 279.779Z" fill="#FF5A00" stroke="#222222" stroke-linecap="round" stroke-linejoin="round"/>
<path d="M201.457 275.636C201.457 275.636 198.814 274.327 198.672 271.68L201.457 275.636Z" fill="white"/>
<path d="M201.457 275.636C201.457 275.636 198.814 274.327 198.672 271.68" stroke="#222222" stroke-linecap="round" stroke-linejoin="round"/>
<path d="M203.675 279.211C204.585 278.24 204.585 276.667 203.675 275.696C202.765 274.726 201.289 274.726 200.379 275.696C199.468 276.667 199.468 278.24 200.379 279.211C201.289 280.181 202.765 280.181 203.675 279.211Z" fill="#FF5A00" stroke="#222222" stroke-linecap="round" stroke-linejoin="round"/>
<path d="M171.961 284.256C171.961 284.256 177.215 283.367 175.863 277.954L171.961 284.256Z" fill="white"/>
<path d="M171.961 284.256C171.961 284.256 177.215 283.367 175.863 277.954" stroke="#222222" stroke-linecap="round" stroke-linejoin="round"/>
<path d="M172.114 288.991C173.53 288.29 174.145 286.498 173.488 284.987C172.83 283.477 171.149 282.821 169.733 283.522C168.316 284.223 167.701 286.016 168.358 287.526C169.016 289.036 170.697 289.692 172.114 288.991Z" fill="white" stroke="#222222" stroke-linecap="round" stroke-linejoin="round"/>
<path d="M178.855 284.274C178.855 284.274 176.212 282.962 176.07 280.314L178.855 284.274Z" fill="white"/>
<path d="M178.855 284.274C178.855 284.274 176.212 282.962 176.07 280.314" stroke="#222222" stroke-linecap="round" stroke-linejoin="round"/>
<path d="M180.193 288.457C181.405 287.993 182.033 286.569 181.597 285.278C181.162 283.986 179.826 283.316 178.615 283.781C177.404 284.245 176.775 285.669 177.211 286.96C177.647 288.252 178.982 288.922 180.193 288.457Z" fill="white" stroke="#222222" stroke-linecap="round" stroke-linejoin="round"/>
<path d="M189.352 283.376C189.352 283.376 194.531 285.014 196.749 279.938L189.352 283.376Z" fill="white"/>
<path d="M189.352 283.376C189.352 283.376 194.531 285.014 196.749 279.938" stroke="#222222" stroke-linecap="round" stroke-linejoin="round"/>
<path d="M189.635 285.282C190.635 284.003 190.472 282.102 189.272 281.037C188.072 279.971 186.289 280.144 185.29 281.424C184.291 282.703 184.453 284.604 185.653 285.67C186.853 286.735 188.636 286.562 189.635 285.282Z" fill="#FF5A00" stroke="#222222" stroke-linecap="round" stroke-linejoin="round"/>
<path d="M197.473 287.675C197.473 287.675 202.652 289.317 204.87 284.241L197.473 287.675Z" fill="white"/>
<path d="M197.473 287.675C197.473 287.675 202.652 289.317 204.87 284.241" stroke="#222222" stroke-linecap="round" stroke-linejoin="round"/>
<path d="M198.427 287.777C198.508 286.114 197.31 284.696 195.751 284.609C194.191 284.523 192.861 285.8 192.78 287.463C192.699 289.126 193.897 290.544 195.457 290.63C197.016 290.717 198.346 289.439 198.427 287.777Z" fill="white" stroke="#222222" stroke-linecap="round" stroke-linejoin="round"/>
<path d="M211.98 288.342C212.511 286.777 211.752 285.05 210.284 284.483C208.816 283.917 207.195 284.727 206.664 286.292C206.134 287.857 206.893 289.585 208.361 290.151C209.829 290.717 211.449 289.907 211.98 288.342Z" fill="white" stroke="#222222" stroke-linecap="round" stroke-linejoin="round"/>
<path d="M199.248 280.523C199.248 280.523 196.907 278.669 197.268 276.048L199.248 280.523Z" fill="white"/>
<path d="M199.248 280.523C199.248 280.523 196.907 278.669 197.268 276.048" stroke="#222222" stroke-linecap="round" stroke-linejoin="round"/>
<path d="M199.767 284.878C201.044 284.704 201.946 283.459 201.783 282.098C201.62 280.736 200.452 279.774 199.175 279.948C197.898 280.122 196.996 281.367 197.159 282.728C197.322 284.09 198.49 285.052 199.767 284.878Z" fill="#FF5A00" stroke="#222222" stroke-linecap="round" stroke-linejoin="round"/>
<path d="M212.881 280.144C212.881 280.144 209.997 279.686 209.156 277.194L212.881 280.144Z" fill="white"/>
<path d="M212.881 280.144C212.881 280.144 209.997 279.686 209.156 277.194" stroke="#222222" stroke-linecap="round" stroke-linejoin="round"/>
<path d="M213.913 284.184C215.2 284.184 216.244 283.072 216.244 281.699C216.244 280.327 215.2 279.214 213.913 279.214C212.626 279.214 211.582 280.327 211.582 281.699C211.582 283.072 212.626 284.184 213.913 284.184Z" fill="#FF5A00" stroke="#222222" stroke-linecap="round" stroke-linejoin="round"/>
<path d="M166.911 278.666C166.911 278.666 164.303 276.775 164.584 273.931L166.911 278.666Z" fill="white"/>
<path d="M166.911 278.666C166.911 278.666 164.303 276.775 164.584 273.931" stroke="#222222" stroke-linecap="round" stroke-linejoin="round"/>
<path d="M168.684 282.878C169.821 282.023 170.093 280.348 169.291 279.136C168.49 277.923 166.918 277.633 165.781 278.488C164.644 279.342 164.372 281.018 165.174 282.23C165.975 283.442 167.547 283.732 168.684 282.878Z" fill="#FF5A00" stroke="#222222" stroke-linecap="round" stroke-linejoin="round"/>
<path d="M207.166 281.571C207.307 280.54 206.637 279.581 205.67 279.431C204.702 279.28 203.803 279.994 203.662 281.025C203.521 282.057 204.191 283.015 205.158 283.166C206.125 283.317 207.024 282.602 207.166 281.571Z" fill="#FF5A00" stroke="#222222" stroke-linecap="round" stroke-linejoin="round"/>
<path d="M172.68 281.821C173.658 281.821 174.451 280.976 174.451 279.934C174.451 278.891 173.658 278.046 172.68 278.046C171.703 278.046 170.91 278.891 170.91 279.934C170.91 280.976 171.703 281.821 172.68 281.821Z" fill="#FF5A00" stroke="#222222" stroke-linecap="round" stroke-linejoin="round"/>
<path d="M161.142 282.372C161.84 281.147 161.474 279.551 160.325 278.808C159.176 278.064 157.679 278.454 156.982 279.679C156.284 280.904 156.65 282.5 157.799 283.244C158.948 283.988 160.445 283.597 161.142 282.372Z" fill="#FF5A00" stroke="#222222" stroke-linecap="round" stroke-linejoin="round"/>
<path d="M188.249 288.365C188.17 288.73 188.194 289.111 188.317 289.461C188.441 289.811 188.66 290.114 188.945 290.331C189.231 290.549 189.57 290.672 189.921 290.683C190.271 290.695 190.618 290.596 190.915 290.398C191.213 290.2 191.449 289.913 191.594 289.572C191.738 289.231 191.784 288.852 191.727 288.483C191.669 288.114 191.51 287.771 191.27 287.499C191.03 287.226 190.719 287.035 190.378 286.951C189.919 286.837 189.438 286.923 189.039 287.188C188.639 287.453 188.355 287.877 188.249 288.365Z" fill="white" stroke="#222222" stroke-linecap="round" stroke-linejoin="round"/>
<path d="M183.137 280.288C183.471 278.962 182.733 277.599 181.489 277.244C180.246 276.889 178.968 277.676 178.635 279.001C178.301 280.327 179.039 281.69 180.283 282.045C181.526 282.4 182.804 281.614 183.137 280.288Z" fill="#FF5A00" stroke="#222222" stroke-linecap="round" stroke-linejoin="round"/>
<path d="M163.943 287.624C165.219 287.45 166.122 286.205 165.959 284.844C165.795 283.482 164.628 282.52 163.351 282.694C162.074 282.868 161.171 284.113 161.335 285.474C161.498 286.836 162.666 287.798 163.943 287.624Z" fill="white" stroke="#222222" stroke-linecap="round" stroke-linejoin="round"/>
<path d="M186.618 290.312C186.951 288.986 186.213 287.623 184.97 287.268C183.726 286.913 182.448 287.7 182.115 289.025C181.782 290.351 182.52 291.714 183.763 292.069C185.007 292.424 186.285 291.637 186.618 290.312Z" fill="white" stroke="#222222" stroke-linecap="round" stroke-linejoin="round"/>
<path opacity="0.5" d="M222.582 278.329C222.372 286.832 206.645 293.398 186.75 293.398C166.854 293.398 151.131 286.68 150.918 278.177C161.082 281.362 173.19 283.095 186.75 283.095C200.309 283.095 212.417 281.514 222.582 278.329Z" fill="white" stroke="#222222" stroke-linecap="round" stroke-linejoin="round"/>
<path d="M222.582 278.329C222.372 286.832 206.645 293.398 186.75 293.398C166.854 293.398 151.131 286.68 150.918 278.177C161.082 281.362 173.19 283.095 186.75 283.095C200.309 283.095 212.417 281.514 222.582 278.329Z" fill="white" stroke="#222222" stroke-linecap="round" stroke-linejoin="round"/>
<path d="M302.598 248.569L305.053 246.533C305.053 246.533 325.434 243.028 331.76 244.027C338.085 245.026 337.369 248.569 337.369 248.569H302.598Z" fill="white" stroke="#222222" stroke-linecap="round" stroke-linejoin="round"/>
<path d="M337.371 248.568C337.371 248.568 340.717 245.01 352.31 244.885C359.464 244.854 366.572 246.099 373.341 248.568H337.371Z" fill="white" stroke="#222222" stroke-linecap="round" stroke-linejoin="round"/>
<path d="M356.211 298.777H317.484L298.656 248.568H332.959C333.161 248.569 333.358 248.634 333.524 248.754C333.691 248.875 333.821 249.046 333.896 249.246L334.147 249.916H337.89L356.211 298.777Z" fill="#FF5A00" stroke="#222222" stroke-linecap="round" stroke-linejoin="round"/>
<path d="M397.277 298.777H356.194L337.856 249.855C337.802 249.711 337.782 249.554 337.798 249.4C337.814 249.246 337.865 249.098 337.946 248.969C338.028 248.84 338.137 248.735 338.266 248.662C338.394 248.588 338.537 248.55 338.683 248.549H378.449L397.277 298.777Z" fill="#FF5A00" stroke="#222222" stroke-linecap="round" stroke-linejoin="round"/>
<path d="M355.852 300.127H353.368C353.246 300.127 353.127 300.087 353.026 300.013C352.926 299.94 352.848 299.836 352.804 299.714L352.449 298.779L334.129 249.899H337.911L356.401 299.234C356.438 299.331 356.452 299.436 356.442 299.541C356.432 299.645 356.399 299.746 356.345 299.833C356.291 299.921 356.218 299.994 356.132 300.045C356.046 300.096 355.95 300.124 355.852 300.127Z" fill="#FF5A00" stroke="#222222" stroke-linecap="round" stroke-linejoin="round"/>
<path d="M339.09 264.964L333.488 300.737" stroke="#222222" stroke-linecap="round" stroke-linejoin="round"/>
<path d="M350.606 301.037H317.023" stroke="#222222" stroke-linecap="round" stroke-linejoin="round"/>
<path d="M219.97 206.75H286.003C287.885 206.75 289.69 207.547 291.021 208.966C292.351 210.384 293.099 212.309 293.099 214.315V238.75H212.871V214.315C212.871 213.321 213.055 212.337 213.412 211.419C213.768 210.501 214.291 209.667 214.951 208.964C215.61 208.262 216.392 207.705 217.254 207.325C218.115 206.945 219.038 206.75 219.97 206.75Z" fill="white" stroke="#222222" stroke-linecap="round" stroke-linejoin="round"/>
<path d="M279.451 193.83V206.75H227.797V193.83C227.796 193.038 227.942 192.253 228.226 191.522C228.51 190.79 228.927 190.125 229.452 189.565C229.977 189.005 230.601 188.561 231.287 188.258C231.974 187.955 232.709 187.8 233.452 187.8H273.796C275.213 187.8 276.578 188.366 277.621 189.387C278.665 190.409 279.31 191.81 279.43 193.315C279.444 193.485 279.451 193.656 279.451 193.83Z" fill="white" stroke="#222222" stroke-linecap="round" stroke-linejoin="round"/>
<path d="M289.596 207.644V215.874C289.596 217.251 289.083 218.571 288.17 219.544C287.257 220.517 286.019 221.064 284.728 221.064C283.438 221.064 282.199 220.517 281.287 219.544C280.374 218.571 279.861 217.251 279.861 215.874V214.902C279.766 213.571 279.204 212.327 278.285 211.419C277.367 210.511 276.161 210.007 274.908 210.007C273.656 210.007 272.45 210.511 271.532 211.419C270.613 212.327 270.05 213.571 269.956 214.902V226.503C269.956 228.114 269.356 229.659 268.287 230.798C267.219 231.938 265.769 232.578 264.258 232.578C262.747 232.578 261.298 231.938 260.229 230.798C259.161 229.659 258.561 228.114 258.561 226.503V219.063C258.561 218.051 258.183 217.08 257.512 216.364C256.841 215.648 255.93 215.246 254.981 215.246H254.871C253.95 215.246 253.066 215.636 252.415 216.331C251.764 217.025 251.398 217.967 251.398 218.949V222.966C251.415 223.595 251.313 224.221 251.099 224.808C250.884 225.394 250.562 225.928 250.151 226.379C249.74 226.831 249.248 227.189 248.704 227.434C248.16 227.679 247.576 227.805 246.986 227.805C246.396 227.805 245.812 227.679 245.268 227.434C244.725 227.189 244.233 226.831 243.822 226.379C243.41 225.928 243.088 225.394 242.874 224.808C242.66 224.221 242.558 223.595 242.575 222.966V213.298C242.575 211.195 240.975 209.784 239.002 209.784H238.896C236.983 209.784 235.433 211.146 235.433 213.189V220.576C235.432 221.597 235.051 222.577 234.373 223.299C233.695 224.021 232.776 224.426 231.818 224.426H231.708C230.778 224.426 229.887 224.033 229.23 223.332C228.572 222.631 228.203 221.68 228.203 220.689V219.123C228.203 217.669 227.661 216.274 226.696 215.245C225.731 214.217 224.423 213.639 223.059 213.639C221.694 213.639 220.386 214.217 219.421 215.245C218.457 216.274 217.915 217.669 217.915 219.123V223.477C217.915 224.787 217.426 226.044 216.557 226.97C215.689 227.896 214.51 228.417 213.281 228.417V213.767C213.281 212.021 213.932 210.346 215.09 209.111C216.249 207.876 217.82 207.182 219.458 207.182H287.332C288.108 207.182 288.876 207.339 289.596 207.644Z" fill="#EFAF00" stroke="#222222" stroke-linecap="round" stroke-linejoin="round"/>
<path d="M235.734 233.375C235.734 233.375 241.23 232.403 240.346 226.885L235.734 233.375Z" fill="white"/>
<path d="M235.734 233.375C235.734 233.375 241.23 232.403 240.346 226.885" stroke="#222222" stroke-linecap="round" stroke-linejoin="round"/>
<path d="M237.34 235.42C237.404 233.756 236.191 232.352 234.63 232.284C233.07 232.216 231.753 233.51 231.69 235.173C231.626 236.837 232.839 238.241 234.399 238.309C235.96 238.377 237.276 237.083 237.34 235.42Z" fill="#FF5A00" stroke="#222222" stroke-linecap="round" stroke-linejoin="round"/>
<path d="M242.599 234.046C242.599 234.046 240.073 232.488 240.154 229.84L242.599 234.046Z" fill="white"/>
<path d="M242.599 234.046C242.599 234.046 240.073 232.488 240.154 229.84" stroke="#222222" stroke-linecap="round" stroke-linejoin="round"/>
<path d="M244.429 237.86C245.456 237.032 245.658 235.473 244.882 234.379C244.105 233.284 242.643 233.068 241.617 233.896C240.59 234.724 240.387 236.283 241.164 237.377C241.941 238.472 243.403 238.688 244.429 237.86Z" fill="#FF5A00" stroke="#222222" stroke-linecap="round" stroke-linejoin="round"/>
<path d="M292.704 228.266C292.547 228.266 292.392 228.233 292.248 228.169C292.103 228.105 291.972 228.011 291.861 227.893C291.75 227.775 291.662 227.635 291.602 227.481C291.543 227.327 291.512 227.162 291.512 226.995V225.493C291.528 225.169 291.661 224.863 291.882 224.64C292.104 224.416 292.397 224.292 292.702 224.292C293.007 224.292 293.3 224.416 293.522 224.64C293.743 224.863 293.876 225.169 293.892 225.493V227.006C293.89 227.341 293.764 227.661 293.542 227.897C293.319 228.133 293.018 228.266 292.704 228.266Z" fill="white" stroke="#222222" stroke-linecap="round" stroke-linejoin="round"/>
<path d="M276.892 218.03C276.706 218.033 276.522 217.997 276.35 217.923C276.178 217.85 276.022 217.74 275.89 217.602C275.758 217.463 275.653 217.298 275.581 217.115C275.509 216.933 275.473 216.737 275.473 216.54V215.049C275.526 214.694 275.696 214.37 275.953 214.137C276.21 213.903 276.536 213.775 276.874 213.775C277.212 213.775 277.538 213.903 277.795 214.137C278.052 214.37 278.222 214.694 278.275 215.049V216.54C278.275 216.932 278.13 217.309 277.871 217.588C277.612 217.867 277.26 218.026 276.892 218.03Z" fill="white" stroke="#222222" stroke-linecap="round" stroke-linejoin="round"/>
<path d="M216.329 234.166C216.145 234.167 215.963 234.128 215.793 234.054C215.623 233.979 215.468 233.869 215.338 233.731C215.208 233.592 215.105 233.428 215.034 233.247C214.964 233.066 214.928 232.872 214.928 232.676V231.185C214.918 230.983 214.947 230.781 215.013 230.591C215.079 230.401 215.181 230.228 215.312 230.081C215.443 229.934 215.6 229.817 215.775 229.737C215.949 229.657 216.137 229.616 216.327 229.616C216.517 229.616 216.705 229.657 216.88 229.737C217.054 229.817 217.212 229.934 217.343 230.081C217.474 230.228 217.575 230.401 217.641 230.591C217.707 230.781 217.736 230.983 217.727 231.185V232.68C217.727 232.875 217.691 233.069 217.62 233.249C217.55 233.43 217.447 233.594 217.317 233.732C217.187 233.87 217.033 233.979 216.864 234.054C216.694 234.128 216.512 234.167 216.329 234.166Z" fill="white" stroke="#222222" stroke-linecap="round" stroke-linejoin="round"/>
<path d="M227.797 193.315C227.887 194.031 228.224 194.686 228.741 195.153C229.387 195.747 230.215 196.069 231.068 196.061C232.891 196.061 234.364 194.677 234.364 192.971V192.392C234.369 191.969 234.459 191.551 234.628 191.168C234.798 190.785 235.043 190.445 235.346 190.172C236.005 189.567 236.847 189.239 237.716 189.249C239.568 189.249 241.069 190.656 241.069 192.392V199.295C241.074 199.783 241.178 200.263 241.372 200.704C241.567 201.145 241.848 201.537 242.197 201.852C242.956 202.545 243.926 202.922 244.925 202.911C247.054 202.911 248.782 201.292 248.782 199.299V194.874C248.782 193.618 249.867 192.604 251.208 192.604H251.279C252.578 192.604 253.631 193.591 253.631 194.809V197.204C253.636 197.58 253.717 197.952 253.867 198.293C254.018 198.634 254.235 198.937 254.504 199.182C255.096 199.723 255.853 200.015 256.633 200.003C258.279 200.003 259.616 198.751 259.616 197.204V191.45C259.616 190.198 260.702 189.359 262.036 189.359H262.107C263.402 189.359 264.452 190.172 264.452 191.386V195.774C264.452 197.041 265.548 198.066 266.9 198.066H266.971C268.283 198.066 269.344 197.071 269.344 195.842V194.911C269.345 194.469 269.436 194.032 269.61 193.631C269.784 193.23 270.037 192.873 270.352 192.585C271.036 191.96 271.909 191.622 272.81 191.632C274.737 191.632 276.294 193.092 276.294 194.896V197.502C276.298 197.898 276.383 198.289 276.541 198.647C276.7 199.006 276.929 199.323 277.213 199.579C277.829 200.144 278.617 200.45 279.43 200.441V193.83C279.431 193.038 279.285 192.253 279.001 191.522C278.717 190.79 278.3 190.125 277.775 189.565C277.25 189.005 276.626 188.561 275.94 188.258C275.253 187.955 274.518 187.8 273.775 187.8H233.431C232.014 187.8 230.649 188.366 229.606 189.387C228.563 190.409 227.917 191.81 227.797 193.315Z" fill="#EFAF00" stroke="#222222" stroke-linecap="round" stroke-linejoin="round"/>
<path d="M267.73 202.041C267.73 202.041 272.523 201.198 271.754 196.386L267.73 202.041Z" fill="white"/>
<path d="M267.73 202.041C267.73 202.041 272.523 201.198 271.754 196.386" stroke="#222222" stroke-linecap="round" stroke-linejoin="round"/>
<path d="M266.669 206.352C268.031 206.352 269.134 205.175 269.134 203.724C269.134 202.272 268.031 201.095 266.669 201.095C265.307 201.095 264.203 202.272 264.203 203.724C264.203 205.175 265.307 206.352 266.669 206.352Z" fill="#FF5A00" stroke="#222222" stroke-linecap="round" stroke-linejoin="round"/>
<path d="M273.716 202.635C273.716 202.635 271.517 201.277 271.588 198.97L273.716 202.635Z" fill="white"/>
<path d="M273.716 202.635C273.716 202.635 271.517 201.277 271.588 198.97" stroke="#222222" stroke-linecap="round" stroke-linejoin="round"/>
<path d="M272.06 204.012C272.015 204.438 272.089 204.868 272.273 205.249C272.458 205.63 272.744 205.944 273.096 206.151C273.447 206.359 273.849 206.451 274.25 206.415C274.65 206.379 275.032 206.217 275.346 205.95C275.661 205.683 275.894 205.323 276.016 204.914C276.138 204.506 276.145 204.068 276.033 203.656C275.922 203.245 275.699 202.877 275.392 202.6C275.085 202.323 274.708 202.15 274.309 202.101C274.044 202.069 273.775 202.093 273.518 202.172C273.262 202.251 273.022 202.382 272.813 202.56C272.604 202.737 272.43 202.957 272.301 203.206C272.172 203.455 272.09 203.729 272.06 204.012Z" fill="#FF5A00" stroke="#222222" stroke-linecap="round" stroke-linejoin="round"/>
<path d="M303.714 147.362C302.247 147.824 300.848 148.501 299.556 149.374C296.008 151.735 295.132 156.024 294.405 160.234C293.578 165.03 293.777 178.102 293.954 183.447C294.163 189.654 294.327 194.556 293.06 197.064C292.823 197.522 292.473 197.903 292.048 198.165C291.623 198.428 291.139 198.562 290.648 198.554H288.161C287.962 198.554 287.834 198.679 287.834 198.758V199.257C287.834 199.337 287.962 199.458 288.161 199.458H288.594C288.943 199.438 289.292 199.495 289.62 199.624C289.948 199.753 290.248 199.952 290.501 200.208C290.755 200.465 290.957 200.774 291.095 201.116C291.233 201.459 291.304 201.827 291.304 202.2C291.304 202.573 291.233 202.942 291.095 203.284C290.957 203.627 290.755 203.936 290.501 204.192C290.248 204.449 289.948 204.648 289.62 204.777C289.292 204.906 288.943 204.962 288.594 204.942H283.744C283.545 204.942 283.414 205.067 283.414 205.147V205.238C283.414 205.317 283.545 205.442 283.744 205.442H288.001C289.662 205.444 291.255 206.148 292.429 207.4C293.604 208.653 294.264 210.351 294.266 212.122V220.197C294.275 220.37 294.251 220.542 294.195 220.704C294.139 220.867 294.053 221.015 293.942 221.14C293.83 221.266 293.696 221.366 293.547 221.434C293.398 221.502 293.238 221.537 293.076 221.537C292.914 221.537 292.754 221.502 292.605 221.434C292.456 221.366 292.322 221.266 292.21 221.14C292.099 221.015 292.013 220.867 291.957 220.704C291.901 220.542 291.877 220.37 291.886 220.197V212.137C291.886 211.033 291.475 209.975 290.743 209.195C290.011 208.414 289.018 207.976 287.983 207.976H283.726C283.026 207.994 282.347 207.716 281.839 207.202C281.331 206.688 281.035 205.98 281.016 205.234V205.143C281.035 204.397 281.331 203.689 281.839 203.175C282.347 202.661 283.026 202.382 283.726 202.401H288.558C288.757 202.401 288.888 202.28 288.888 202.196C288.888 202.113 288.757 201.996 288.558 201.996H288.161C287.461 202.013 286.783 201.735 286.275 201.221C285.767 200.707 285.471 200 285.45 199.254V198.754C285.47 198.008 285.766 197.3 286.274 196.786C286.782 196.272 287.461 195.994 288.161 196.012H290.644C290.704 196.017 290.763 196.007 290.818 195.981C290.873 195.955 290.92 195.915 290.956 195.865C291.921 193.943 291.751 188.878 291.574 183.519C291.389 178.045 291.183 164.826 292.06 159.757C293.124 153.705 295.575 149.545 298.137 148.251C301.603 146.545 303.714 147.362 303.714 147.362Z" fill="#EFAF00" stroke="#222222" stroke-linecap="round" stroke-linejoin="round"/>
<path d="M239.796 271.479H262.175C263.284 271.479 264.347 271.948 265.13 272.784C265.914 273.62 266.355 274.753 266.355 275.935V276.933H235.617V275.95C235.615 275.363 235.722 274.782 235.931 274.24C236.14 273.698 236.448 273.205 236.836 272.789C237.224 272.374 237.686 272.044 238.194 271.82C238.702 271.595 239.246 271.479 239.796 271.479Z" fill="white" stroke="#222222" stroke-linecap="round" stroke-linejoin="round"/>
<path d="M239.254 271.48C239.84 271.48 240.42 271.357 240.961 271.118C241.502 270.879 241.993 270.528 242.407 270.086C242.821 269.644 243.149 269.12 243.373 268.542C243.596 267.965 243.711 267.347 243.71 266.722V251.119C243.71 249.859 243.24 248.651 242.405 247.76C241.569 246.869 240.436 246.369 239.254 246.369H262.722C261.54 246.369 260.407 246.869 259.571 247.76C258.736 248.651 258.266 249.859 258.266 251.119V266.722C258.266 267.982 258.736 269.19 259.571 270.081C260.407 270.972 261.54 271.473 262.722 271.473H239.254V271.48Z" fill="white" stroke="#222222" stroke-linecap="round" stroke-linejoin="round"/>
<path d="M258.266 250.223C258.223 248.547 260.26 246.369 262.722 246.369H239.254C240.436 246.369 241.569 246.869 242.405 247.76C243.24 248.651 243.71 249.859 243.71 251.119V254.785L258.266 250.223Z" fill="white" stroke="#222222" stroke-linecap="round" stroke-linejoin="round"/>
<path d="M239.254 271.48C239.84 271.48 240.42 271.357 240.961 271.118C241.502 270.879 241.993 270.528 242.407 270.086C242.821 269.644 243.149 269.12 243.373 268.542C243.596 267.965 243.711 267.347 243.71 266.722V251.119C243.71 249.859 243.24 248.651 242.405 247.76C241.569 246.869 240.436 246.369 239.254 246.369H262.722C261.54 246.369 260.407 246.869 259.571 247.76C258.736 248.651 258.266 249.859 258.266 251.119V266.722C258.266 267.982 258.736 269.19 259.571 270.081C260.407 270.972 261.54 271.473 262.722 271.473H239.254V271.48Z" fill="white" stroke="#222222" stroke-linecap="round" stroke-linejoin="round"/>
<path d="M292.747 246.368H209.23C207.615 246.356 206.044 245.808 204.733 244.801C203.423 243.794 202.44 242.377 201.918 240.747L201.266 238.754H300.711L300.059 240.747C299.537 242.377 298.554 243.794 297.243 244.801C295.933 245.808 294.362 246.356 292.747 246.368Z" fill="white" stroke="#222222" stroke-linecap="round" stroke-linejoin="round"/>
</g>
<defs>
<clipPath id="clip0_3111_48984">
<rect width="570" height="402" fill="white" transform="translate(0.5)"/>
</clipPath>
</defs>
</svg>
