<svg width="165" height="151" viewBox="0 0 165 151" fill="none" xmlns="http://www.w3.org/2000/svg">
<g clip-path="url(#clip0_3111_50103)">
<g filter="url(#filter0_d_3111_50103)">
<path d="M1.08984 12.8945C1.08984 6.2671 6.46243 0.894531 13.0898 0.894531H51.8518C58.3214 0.894531 63.5661 6.13919 63.5661 12.6088V1160.61C63.5661 1167.08 58.3214 1172.32 51.8518 1172.32H13.0898C6.46242 1172.32 1.08984 1166.95 1.08984 1160.32V12.8945Z" fill="white"/>
<path d="M40.138 16.5137H24.519C18.0494 16.5137 12.8047 21.7583 12.8047 28.228V43.847C12.8047 50.3166 18.0494 55.5613 24.519 55.5613H40.138C46.6076 55.5613 51.8523 50.3166 51.8523 43.847V28.228C51.8523 21.7583 46.6076 16.5137 40.138 16.5137Z" fill="#D9D9D9"/>
<g filter="url(#filter1_d_3111_50103)">
<path d="M47.949 59.2327C48.0074 59.2327 48.0657 59.2212 48.1196 59.1984C48.1736 59.1756 48.2224 59.142 48.2636 59.1001C48.3042 59.0583 48.3366 59.0081 48.3581 58.9536C48.3791 58.8991 48.3892 58.8407 48.3879 58.7823V53.7477C48.3879 53.6893 48.4108 53.6335 48.452 53.5923C48.4932 53.551 48.549 53.5276 48.6074 53.5276H53.6459C53.7385 53.5288 53.8285 53.5016 53.9047 53.4489C53.9808 53.3969 54.0391 53.3221 54.0708 53.2358C54.1076 53.1324 54.1044 53.0189 54.0613 52.9181C54.0188 52.8172 53.9402 52.736 53.8406 52.6904L43.3019 47.8561C43.22 47.8187 43.1294 47.8073 43.0412 47.8231C42.953 47.839 42.8718 47.8815 42.8084 47.9443C42.745 48.0077 42.7025 48.0888 42.6866 48.177C42.6708 48.2652 42.6822 48.3559 42.7196 48.4377L47.5495 58.9758C47.5843 59.0525 47.6408 59.1172 47.7118 59.1629C47.7822 59.2086 47.8647 59.2327 47.949 59.2327Z" fill="#222222"/>
<path d="M54.3669 53.3411C54.4297 53.1636 54.424 52.9682 54.3504 52.7944C54.2769 52.6206 54.1411 52.4811 53.9692 52.4025V52.4018L43.4305 47.5675C43.2903 47.5035 43.1337 47.4838 42.9821 47.5111C42.8299 47.5384 42.6903 47.6113 42.5813 47.7204C42.4722 47.8289 42.3986 47.969 42.3713 48.1206C42.3441 48.2722 42.3637 48.4289 42.4278 48.569L47.2576 59.1078L47.2582 59.1084C47.3185 59.2397 47.4149 59.3513 47.5367 59.43C47.6584 59.508 47.8005 59.5498 47.9458 59.5498M54.3669 53.3411L47.9458 59.5498M54.3669 53.3411L54.365 53.3456M47.9458 59.5498C48.0466 59.5498 48.1462 59.5295 48.2394 59.4902C48.3326 59.4509 48.417 59.3938 48.4874 59.3215C48.5578 59.2492 48.613 59.1636 48.6498 59.0691C48.6859 58.9765 48.7037 58.8782 48.7018 58.7786V53.8447H53.6413C53.798 53.8467 53.9521 53.7997 54.0815 53.7103C54.2115 53.6209 54.3105 53.4934 54.365 53.3456M47.9458 59.5498L54.365 53.3456" stroke="white"/>
</g>
<path d="M23.543 42.3856H29.4001M23.543 34.332H29.4001" stroke="#303030" stroke-width="1.5" stroke-linecap="round" stroke-linejoin="round"/>
<path d="M28.668 31.4004H24.2751C23.8708 31.4004 23.543 31.7282 23.543 32.1325V44.579C23.543 44.9833 23.8708 45.3111 24.2751 45.3111H28.668C29.0723 45.3111 29.4001 44.9833 29.4001 44.579V32.1325C29.4001 31.7282 29.0723 31.4004 28.668 31.4004Z" stroke="#303030" stroke-width="1.5" stroke-linejoin="round"/>
<path d="M33.7935 26.2754H30.865C30.4606 26.2754 30.1328 26.6032 30.1328 27.0075V44.579C30.1328 44.9833 30.4606 45.3111 30.865 45.3111H33.7935C34.1979 45.3111 34.5257 44.9833 34.5257 44.579V27.0075C34.5257 26.6032 34.1979 26.2754 33.7935 26.2754Z" stroke="#303030" stroke-width="1.5" stroke-linejoin="round"/>
<path d="M37.7492 28.4815L35.9005 28.676C35.3917 28.7295 35.0229 29.2054 35.0801 29.733L36.6779 44.4486C36.7356 44.9762 37.1982 45.3637 37.7071 45.3107L39.5557 45.1162C40.0646 45.0627 40.4334 44.5868 40.3762 44.0592L38.7805 29.3458C38.7206 28.816 38.258 28.4279 37.7492 28.4815Z" stroke="#303030" stroke-width="1.5" stroke-linejoin="round"/>
<path d="M39.7933 87.0391H24.864C24.1344 87.0391 23.543 87.6305 23.543 88.3601V97.4323C23.543 98.1617 24.1344 98.7533 24.864 98.7533H39.7933C40.5229 98.7533 41.1144 98.1617 41.1144 97.4323V88.3601C41.1144 87.6305 40.5229 87.0391 39.7933 87.0391Z" stroke="#545454" stroke-width="1.5" stroke-linejoin="round"/>
<path d="M25.7383 84.8468H38.9169M27.2026 82.6504H37.4526" stroke="#545454" stroke-width="1.5" stroke-miterlimit="10" stroke-linecap="round"/>
<path d="M36.7204 135.854H27.9347C27.3521 135.854 26.7934 136.085 26.3816 136.497C25.9696 136.909 25.7383 137.467 25.7383 138.05V154.889L32.3276 149.032L38.9169 154.889V138.05C38.9169 137.467 38.6854 136.909 38.2735 136.497C37.8616 136.085 37.3029 135.854 36.7204 135.854Z" stroke="#545454" stroke-width="1.5" stroke-linecap="round" stroke-linejoin="round"/>
</g>
<path d="M148.497 20.418H75.2831C66.6569 20.418 59.6641 27.4109 59.6641 36.037C59.6641 44.6632 66.6569 51.6561 75.2831 51.6561H148.497C157.124 51.6561 164.116 44.6632 164.116 36.037C164.116 27.4109 157.124 20.418 148.497 20.418Z" fill="#E9E9E9"/>
<path d="M81.1025 35.9493C81.1025 37.0105 80.9085 37.923 80.5201 38.6866C80.1319 39.4469 79.5997 40.0325 78.9235 40.4434C78.2505 40.8511 77.4853 41.0549 76.6279 41.0549C75.7673 41.0549 74.9988 40.8511 74.3226 40.4434C73.6496 40.0325 73.1191 39.4453 72.7307 38.6817C72.3425 37.9181 72.1484 37.0073 72.1484 35.9493C72.1484 34.8881 72.3425 33.9773 72.7307 33.217C73.1191 32.4534 73.6496 31.8678 74.3226 31.4601C74.9988 31.0491 75.7673 30.8438 76.6279 30.8438C77.4853 30.8438 78.2505 31.0491 78.9235 31.4601C79.5997 31.8678 80.1319 32.4534 80.5201 33.217C80.9085 33.9773 81.1025 34.8881 81.1025 35.9493ZM79.6175 35.9493C79.6175 35.1405 79.4865 34.4594 79.2244 33.9062C78.9656 33.3496 78.6096 32.929 78.1567 32.6442C77.707 32.3564 77.1974 32.2124 76.6279 32.2124C76.0552 32.2124 75.544 32.3564 75.0943 32.6442C74.6445 32.929 74.2886 33.3496 74.0266 33.9062C73.7677 34.4594 73.6383 35.1405 73.6383 35.9493C73.6383 36.7582 73.7677 37.4408 74.0266 37.9974C74.2886 38.5507 74.6445 38.9712 75.0943 39.2592C75.544 39.544 76.0552 39.6863 76.6279 39.6863C77.1974 39.6863 77.707 39.544 78.1567 39.2592C78.6096 38.9712 78.9656 38.5507 79.2244 37.9974C79.4865 37.4408 79.6175 36.7582 79.6175 35.9493ZM87.6216 33.4644V34.7166H84.2875V40.919H82.8558V33.4644H87.6216ZM87.9541 40.919L87.9492 39.6621H88.2161C88.4233 39.6621 88.5964 39.6183 88.7355 39.531C88.8778 39.4404 88.9944 39.2883 89.0849 39.0748C89.1755 38.8612 89.245 38.5668 89.2936 38.1915C89.3422 37.813 89.3777 37.3374 89.4004 36.7646L89.5314 33.4644H94.7341V40.919H93.312V34.7166H90.8758L90.7593 37.25C90.7301 37.8647 90.6671 38.4018 90.57 38.8612C90.4762 39.3207 90.3387 39.704 90.1575 40.0114C89.9763 40.3156 89.7433 40.5437 89.4586 40.6958C89.1739 40.8446 88.8277 40.919 88.4201 40.919H87.9541ZM98.8385 41.084C98.366 41.084 97.9392 40.9966 97.5574 40.822C97.1756 40.644 96.8731 40.3868 96.6498 40.0503C96.4298 39.7138 96.3199 39.3013 96.3199 38.8127C96.3199 38.3921 96.4007 38.0459 96.5625 37.7741C96.7243 37.5023 96.9427 37.2872 97.2177 37.1287C97.4927 36.9701 97.8001 36.8503 98.1395 36.7695C98.4792 36.6886 98.8258 36.6272 99.1782 36.5851C99.6253 36.5333 99.9874 36.4913 100.266 36.4589C100.544 36.4233 100.746 36.3666 100.872 36.289C100.999 36.2114 101.061 36.0852 101.061 35.9105V35.8765C101.061 35.4526 100.942 35.1242 100.702 34.8913C100.466 34.6583 100.113 34.5419 99.6438 34.5419C99.1557 34.5419 98.7711 34.6503 98.489 34.867C98.2108 35.0806 98.0185 35.3184 97.9117 35.5804L96.5479 35.2699C96.7097 34.8169 96.9459 34.4513 97.2565 34.173C97.5704 33.8915 97.9311 33.6877 98.3386 33.5616C98.7467 33.4321 99.1752 33.3674 99.6253 33.3674C99.923 33.3674 100.238 33.403 100.571 33.4742C100.908 33.5421 101.221 33.6683 101.513 33.8528C101.807 34.0372 102.048 34.3008 102.236 34.6438C102.424 34.9835 102.518 35.4252 102.518 35.9688V40.919H101.1V39.8999H101.042C100.948 40.0875 100.807 40.2719 100.62 40.4531C100.433 40.6343 100.191 40.7848 99.8966 40.9045C99.6018 41.0241 99.2494 41.084 98.8385 41.084ZM99.1538 39.9193C99.555 39.9193 99.8986 39.8399 100.183 39.6814C100.471 39.5229 100.689 39.3158 100.839 39.0602C100.99 38.8014 101.066 38.5247 101.066 38.2303V37.2694C101.014 37.3212 100.914 37.3697 100.765 37.415C100.62 37.457 100.453 37.4942 100.266 37.5267C100.078 37.5557 99.8947 37.5833 99.717 37.6091C99.5394 37.6318 99.39 37.6512 99.2709 37.6673C98.9888 37.703 98.7321 37.7628 98.4987 37.8469C98.2693 37.9311 98.0848 38.0523 97.9456 38.211C97.8098 38.3662 97.7418 38.5733 97.7418 38.8321C97.7418 39.1913 97.8745 39.463 98.1395 39.6474C98.405 39.8286 98.7428 39.9193 99.1538 39.9193ZM104.451 40.919V33.4644H107.542C108.383 33.4644 109.049 33.644 109.541 34.0032C110.033 34.3591 110.278 34.8428 110.278 35.4543C110.278 35.891 110.14 36.2373 109.862 36.4929C109.583 36.7484 109.214 36.92 108.755 37.0073C109.088 37.0462 109.394 37.1464 109.672 37.3082C109.95 37.4667 110.174 37.6803 110.342 37.9489C110.514 38.2174 110.6 38.5377 110.6 38.9098C110.6 39.3045 110.497 39.654 110.293 39.958C110.09 40.259 109.793 40.4952 109.406 40.6667C109.02 40.8349 108.556 40.919 108.013 40.919H104.451ZM105.814 39.7057H108.013C108.372 39.7057 108.653 39.62 108.857 39.4485C109.061 39.277 109.163 39.044 109.163 38.7496C109.163 38.4035 109.061 38.1316 108.857 37.9343C108.653 37.7337 108.372 37.6334 108.013 37.6334H105.814V39.7057ZM105.814 36.5706H107.556C107.828 36.5706 108.061 36.5317 108.255 36.454C108.453 36.3764 108.603 36.2664 108.707 36.1241C108.813 35.9784 108.867 35.807 108.867 35.6096C108.867 35.3216 108.749 35.0967 108.513 34.935C108.276 34.7732 107.952 34.6923 107.542 34.6923H105.814V36.5706ZM111.604 40.919L111.599 39.6621H111.866C112.073 39.6621 112.246 39.6183 112.385 39.531C112.528 39.4404 112.644 39.2883 112.735 39.0748C112.825 38.8612 112.895 38.5668 112.943 38.1915C112.992 37.813 113.027 37.3374 113.05 36.7646L113.182 33.4644H118.384V40.919H116.961V34.7166H114.526L114.409 37.25C114.379 37.8647 114.317 38.4018 114.219 38.8612C114.126 39.3207 113.988 39.704 113.807 40.0114C113.626 40.3156 113.393 40.5437 113.108 40.6958C112.823 40.8446 112.478 40.919 112.07 40.919H111.604ZM123.532 41.0694C122.797 41.0694 122.165 40.9126 121.634 40.5987C121.107 40.2817 120.699 39.8367 120.411 39.2641C120.126 38.6881 119.984 38.0136 119.984 37.2402C119.984 36.4767 120.126 35.8037 120.411 35.2214C120.699 34.639 121.1 34.1844 121.615 33.8575C122.132 33.5308 122.738 33.3674 123.43 33.3674C123.85 33.3674 124.258 33.437 124.653 33.5761C125.047 33.7152 125.402 33.9336 125.716 34.2312C126.029 34.529 126.277 34.9155 126.459 35.3912C126.639 35.8636 126.73 36.4379 126.73 37.1141V37.6286H120.805V36.5414H125.308C125.308 36.1596 125.231 35.8215 125.076 35.5271C124.92 35.2294 124.702 34.9948 124.42 34.8234C124.141 34.6519 123.815 34.5662 123.439 34.5662C123.032 34.5662 122.676 34.6664 122.371 34.867C122.071 35.0644 121.838 35.3233 121.674 35.6436C121.511 35.9606 121.43 36.3052 121.43 36.6773V37.5267C121.43 38.0249 121.517 38.4488 121.692 38.7981C121.871 39.1476 122.118 39.4145 122.435 39.5989C122.752 39.7801 123.122 39.8707 123.547 39.8707C123.821 39.8707 124.072 39.8319 124.298 39.7542C124.525 39.6734 124.721 39.5536 124.886 39.3951C125.051 39.2365 125.177 39.0408 125.265 38.8079L126.637 39.0554C126.528 39.4598 126.331 39.8141 126.046 40.1182C125.765 40.4191 125.41 40.6537 124.983 40.822C124.559 40.987 124.075 41.0694 123.532 41.0694ZM133.393 36.5657V37.8226H129.354V36.5657H133.393ZM129.762 33.4644V40.919H128.34V33.4644H129.762ZM134.407 33.4644V40.919H132.99V33.4644H134.407ZM137.77 38.8855L141.056 33.4644H142.619V40.919H141.196V35.4931L137.925 40.919H136.348V33.4644H137.77V38.8855ZM147.782 41.0694C147.048 41.0694 146.415 40.9126 145.885 40.5987C145.357 40.2817 144.95 39.8367 144.662 39.2641C144.377 38.6881 144.234 38.0136 144.234 37.2402C144.234 36.4767 144.377 35.8037 144.662 35.2214C144.95 34.639 145.351 34.1844 145.865 33.8575C146.383 33.5308 146.988 33.3674 147.68 33.3674C148.101 33.3674 148.509 33.437 148.903 33.5761C149.298 33.7152 149.652 33.9336 149.966 34.2312C150.28 34.529 150.528 34.9155 150.708 35.3912C150.89 35.8636 150.981 36.4379 150.981 37.1141V37.6286H145.054V36.5414H149.558C149.558 36.1596 149.481 35.8215 149.325 35.5271C149.17 35.2294 148.952 34.9948 148.67 34.8234C148.392 34.6519 148.065 34.5662 147.69 34.5662C147.282 34.5662 146.927 34.6664 146.622 34.867C146.321 35.0644 146.088 35.3233 145.923 35.6436C145.762 35.9606 145.681 36.3052 145.681 36.6773V37.5267C145.681 38.0249 145.768 38.4488 145.943 38.7981C146.121 39.1476 146.368 39.4145 146.685 39.5989C147.003 39.7801 147.373 39.8707 147.796 39.8707C148.072 39.8707 148.323 39.8319 148.549 39.7542C148.775 39.6734 148.972 39.5536 149.137 39.3951C149.302 39.2365 149.428 39.0408 149.514 38.8079L150.888 39.0554C150.779 39.4598 150.58 39.8141 150.296 40.1182C150.014 40.4191 149.66 40.6537 149.233 40.822C148.81 40.987 148.325 41.0694 147.782 41.0694Z" fill="#545454"/>
<g filter="url(#filter2_f_3111_50103)">
<rect width="225" height="151" transform="translate(-29.5 25.5254)" fill="url(#paint0_linear_3111_50103)"/>
</g>
</g>
<defs>
<filter id="filter0_d_3111_50103" x="-12.9102" y="-13.1055" width="90.4766" height="1199.43" filterUnits="userSpaceOnUse" color-interpolation-filters="sRGB">
<feFlood flood-opacity="0" result="BackgroundImageFix"/>
<feColorMatrix in="SourceAlpha" type="matrix" values="0 0 0 0 0 0 0 0 0 0 0 0 0 0 0 0 0 0 127 0" result="hardAlpha"/>
<feOffset/>
<feGaussianBlur stdDeviation="7"/>
<feComposite in2="hardAlpha" operator="out"/>
<feColorMatrix type="matrix" values="0 0 0 0 0 0 0 0 0 0 0 0 0 0 0 0 0 0 0.06 0"/>
<feBlend mode="normal" in2="BackgroundImageFix" result="effect1_dropShadow_3111_50103"/>
<feBlend mode="normal" in="SourceGraphic" in2="effect1_dropShadow_3111_50103" result="shape"/>
</filter>
<filter id="filter1_d_3111_50103" x="27.8594" y="32.9991" width="41.0508" height="41.0507" filterUnits="userSpaceOnUse" color-interpolation-filters="sRGB">
<feFlood flood-opacity="0" result="BackgroundImageFix"/>
<feColorMatrix in="SourceAlpha" type="matrix" values="0 0 0 0 0 0 0 0 0 0 0 0 0 0 0 0 0 0 127 0" result="hardAlpha"/>
<feOffset/>
<feGaussianBlur stdDeviation="7"/>
<feComposite in2="hardAlpha" operator="out"/>
<feColorMatrix type="matrix" values="0 0 0 0 0 0 0 0 0 0 0 0 0 0 0 0 0 0 0.06 0"/>
<feBlend mode="normal" in2="BackgroundImageFix" result="effect1_dropShadow_3111_50103"/>
<feBlend mode="normal" in="SourceGraphic" in2="effect1_dropShadow_3111_50103" result="shape"/>
</filter>
<filter id="filter2_f_3111_50103" x="-54.5" y="0.525391" width="275" height="201" filterUnits="userSpaceOnUse" color-interpolation-filters="sRGB">
<feFlood flood-opacity="0" result="BackgroundImageFix"/>
<feBlend mode="normal" in="SourceGraphic" in2="BackgroundImageFix" result="shape"/>
<feGaussianBlur stdDeviation="12.5" result="effect1_foregroundBlur_3111_50103"/>
</filter>
<linearGradient id="paint0_linear_3111_50103" x1="112.5" y1="62.8871" x2="112.5" y2="195.96" gradientUnits="userSpaceOnUse">
<stop stop-color="#222222" stop-opacity="0"/>
<stop offset="1" stop-color="#222222"/>
</linearGradient>
<clipPath id="clip0_3111_50103">
<rect width="164" height="171" fill="white" transform="translate(0.464844 0.5)"/>
</clipPath>
</defs>
</svg>
