<svg width="281" height="151" viewBox="0 0 281 151" fill="none" xmlns="http://www.w3.org/2000/svg">
<g clip-path="url(#clip0_3111_50038)">
<g filter="url(#filter0_d_3111_50038)">
<path d="M272.784 1H7.33701C3.47905 1 0.351562 4.12511 0.351562 7.98012V760.67C0.351562 764.525 3.47905 767.65 7.33701 767.65H272.784C276.642 767.65 279.769 764.525 279.769 760.67V7.98012C279.769 4.12511 276.642 1 272.784 1Z" fill="white"/>
<path d="M263.471 10.5977H16.6514C12.9542 10.5977 9.95703 13.5926 9.95703 17.2869V28.9205C9.95703 32.6149 12.9542 35.6098 16.6514 35.6098H263.471C267.168 35.6098 270.165 32.6149 270.165 28.9205V17.2869C270.165 13.5926 267.168 10.5977 263.471 10.5977Z" fill="#FAFAFA"/>
<path d="M263.471 10.5977H16.6514C12.9542 10.5977 9.95703 13.5926 9.95703 17.2869V28.9205C9.95703 32.6149 12.9542 35.6098 16.6514 35.6098H263.471C267.168 35.6098 270.165 32.6149 270.165 28.9205V17.2869C270.165 13.5926 267.168 10.5977 263.471 10.5977Z" stroke="#222222"/>
<path d="M22.7625 23.1019C22.7625 21.6569 21.5891 20.4844 20.143 20.4844C18.6968 20.4844 17.5234 21.6569 17.5234 23.1019C17.5234 24.547 18.6968 25.7195 20.143 25.7195C21.5891 25.7195 22.7625 24.547 22.7625 23.1019Z" fill="#222222"/>
<path d="M33.0941 20.0888V20.858H30.2927V26.0113H29.3984V20.0888H33.0941ZM33.6824 26.0113L33.6795 25.2623H33.8386C33.9621 25.2623 34.0654 25.2363 34.1483 25.1842C34.2332 25.1302 34.3026 25.0396 34.3567 24.9124C34.4107 24.7851 34.4522 24.6097 34.4811 24.3861C34.51 24.1605 34.5313 23.8771 34.5448 23.5359L34.6229 21.5694H37.7254V26.0113H36.8774V22.3155H35.4246L35.3552 23.8251C35.3378 24.1913 35.3002 24.5114 35.2423 24.7851C35.1863 25.0589 35.1043 25.2873 34.9963 25.4705C34.8882 25.6518 34.7493 25.7876 34.5795 25.8783C34.4097 25.967 34.2033 26.0113 33.9602 26.0113H33.6824ZM40.173 26.1096C39.8913 26.1096 39.6367 26.0575 39.409 25.9535C39.1813 25.8474 39.0009 25.6942 38.8678 25.4937C38.7366 25.2932 38.671 25.0473 38.671 24.7562C38.671 24.5056 38.7192 24.2993 38.8157 24.1374C38.9122 23.9754 39.0424 23.8472 39.2064 23.7528C39.3704 23.6583 39.5537 23.5869 39.7563 23.5388C39.9589 23.4905 40.1653 23.454 40.3756 23.4289C40.6419 23.398 40.8579 23.373 41.0239 23.3537C41.1898 23.3324 41.3104 23.2987 41.3856 23.2525C41.4609 23.2062 41.4985 23.131 41.4985 23.0269V23.0066C41.4985 22.7541 41.4271 22.5584 41.2843 22.4196C41.1435 22.2808 40.9332 22.2114 40.6534 22.2114C40.3621 22.2114 40.1325 22.276 39.9647 22.4051C39.7987 22.5324 39.6839 22.6741 39.6202 22.8302L38.807 22.6452C38.9035 22.3753 39.0443 22.1574 39.2296 21.9916C39.4167 21.8239 39.6318 21.7024 39.8749 21.6273C40.118 21.5501 40.3737 21.5116 40.6419 21.5116C40.8194 21.5116 41.0075 21.5328 41.2062 21.5752C41.4069 21.6157 41.594 21.6908 41.7677 21.8008C41.9433 21.9107 42.087 22.0678 42.1989 22.2721C42.3108 22.4745 42.3667 22.7377 42.3667 23.0616V26.0113H41.5217V25.404H41.4869C41.431 25.5158 41.347 25.6257 41.2352 25.7337C41.1232 25.8416 40.9795 25.9313 40.8039 26.0026C40.6284 26.0739 40.418 26.1096 40.173 26.1096ZM40.3612 25.4156C40.6004 25.4156 40.8049 25.3683 40.9747 25.2738C41.1464 25.1794 41.2766 25.056 41.3654 24.9037C41.4561 24.7495 41.5014 24.5846 41.5014 24.4092V23.8366C41.4705 23.8675 41.4107 23.8964 41.322 23.9234C41.2352 23.9484 41.1358 23.9706 41.0239 23.9899C40.912 24.0072 40.803 24.0237 40.6969 24.0391C40.5908 24.0526 40.502 24.0641 40.4306 24.0737C40.2627 24.095 40.1093 24.1306 39.9704 24.1808C39.8335 24.2309 39.7235 24.3031 39.6405 24.3977C39.5595 24.4902 39.519 24.6136 39.519 24.7678C39.519 24.9818 39.5981 25.1437 39.7563 25.2536C39.9145 25.3616 40.1161 25.4156 40.3612 25.4156ZM43.5193 26.0113V21.5694H45.3628C45.8645 21.5694 46.2619 21.6764 46.5552 21.8904C46.8484 22.1025 46.9951 22.3907 46.9951 22.7551C46.9951 23.0153 46.9121 23.2216 46.7462 23.3739C46.5802 23.5262 46.3603 23.6284 46.0863 23.6805C46.2851 23.7036 46.4674 23.7634 46.6333 23.8597C46.7992 23.9542 46.9324 24.0815 47.0327 24.2415C47.135 24.4015 47.1861 24.5924 47.1861 24.8141C47.1861 25.0493 47.1253 25.2575 47.0037 25.4387C46.8822 25.618 46.7056 25.7587 46.4741 25.8609C46.2445 25.9612 45.9677 26.0113 45.6436 26.0113H43.5193ZM44.3325 25.2883H45.6436C45.8577 25.2883 46.0255 25.2373 46.1471 25.1351C46.2686 25.0329 46.3294 24.8941 46.3294 24.7186C46.3294 24.5124 46.2686 24.3504 46.1471 24.2328C46.0255 24.1133 45.8577 24.0535 45.6436 24.0535H44.3325V25.2883ZM44.3325 23.4202H45.3715C45.5335 23.4202 45.6725 23.3971 45.7882 23.3508C45.9059 23.3045 45.9956 23.239 46.0574 23.1542C46.1211 23.0674 46.1529 22.9652 46.1529 22.8476C46.1529 22.676 46.0825 22.542 45.9416 22.4456C45.8008 22.3492 45.6078 22.301 45.3628 22.301H44.3325V23.4202ZM49.429 26.1096C49.1473 26.1096 48.8926 26.0575 48.6649 25.9535C48.4373 25.8474 48.2569 25.6942 48.1237 25.4937C47.9925 25.2932 47.9269 25.0473 47.9269 24.7562C47.9269 24.5056 47.9752 24.2993 48.0716 24.1374C48.1681 23.9754 48.2984 23.8472 48.4624 23.7528C48.6263 23.6583 48.8097 23.5869 49.0122 23.5388C49.2148 23.4905 49.4212 23.454 49.6316 23.4289C49.8978 23.398 50.1139 23.373 50.2798 23.3537C50.4458 23.3324 50.5663 23.2987 50.6416 23.2525C50.7169 23.2062 50.7545 23.131 50.7545 23.0269V23.0066C50.7545 22.7541 50.6831 22.5584 50.5403 22.4196C50.3994 22.2808 50.1892 22.2114 49.9094 22.2114C49.618 22.2114 49.3885 22.276 49.2206 22.4051C49.0547 22.5324 48.9399 22.6741 48.8762 22.8302L48.063 22.6452C48.1594 22.3753 48.3003 22.1574 48.4855 21.9916C48.6727 21.8239 48.8878 21.7024 49.1309 21.6273C49.374 21.5501 49.6296 21.5116 49.8978 21.5116C50.0753 21.5116 50.2634 21.5328 50.4622 21.5752C50.6628 21.6157 50.8499 21.6908 51.0236 21.8008C51.1992 21.9107 51.3429 22.0678 51.4548 22.2721C51.5667 22.4745 51.6227 22.7377 51.6227 23.0616V26.0113H50.7776V25.404H50.7429C50.6869 25.5158 50.603 25.6257 50.4911 25.7337C50.3792 25.8416 50.2354 25.9313 50.0599 26.0026C49.8843 26.0739 49.674 26.1096 49.429 26.1096ZM49.6171 25.4156C49.8563 25.4156 50.0609 25.3683 50.2306 25.2738C50.4023 25.1794 50.5326 25.056 50.6213 24.9037C50.712 24.7495 50.7574 24.5846 50.7574 24.4092V23.8366C50.7265 23.8675 50.6667 23.8964 50.5779 23.9234C50.4911 23.9484 50.3917 23.9706 50.2798 23.9899C50.1679 24.0072 50.0589 24.0237 49.9528 24.0391C49.8467 24.0526 49.7579 24.0641 49.6866 24.0737C49.5187 24.095 49.3653 24.1306 49.2264 24.1808C49.0894 24.2309 48.9794 24.3031 48.8964 24.3977C48.8154 24.4902 48.7749 24.6136 48.7749 24.7678C48.7749 24.9818 48.854 25.1437 49.0122 25.2536C49.1705 25.3616 49.372 25.4156 49.6171 25.4156ZM57.1691 20.0888V26.0113H56.272V20.9853H56.2373L54.8192 21.9107V21.0547L56.2981 20.0888H57.1691ZM59.0118 26.0663C58.8535 26.0663 58.7179 26.0103 58.6038 25.8985C58.4903 25.7848 58.4332 25.6479 58.4332 25.4878C58.4332 25.3298 58.4903 25.1949 58.6038 25.083C58.7179 24.9693 58.8535 24.9124 59.0118 24.9124C59.1702 24.9124 59.3064 24.9693 59.4199 25.083C59.534 25.1949 59.5905 25.3298 59.5905 25.4878C59.5905 25.5939 59.5637 25.6913 59.5096 25.78C59.4577 25.8667 59.3879 25.9361 59.3012 25.9881C59.2144 26.0402 59.1178 26.0663 59.0118 26.0663ZM63.3987 20.0888L65.0484 24.9124H65.1148L66.7645 20.0888H67.7308L65.598 26.0113H64.5647L62.4318 20.0888H63.3987ZM68.5871 26.0113V20.0888H72.3028V20.858H69.4813V22.6625H72.109V23.4289H69.4813V25.2421H72.3377V26.0113H68.5871ZM77.5087 21.9598C77.4528 21.7844 77.3772 21.6273 77.2829 21.4884C77.1903 21.3477 77.0791 21.2282 76.9499 21.1299C76.8207 21.0296 76.6734 20.9534 76.5075 20.9014C76.3433 20.8493 76.1629 20.8233 75.9661 20.8233C75.6325 20.8233 75.3316 20.9091 75.0632 21.0807C74.7949 21.2523 74.583 21.5038 74.4264 21.8354C74.2721 22.1651 74.1947 22.569 74.1947 23.0471C74.1947 23.5272 74.2733 23.933 74.4293 24.2646C74.5859 24.5962 74.7995 24.8478 75.072 25.0194C75.3438 25.191 75.6535 25.2768 76.001 25.2768C76.3229 25.2768 76.6035 25.2112 76.8428 25.0801C77.0844 24.949 77.2706 24.7639 77.4016 24.5249C77.5349 24.2839 77.6013 24.0005 77.6013 23.6747L77.833 23.718H76.1367V22.9806H78.4663V23.6545C78.4663 24.1519 78.3604 24.5837 78.1485 24.95C77.9377 25.3143 77.6467 25.5958 77.2741 25.7944C76.9039 25.993 76.4795 26.0923 76.001 26.0923C75.4643 26.0923 74.994 25.9689 74.5888 25.7221C74.1854 25.4753 73.871 25.1254 73.6452 24.6724C73.4193 24.2174 73.3064 23.6776 73.3064 23.0529C73.3064 22.5806 73.3722 22.1565 73.5031 21.7805C73.6347 21.4046 73.8187 21.0855 74.0562 20.8233C74.2954 20.5592 74.576 20.3577 74.8979 20.2189C75.2221 20.0782 75.5761 20.0078 75.9603 20.0078C76.2804 20.0078 76.5785 20.055 76.8544 20.1495C77.1327 20.244 77.3795 20.3779 77.5955 20.5514C77.8137 20.725 77.9936 20.9313 78.1368 21.1704C78.2794 21.4074 78.3761 21.6706 78.4261 21.9598H77.5087ZM79.9193 26.0113H78.9704L81.1033 20.0888H82.136L84.2689 26.0113H83.32L81.6441 21.1645H81.5981L79.9193 26.0113ZM80.0788 23.692H83.1576V24.4439H80.0788V23.692ZM89.909 20.0888V26.0113H89.0871L86.0746 21.6677H86.0193V26.0113H85.1252V20.0888H85.953L88.9683 24.4382H89.0236V20.0888H89.909ZM95.3525 26.0923C94.9555 26.0923 94.6004 26.0238 94.2878 25.8869C93.9769 25.7501 93.7312 25.5601 93.5496 25.3172C93.3703 25.0724 93.2737 24.789 93.2603 24.4671H94.169C94.1807 24.6425 94.2394 24.7948 94.3454 24.924C94.4537 25.0512 94.5945 25.1495 94.768 25.2189C94.9415 25.2883 95.1348 25.3231 95.3472 25.3231C95.5807 25.3231 95.7867 25.2826 95.966 25.2016C96.1476 25.1206 96.2897 25.0078 96.3915 24.8632C96.494 24.7167 96.5452 24.548 96.5452 24.3571C96.5452 24.1586 96.494 23.9841 96.3915 23.8337C96.2914 23.6815 96.1436 23.5619 95.9491 23.4751C95.7559 23.3884 95.5224 23.345 95.2483 23.345H94.7476V22.6163H95.2483C95.4683 22.6163 95.6616 22.5767 95.8275 22.4977C95.9951 22.4186 96.1267 22.3088 96.221 22.168C96.3153 22.0254 96.363 21.8586 96.363 21.6677C96.363 21.4846 96.3211 21.3255 96.2384 21.1906C96.1575 21.0537 96.0417 20.9467 95.8909 20.8696C95.7425 20.7924 95.5667 20.7539 95.3641 20.7539C95.1714 20.7539 94.991 20.7896 94.8233 20.8609C94.6574 20.9303 94.5224 21.0306 94.4182 21.1616C94.314 21.2908 94.2581 21.446 94.2499 21.6273H93.3849C93.3942 21.3072 93.4891 21.0257 93.6684 20.7828C93.85 20.5399 94.0893 20.35 94.3861 20.2131C94.683 20.0762 95.0131 20.0078 95.3757 20.0078C95.7559 20.0078 96.0842 20.082 96.3601 20.2305C96.6378 20.377 96.852 20.5727 97.0022 20.8175C97.1547 21.0624 97.2298 21.3304 97.2281 21.6214C97.2298 21.9531 97.1372 22.2345 96.9504 22.4659C96.7653 22.6973 96.5179 22.8524 96.2093 22.9315V22.9777C96.6029 23.0375 96.9079 23.1937 97.1238 23.4462C97.3421 23.6988 97.4498 24.0121 97.4481 24.3861C97.4498 24.7119 97.359 25.0039 97.1762 25.2623C96.9946 25.5207 96.7466 25.7241 96.4323 25.8725C96.118 26.019 95.7576 26.0923 95.3525 26.0923ZM99.847 26.1096C99.5653 26.1096 99.3109 26.0575 99.0833 25.9535C98.8557 25.8474 98.6752 25.6942 98.5419 25.4937C98.4109 25.2932 98.3451 25.0473 98.3451 24.7562C98.3451 24.5056 98.3935 24.2993 98.4901 24.1374C98.5861 23.9754 98.7165 23.8472 98.8807 23.7528C99.0449 23.6583 99.2276 23.5869 99.4302 23.5388C99.6328 23.4905 99.8394 23.454 100.05 23.4289C100.316 23.398 100.532 23.373 100.698 23.3537C100.864 23.3324 100.984 23.2987 101.06 23.2525C101.135 23.2062 101.173 23.131 101.173 23.0269V23.0066C101.173 22.7541 101.101 22.5584 100.958 22.4196C100.817 22.2808 100.607 22.2114 100.328 22.2114C100.036 22.2114 99.8068 22.276 99.6386 22.4051C99.4727 22.5324 99.358 22.6741 99.2946 22.8302L98.4814 22.6452C98.5774 22.3753 98.7183 22.1574 98.904 21.9916C99.0908 21.8239 99.3062 21.7024 99.549 21.6273C99.7923 21.5501 100.048 21.5116 100.316 21.5116C100.494 21.5116 100.682 21.5328 100.88 21.5752C101.081 21.6157 101.268 21.6908 101.442 21.8008C101.617 21.9107 101.761 22.0678 101.873 22.2721C101.985 22.4745 102.041 22.7377 102.041 23.0616V26.0113H101.196V25.404H101.161C101.105 25.5158 101.021 25.6257 100.909 25.7337C100.798 25.8416 100.654 25.9313 100.478 26.0026C100.303 26.0739 100.092 26.1096 99.847 26.1096ZM100.035 25.4156C100.274 25.4156 100.479 25.3683 100.649 25.2738C100.82 25.1794 100.951 25.056 101.04 24.9037C101.13 24.7495 101.175 24.5846 101.175 24.4092V23.8366C101.145 23.8675 101.085 23.8964 100.996 23.9234C100.909 23.9484 100.81 23.9706 100.698 23.9899C100.586 24.0072 100.477 24.0237 100.371 24.0391C100.265 24.0526 100.176 24.0641 100.105 24.0737C99.9367 24.095 99.7836 24.1306 99.6444 24.1808C99.5076 24.2309 99.3976 24.3031 99.315 24.3977C99.2335 24.4902 99.1933 24.6136 99.1933 24.7678C99.1933 24.9818 99.2725 25.1437 99.4302 25.2536C99.5885 25.3616 99.7906 25.4156 100.035 25.4156ZM105.688 24.9413L107.124 21.5694H107.87L106.009 26.0113H105.367L103.543 21.5694H104.282L105.688 24.9413ZM104.041 21.5694V26.0113H103.194V21.5694H104.041ZM107.358 26.0113V21.5694H108.2V26.0113H107.358ZM111.269 26.1009C110.832 26.1009 110.454 26.0075 110.138 25.8205C109.823 25.6315 109.58 25.3664 109.408 25.0252C109.239 24.682 109.154 24.2801 109.154 23.8192C109.154 23.3643 109.239 22.9633 109.408 22.6163C109.58 22.2693 109.819 21.9984 110.126 21.8036C110.435 21.6089 110.796 21.5116 111.209 21.5116C111.459 21.5116 111.702 21.553 111.938 21.6359C112.173 21.7188 112.385 21.8489 112.572 22.0263C112.759 22.2037 112.906 22.434 113.015 22.7175C113.122 22.999 113.176 23.3412 113.176 23.7441V24.0506H109.643V23.4028H112.329C112.329 23.1753 112.282 22.9739 112.19 22.7985C112.097 22.6211 111.967 22.4813 111.799 22.3791C111.633 22.2769 111.438 22.2259 111.214 22.2259C110.971 22.2259 110.759 22.2856 110.578 22.4051C110.399 22.5227 110.259 22.677 110.161 22.8679C110.064 23.0568 110.016 23.2621 110.016 23.4838V23.9899C110.016 24.2868 110.068 24.5394 110.173 24.7475C110.279 24.9558 110.426 25.1148 110.615 25.2247C110.804 25.3327 111.025 25.3866 111.278 25.3866C111.442 25.3866 111.591 25.3635 111.726 25.3172C111.861 25.2691 111.978 25.1977 112.077 25.1032C112.175 25.0088 112.25 24.8922 112.303 24.7534L113.122 24.9008C113.056 25.1418 112.938 25.3529 112.768 25.5341C112.601 25.7134 112.389 25.8532 112.134 25.9535C111.882 26.0518 111.594 26.1009 111.269 26.1009ZM117.149 23.4173V24.1663H114.742V23.4173H117.149ZM114.984 21.5694V26.0113H114.137V21.5694H114.984ZM117.754 21.5694V26.0113H116.909V21.5694H117.754ZM119.563 23.0963H120.854C121.398 23.0963 121.817 23.2312 122.11 23.5012C122.403 23.7711 122.55 24.119 122.55 24.5451C122.55 24.8228 122.484 25.0724 122.353 25.2941C122.222 25.5158 122.03 25.6913 121.777 25.8205C121.524 25.9477 121.217 26.0113 120.854 26.0113H118.912V21.5694H119.76V25.2652H120.854C121.103 25.2652 121.307 25.2006 121.468 25.0714C121.628 24.9404 121.707 24.7736 121.707 24.5711C121.707 24.3571 121.628 24.1827 121.468 24.0477C121.307 23.9109 121.103 23.8424 120.854 23.8424H119.563V23.0963ZM123.181 26.0113V21.5694H124.046V26.0113H123.181ZM128.212 24.7996L130.171 21.5694H131.103V26.0113H130.255V22.7782L128.305 26.0113H127.364V21.5694H128.212V24.7996ZM135.28 23.4173V24.1663H132.871V23.4173H135.28ZM133.115 21.5694V26.0113H132.266V21.5694H133.115ZM135.884 21.5694V26.0113H135.039V21.5694H135.884ZM139.884 21.5694V22.3155H137.896V26.0113H137.042V21.5694H139.884ZM140.798 27.677V21.5694H141.643V22.2895H141.715C141.766 22.197 141.838 22.0899 141.933 21.9685C142.027 21.847 142.158 21.741 142.326 21.6504C142.494 21.5579 142.716 21.5116 142.992 21.5116C143.351 21.5116 143.671 21.6022 143.953 21.7834C144.234 21.9646 144.455 22.2259 144.616 22.5671C144.777 22.9083 144.858 23.3189 144.858 23.799C144.858 24.2791 144.779 24.6907 144.618 25.0338C144.458 25.3751 144.238 25.6383 143.958 25.8233C143.679 26.0065 143.359 26.098 143.001 26.098C142.731 26.098 142.509 26.0528 142.338 25.9621C142.168 25.8715 142.035 25.7655 141.938 25.644C141.842 25.5226 141.768 25.4146 141.715 25.3201H141.664V27.677H140.798ZM141.646 23.7903C141.646 24.1026 141.692 24.3764 141.782 24.6117C141.873 24.8468 142.004 25.0309 142.176 25.164C142.348 25.2951 142.558 25.3606 142.807 25.3606C143.065 25.3606 143.281 25.2922 143.455 25.1553C143.629 25.0165 143.76 24.8285 143.848 24.5914C143.939 24.3543 143.985 24.0872 143.985 23.7903C143.985 23.4973 143.94 23.2341 143.851 23.0009C143.765 22.7676 143.634 22.5835 143.458 22.4485C143.284 22.3136 143.067 22.2461 142.807 22.2461C142.556 22.2461 142.344 22.3107 142.17 22.4399C141.998 22.569 141.868 22.7493 141.779 22.9806C141.69 23.212 141.646 23.4819 141.646 23.7903ZM147.744 26.1009C147.306 26.1009 146.929 26.0075 146.612 25.8205C146.298 25.6315 146.055 25.3664 145.883 25.0252C145.713 24.682 145.628 24.2801 145.628 23.8192C145.628 23.3643 145.713 22.9633 145.883 22.6163C146.055 22.2693 146.294 21.9984 146.601 21.8036C146.91 21.6089 147.27 21.5116 147.683 21.5116C147.934 21.5116 148.177 21.553 148.413 21.6359C148.648 21.7188 148.859 21.8489 149.046 22.0263C149.234 22.2037 149.381 22.434 149.489 22.7175C149.597 22.999 149.651 23.3412 149.651 23.7441V24.0506H146.117V23.4028H148.803C148.803 23.1753 148.757 22.9739 148.664 22.7985C148.572 22.6211 148.441 22.4813 148.274 22.3791C148.108 22.2769 147.913 22.2259 147.689 22.2259C147.446 22.2259 147.233 22.2856 147.052 22.4051C146.873 22.5227 146.734 22.677 146.636 22.8679C146.539 23.0568 146.491 23.2621 146.491 23.4838V23.9899C146.491 24.2868 146.543 24.5394 146.647 24.7475C146.753 24.9558 146.901 25.1148 147.09 25.2247C147.279 25.3327 147.5 25.3866 147.753 25.3866C147.917 25.3866 148.066 25.3635 148.201 25.3172C148.336 25.2691 148.453 25.1977 148.551 25.1032C148.65 25.0088 148.725 24.8922 148.777 24.7534L149.596 24.9008C149.53 25.1418 149.413 25.3529 149.243 25.5341C149.075 25.7134 148.864 25.8532 148.61 25.9535C148.356 26.0518 148.068 26.1009 147.744 26.1009ZM150.177 27.2924V25.2623H150.539C150.632 25.1775 150.71 25.0763 150.773 24.9586C150.839 24.8411 150.894 24.7013 150.939 24.5394C150.985 24.3774 151.023 24.1884 151.054 23.9725C151.085 23.7547 151.112 23.506 151.135 23.2265L151.274 21.5694H154.296V25.2623H154.978V27.2924H154.133V26.0113H151.034V27.2924H150.177ZM151.465 25.2623H153.45V22.3097H152.05L151.957 23.2265C151.912 23.693 151.857 24.0979 151.789 24.441C151.722 24.7823 151.614 25.056 151.465 25.2623ZM156.672 24.7996L158.631 21.5694H159.563V26.0113H158.715V22.7782L156.765 26.0113H155.824V21.5694H156.672V24.7996ZM162.643 26.1009C162.205 26.1009 161.828 26.0075 161.511 25.8205C161.197 25.6315 160.953 25.3664 160.782 25.0252C160.612 24.682 160.527 24.2801 160.527 23.8192C160.527 23.3643 160.612 22.9633 160.782 22.6163C160.953 22.2693 161.193 21.9984 161.499 21.8036C161.808 21.6089 162.169 21.5116 162.582 21.5116C162.832 21.5116 163.076 21.553 163.311 21.6359C163.547 21.7188 163.758 21.8489 163.945 22.0263C164.132 22.2037 164.28 22.434 164.388 22.7175C164.496 22.999 164.55 23.3412 164.55 23.7441V24.0506H161.016V23.4028H163.702C163.702 23.1753 163.656 22.9739 163.563 22.7985C163.47 22.6211 163.34 22.4813 163.172 22.3791C163.007 22.2769 162.812 22.2259 162.587 22.2259C162.345 22.2259 162.132 22.2856 161.951 22.4051C161.771 22.5227 161.633 22.677 161.534 22.8679C161.438 23.0568 161.389 23.2621 161.389 23.4838V23.9899C161.389 24.2868 161.442 24.5394 161.546 24.7475C161.652 24.9558 161.8 25.1148 161.988 25.2247C162.178 25.3327 162.399 25.3866 162.651 25.3866C162.816 25.3866 162.965 25.3635 163.1 25.3172C163.235 25.2691 163.352 25.1977 163.45 25.1032C163.548 25.0088 163.624 24.8922 163.676 24.7534L164.495 24.9008C164.429 25.1418 164.312 25.3529 164.142 25.5341C163.974 25.7134 163.763 25.8532 163.508 25.9535C163.255 26.0518 162.967 26.1009 162.643 26.1009ZM168.523 23.4173V24.1663H166.115V23.4173H168.523ZM166.358 21.5694V26.0113H165.51V21.5694H166.358ZM169.128 21.5694V26.0113H168.282V21.5694H169.128ZM169.734 22.3155V21.5694H173.485V22.3155H172.035V26.0113H171.189V22.3155H169.734ZM176.065 26.1009C175.648 26.1009 175.285 26.0055 174.974 25.8146C174.663 25.6238 174.422 25.3568 174.251 25.0136C174.079 24.6704 173.993 24.2694 173.993 23.8106C173.993 23.3498 174.079 22.9469 174.251 22.6018C174.422 22.2567 174.663 21.9887 174.974 21.7979C175.285 21.607 175.648 21.5116 176.065 21.5116C176.482 21.5116 176.846 21.607 177.156 21.7979C177.467 21.9887 177.708 22.2567 177.88 22.6018C178.051 22.9469 178.138 23.3498 178.138 23.8106C178.138 24.2694 178.051 24.6704 177.88 25.0136C177.708 25.3568 177.467 25.6238 177.156 25.8146C176.846 26.0055 176.482 26.1009 176.065 26.1009ZM176.068 25.3751C176.338 25.3751 176.562 25.3037 176.74 25.1611C176.917 25.0184 177.048 24.8285 177.133 24.5914C177.22 24.3543 177.263 24.093 177.263 23.8077C177.263 23.5243 177.22 23.264 177.133 23.0269C177.048 22.7878 176.917 22.596 176.74 22.4514C176.562 22.3068 176.338 22.2345 176.068 22.2345C175.796 22.2345 175.57 22.3068 175.391 22.4514C175.214 22.596 175.081 22.7878 174.995 23.0269C174.91 23.264 174.867 23.5243 174.867 23.8077C174.867 24.093 174.91 24.3543 174.995 24.5914C175.081 24.8285 175.214 25.0184 175.391 25.1611C175.57 25.3037 175.796 25.3751 176.068 25.3751ZM179.103 26.0113V21.5694H180.947C181.449 21.5694 181.846 21.6764 182.139 21.8904C182.432 22.1025 182.579 22.3907 182.579 22.7551C182.579 23.0153 182.496 23.2216 182.33 23.3739C182.164 23.5262 181.945 23.6284 181.67 23.6805C181.869 23.7036 182.051 23.7634 182.218 23.8597C182.384 23.9542 182.516 24.0815 182.617 24.2415C182.719 24.4015 182.77 24.5924 182.77 24.8141C182.77 25.0493 182.71 25.2575 182.588 25.4387C182.466 25.618 182.29 25.7587 182.058 25.8609C181.829 25.9612 181.552 26.0113 181.227 26.0113H179.103ZM179.917 25.2883H181.227C181.442 25.2883 181.609 25.2373 181.731 25.1351C181.853 25.0329 181.913 24.8941 181.913 24.7186C181.913 24.5124 181.853 24.3504 181.731 24.2328C181.609 24.1133 181.442 24.0535 181.227 24.0535H179.917V25.2883ZM179.917 23.4202H180.956C181.117 23.4202 181.257 23.3971 181.372 23.3508C181.49 23.3045 181.58 23.239 181.641 23.1542C181.705 23.0674 181.737 22.9652 181.737 22.8476C181.737 22.676 181.666 22.542 181.526 22.4456C181.385 22.3492 181.192 22.301 180.947 22.301H179.917V23.4202Z" fill="#222222"/>
<path d="M261.142 18.1602H255.903C254.617 18.1602 253.574 19.2019 253.574 20.4869V25.722C253.574 27.007 254.617 28.0487 255.903 28.0487H261.142C262.428 28.0487 263.47 27.007 263.47 25.722V20.4869C263.47 19.2019 262.428 18.1602 261.142 18.1602Z" fill="#545454"/>
<path d="M258.537 25.7854C258.215 25.7854 257.929 25.7263 257.677 25.6082C257.427 25.49 257.228 25.3272 257.082 25.1196C256.934 24.9121 256.858 24.6743 256.852 24.4062H257.807C257.817 24.5865 257.893 24.7326 258.034 24.8447C258.175 24.9568 258.343 25.0128 258.537 25.0128C258.691 25.0128 258.828 24.9788 258.946 24.9106C259.066 24.8409 259.159 24.7447 259.225 24.6221C259.294 24.4978 259.328 24.3554 259.328 24.1949C259.328 24.0312 259.293 23.8874 259.224 23.7632C259.155 23.639 259.061 23.542 258.939 23.4723C258.818 23.4026 258.679 23.367 258.523 23.3655C258.387 23.3655 258.254 23.3936 258.125 23.4496C257.998 23.5056 257.899 23.5821 257.827 23.6791L256.952 23.5223L257.172 21.0684H260.019V21.8727H257.984L257.864 23.0383H257.891C257.973 22.9232 258.096 22.8278 258.261 22.752C258.427 22.6763 258.612 22.6384 258.816 22.6384C259.097 22.6384 259.347 22.7043 259.567 22.8361C259.787 22.9679 259.96 23.1489 260.088 23.3792C260.215 23.6079 260.278 23.8715 260.276 24.1699C260.278 24.4834 260.205 24.7622 260.058 25.006C259.912 25.2484 259.709 25.4393 259.446 25.5786C259.185 25.7165 258.883 25.7854 258.537 25.7854Z" fill="white"/>
<path d="M16.6523 41.1348V55.4131C16.6523 56.6981 17.6948 57.7398 18.9808 57.7398H26.1826" stroke="#D9D9D9"/>
<path d="M16.6523 55.4141V87.5902C16.6523 88.8751 17.6948 89.9169 18.9808 89.9169H26.1826" stroke="#D9D9D9"/>
<path d="M16.6523 87.5898V120.275C16.6523 121.56 17.6948 122.602 18.9808 122.602H26.1826" stroke="#D9D9D9"/>
<path d="M16.6523 120.275V152.716C16.6523 154.002 17.6948 155.043 18.9808 155.043H26.1826" stroke="#D9D9D9"/>
<path d="M263.47 45.498H35.4952C31.798 45.498 28.8008 48.4929 28.8008 52.1873V63.8209C28.8008 67.5153 31.798 70.5101 35.4952 70.5101H263.47C267.167 70.5101 270.164 67.5153 270.164 63.8209V52.1873C270.164 48.4929 267.167 45.498 263.47 45.498Z" fill="white"/>
<path d="M263.47 45.498H35.4952C31.798 45.498 28.8008 48.4929 28.8008 52.1873V63.8209C28.8008 67.5153 31.798 70.5101 35.4952 70.5101H263.47C267.167 70.5101 270.164 67.5153 270.164 63.8209V52.1873C270.164 48.4929 267.167 45.498 263.47 45.498Z" stroke="#F5F5F5"/>
<path d="M38.276 60.9945C37.8786 60.9945 37.5235 60.9264 37.211 60.7892C36.9004 60.6525 36.6544 60.4623 36.473 60.2197C36.2936 59.9748 36.1971 59.6915 36.1836 59.3693H37.0923C37.1039 59.545 37.1628 59.6974 37.2688 59.8265C37.3769 59.9533 37.5178 60.0516 37.6914 60.1214C37.865 60.1906 38.058 60.2255 38.2702 60.2255C38.5037 60.2255 38.7101 60.1848 38.8895 60.1039C39.0709 60.0231 39.2127 59.9102 39.315 59.7654C39.4172 59.6188 39.4684 59.4501 39.4684 59.2594C39.4684 59.0609 39.4172 58.8864 39.315 58.7361C39.2146 58.5838 39.0671 58.4643 38.8722 58.3775C38.6793 58.2907 38.4458 58.2474 38.1718 58.2474H37.6711V57.5186H38.1718C38.3918 57.5186 38.5847 57.4791 38.7506 57.4C38.9185 57.321 39.0497 57.2111 39.1442 57.0704C39.2387 56.9277 39.286 56.7609 39.286 56.5701C39.286 56.3869 39.2446 56.2279 39.1616 56.0929C39.0806 55.956 38.9648 55.849 38.8143 55.7719C38.6658 55.6948 38.4902 55.6562 38.2876 55.6562C38.0946 55.6562 37.9142 55.6919 37.7464 55.7632C37.5805 55.8326 37.4454 55.9329 37.3412 56.064C37.2371 56.1932 37.1811 56.3483 37.1734 56.5296H36.3081C36.3177 56.2096 36.4123 55.9281 36.5917 55.6852C36.773 55.4422 37.0122 55.2524 37.3094 55.1155C37.6065 54.9786 37.9364 54.9102 38.2991 54.9102C38.6793 54.9102 39.0072 54.9844 39.2832 55.1328C39.561 55.2793 39.7751 55.475 39.9256 55.7198C40.078 55.9647 40.1533 56.2327 40.1514 56.5238C40.1533 56.8554 40.0607 57.1369 39.8735 57.3682C39.6883 57.5996 39.4414 57.7548 39.1327 57.8338V57.8801C39.5262 57.9398 39.8311 58.096 40.0472 58.3486C40.2652 58.6011 40.3732 58.9144 40.3713 59.2884C40.3732 59.6142 40.2825 59.9062 40.0993 60.1644C39.9179 60.4227 39.67 60.6263 39.3555 60.7746C39.041 60.9212 38.6812 60.9945 38.276 60.9945ZM42.7705 61.0119C42.4888 61.0119 42.2341 60.9602 42.0064 60.8561C41.7788 60.7496 41.5984 60.5966 41.4653 60.3959C41.3341 60.1953 41.2685 59.9498 41.2685 59.6584C41.2685 59.4077 41.3167 59.2018 41.4132 59.0397C41.5096 58.8778 41.6399 58.7496 41.8039 58.6551C41.9679 58.5606 42.1511 58.4893 42.3537 58.4411C42.5563 58.3929 42.7628 58.3563 42.9731 58.3312C43.2393 58.3003 43.4554 58.2753 43.6214 58.256C43.7873 58.2348 43.9079 58.2011 43.9831 58.1548C44.0583 58.1086 44.096 58.0334 44.096 57.9292V57.909C44.096 57.6564 44.0246 57.4608 43.8818 57.322C43.741 57.1831 43.5307 57.1137 43.2509 57.1137C42.9596 57.1137 42.7299 57.1783 42.5621 57.3075C42.3962 57.4347 42.2814 57.5764 42.2177 57.7326L41.4045 57.5475C41.501 57.2776 41.6418 57.0597 41.827 56.894C42.0142 56.7262 42.2293 56.6048 42.4724 56.5296C42.7155 56.4525 42.9711 56.4139 43.2393 56.4139C43.4168 56.4139 43.6049 56.4351 43.8037 56.4775C44.0043 56.518 44.1915 56.5932 44.3651 56.7031C44.5407 56.813 44.6844 56.9701 44.7964 57.1744C44.9082 57.3769 44.9642 57.6401 44.9642 57.964V60.9136H44.1191V60.3064H44.0844C44.0284 60.4181 43.9445 60.528 43.8326 60.6362C43.7207 60.7438 43.577 60.8334 43.4014 60.9049C43.2258 60.9765 43.0155 61.0119 42.7705 61.0119ZM42.9586 60.318C43.1979 60.318 43.4024 60.2709 43.5722 60.1761C43.7439 60.0818 43.8741 59.9585 43.9628 59.8061C44.0535 59.652 44.0989 59.4868 44.0989 59.3117V58.739C44.068 58.7698 44.0082 58.7987 43.9195 58.8257C43.8326 58.8508 43.7332 58.8729 43.6214 58.8923C43.5095 58.9096 43.4004 58.926 43.2943 58.9414C43.1882 58.9549 43.0994 58.9665 43.0281 58.9761C42.8602 58.9973 42.7068 59.033 42.5679 59.0831C42.4309 59.1332 42.3209 59.2053 42.238 59.3001C42.157 59.3926 42.1164 59.5159 42.1164 59.67C42.1164 59.8841 42.1956 60.0464 42.3537 60.1557C42.5119 60.2639 42.7136 60.318 42.9586 60.318ZM48.6115 59.8439L50.0469 56.4717H50.7935L48.9327 60.9136H48.2902L46.4669 56.4717H47.2049L48.6115 59.8439ZM46.9647 56.4717V60.9136H46.1167V56.4717H46.9647ZM50.2813 60.9136V56.4717H51.1235V60.9136H50.2813ZM54.1927 61.0032C53.7547 61.0032 53.3775 60.9096 53.0611 60.7228C52.7466 60.5338 52.5035 60.2686 52.3317 59.9277C52.162 59.5845 52.0771 59.1826 52.0771 58.7216C52.0771 58.2666 52.162 57.8656 52.3317 57.5186C52.5035 57.1716 52.7427 56.9007 53.0495 56.706C53.3582 56.5113 53.719 56.4139 54.1319 56.4139C54.3827 56.4139 54.6258 56.4554 54.8612 56.5383C55.0966 56.6212 55.3078 56.7513 55.495 56.9286C55.6821 57.106 55.8297 57.3364 55.9377 57.6198C56.0458 57.9013 56.0998 58.2435 56.0998 58.6464V58.953H52.5662V58.3052H55.2519C55.2519 58.0777 55.2055 57.8762 55.1129 57.7008C55.0203 57.5234 54.8901 57.3836 54.7223 57.2815C54.5563 57.1793 54.3615 57.1282 54.1376 57.1282C53.8946 57.1282 53.6823 57.1879 53.501 57.3075C53.3215 57.4251 53.1826 57.5794 53.0842 57.7702C52.9877 57.9591 52.9395 58.1645 52.9395 58.3861V58.8923C52.9395 59.189 52.9916 59.4414 53.0958 59.6497C53.2019 59.8579 53.3495 60.0173 53.5386 60.1272C53.7277 60.2348 53.9486 60.2889 54.2013 60.2889C54.3653 60.2889 54.5149 60.2657 54.6499 60.2197C54.785 60.1714 54.9017 60.0999 55.0001 60.0056C55.0985 59.9114 55.1737 59.7945 55.2258 59.6555L56.0448 59.8032C55.9792 60.044 55.8615 60.2552 55.6918 60.4367C55.5239 60.6158 55.3127 60.7554 55.058 60.8561C54.8052 60.9544 54.5168 61.0032 54.1927 61.0032ZM60.0725 58.3197V59.0686H57.6648V58.3197H60.0725ZM57.9079 56.4717V60.9136H57.0599V56.4717H57.9079ZM60.6774 56.4717V60.9136H59.8327V56.4717H60.6774ZM64.4862 60.9136V57.2092H63.4209C63.1683 57.2092 62.9715 57.268 62.8306 57.3856C62.6898 57.5032 62.6193 57.6574 62.6193 57.8483C62.6193 58.0372 62.6839 58.1895 62.8132 58.3052C62.9447 58.4189 63.1281 58.4758 63.3633 58.4758H64.7377V59.1756H63.3633C63.035 59.1756 62.7515 59.1217 62.5122 59.0137C62.2753 58.9038 62.0919 58.7486 61.9627 58.5481C61.8352 58.3476 61.7717 58.1105 61.7717 57.8367C61.7717 57.5571 61.837 57.3161 61.9685 57.1137C62.1012 56.9094 62.2916 56.7513 62.5384 56.6395C62.7875 56.5277 63.0815 56.4717 63.4209 56.4717H65.2994V60.9136H64.4862ZM61.5692 60.9136L62.8219 58.6695H63.7079L62.4546 60.9136H61.5692ZM68.3672 61.0032C67.9288 61.0032 67.5516 60.9096 67.2355 60.7228C66.9212 60.5338 66.6779 60.2686 66.5061 59.9277C66.3362 59.5845 66.2517 59.1826 66.2517 58.7216C66.2517 58.2666 66.3362 57.8656 66.5061 57.5186C66.6779 57.1716 66.9171 56.9007 67.2239 56.706C67.5324 56.5113 67.8933 56.4139 68.306 56.4139C68.5569 56.4139 68.8003 56.4554 69.0354 56.5383C69.2712 56.6212 69.4819 56.7513 69.6694 56.9286C69.8562 57.106 70.0041 57.3364 70.1124 57.6198C70.2201 57.9013 70.2742 58.2435 70.2742 58.6464V58.953H66.7407V58.3052H69.4261C69.4261 58.0777 69.3801 57.8762 69.2875 57.7008C69.195 57.5234 69.0646 57.3836 68.8969 57.2815C68.731 57.1793 68.536 57.1282 68.3119 57.1282C68.0691 57.1282 67.8567 57.1879 67.6756 57.3075C67.4957 57.4251 67.3572 57.5794 67.2588 57.7702C67.1622 57.9591 67.1139 58.1645 67.1139 58.3861V58.8923C67.1139 59.189 67.1663 59.4414 67.2705 59.6497C67.3764 59.8579 67.5237 60.0173 67.7129 60.1272C67.9021 60.2348 68.1233 60.2889 68.3759 60.2889C68.5395 60.2889 68.6891 60.2657 68.8241 60.2197C68.9592 60.1714 69.0762 60.0999 69.1746 60.0056C69.273 59.9114 69.348 59.7945 69.4004 59.6555L70.2195 59.8032C70.1537 60.044 70.0361 60.2552 69.8661 60.4367C69.6985 60.6158 69.4872 60.7554 69.2322 60.8561C68.9796 60.9544 68.6914 61.0032 68.3672 61.0032ZM73.7291 59.8439L75.1646 56.4717H75.9109L74.0504 60.9136H73.4078L71.5846 56.4717H72.3227L73.7291 59.8439ZM72.0823 56.4717V60.9136H71.2341V56.4717H72.0823ZM75.3992 60.9136V56.4717H76.2409V60.9136H75.3992ZM82.2019 60.9136V57.2092H81.1372C80.8845 57.2092 80.6878 57.268 80.5469 57.3856C80.406 57.5032 80.3356 57.6574 80.3356 57.8483C80.3356 58.0372 80.4002 58.1895 80.5294 58.3052C80.6604 58.4189 80.8438 58.4758 81.0789 58.4758H82.4539V59.1756H81.0789C80.7512 59.1756 80.4677 59.1217 80.2285 59.0137C79.991 58.9038 79.8076 58.7486 79.6784 58.5481C79.5509 58.3476 79.4874 58.1105 79.4874 57.8367C79.4874 57.5571 79.5532 57.3161 79.6842 57.1137C79.8175 56.9094 80.0073 56.7513 80.2547 56.6395C80.5032 56.5277 80.7978 56.4717 81.1372 56.4717H83.0151V60.9136H82.2019ZM79.2848 60.9136L80.5381 58.6695H81.4235L80.1702 60.9136H79.2848ZM85.0152 59.702L86.9747 56.4717H87.906V60.9136H87.0585V57.6806L85.1078 60.9136H84.1671V56.4717H85.0152V59.702ZM86.6038 54.968H87.3158C87.3158 55.2938 87.1999 55.5589 86.9688 55.7632C86.7389 55.9657 86.4286 56.0669 86.0369 56.0669C85.6468 56.0669 85.3372 55.9657 85.1078 55.7632C84.8784 55.5589 84.7632 55.2938 84.7632 54.968H85.4722C85.4722 55.1126 85.5147 55.2408 85.5997 55.3526C85.6847 55.4625 85.8302 55.5174 86.0369 55.5174C86.2394 55.5174 86.3838 55.4625 86.4711 55.3526C86.5596 55.2427 86.6038 55.1145 86.6038 54.968ZM92.6957 56.4717V60.2052H93.3471V62.3451H92.4932V60.9136H89.0697V56.4717H89.9179V60.1674H91.8511V56.4717H92.6957ZM95.5999 61.0119C95.3188 61.0119 95.0638 60.9602 94.8362 60.8561C94.6086 60.7496 94.4281 60.5966 94.2948 60.3959C94.1638 60.1953 94.0981 59.9498 94.0981 59.6584C94.0981 59.4077 94.1464 59.2018 94.243 59.0397C94.3391 58.8778 94.4695 58.7496 94.6336 58.6551C94.7978 58.5606 94.9811 58.4893 95.1837 58.4411C95.3863 58.3929 95.5924 58.3563 95.8025 58.3312C96.0691 58.3003 96.2851 58.2753 96.451 58.256C96.6169 58.2348 96.7374 58.2011 96.8131 58.1548C96.8882 58.1086 96.9254 58.0334 96.9254 57.9292V57.909C96.9254 57.6564 96.8544 57.4608 96.7118 57.322C96.5709 57.1831 96.3602 57.1137 96.0808 57.1137C95.7891 57.1137 95.5598 57.1783 95.3915 57.3075C95.2256 57.4347 95.111 57.5764 95.0475 57.7326L94.2343 57.5475C94.3309 57.2776 94.4718 57.0597 94.6569 56.894C94.8438 56.7262 95.0591 56.6048 95.3019 56.5296C95.5452 56.4525 95.8008 56.4139 96.0691 56.4139C96.2467 56.4139 96.4347 56.4351 96.6332 56.4775C96.834 56.518 97.0215 56.5932 97.1949 56.7031C97.3702 56.813 97.5139 56.9701 97.6263 57.1744C97.7381 57.3769 97.7939 57.6401 97.7939 57.964V60.9136H96.9487V60.3064H96.9144C96.8579 60.4181 96.7741 60.528 96.6623 60.6362C96.5505 60.7438 96.4068 60.8334 96.231 60.9049C96.0557 60.9765 95.845 61.0119 95.5999 61.0119ZM95.7885 60.318C96.0278 60.318 96.2321 60.2709 96.4021 60.1761C96.5738 60.0818 96.7036 59.9585 96.7927 59.8061C96.8835 59.652 96.9283 59.4868 96.9283 59.3117V58.739C96.8975 58.7698 96.8381 58.7987 96.749 58.8257C96.6623 58.8508 96.5628 58.8729 96.451 58.8923C96.3392 58.9096 96.2304 58.926 96.1238 58.9414C96.0179 58.9549 95.9294 58.9665 95.8578 58.9761C95.6902 58.9973 95.5365 59.033 95.3974 59.0831C95.2606 59.1332 95.1505 59.2053 95.0679 59.3001C94.9864 59.3926 94.9462 59.5159 94.9462 59.67C94.9462 59.8841 95.0254 60.0464 95.1837 60.1557C95.3415 60.2639 95.5435 60.318 95.7885 60.318Z" fill="#545454"/>
<path d="M257.504 55.3867L260.123 58.0043L257.504 60.6218" stroke="#D9D9D9" stroke-width="2.25" stroke-linecap="round" stroke-linejoin="round"/>
<path d="M263.47 78.0723H35.4952C31.798 78.0723 28.8008 81.0672 28.8008 84.7615V96.3951C28.8008 100.089 31.798 103.084 35.4952 103.084H263.47C267.167 103.084 270.164 100.089 270.164 96.3951V84.7615C270.164 81.0672 267.167 78.0723 263.47 78.0723Z" fill="#FAFAFA"/>
<path d="M263.47 78.0723H35.4952C31.798 78.0723 28.8008 81.0672 28.8008 84.7615V96.3951C28.8008 100.089 31.798 103.084 35.4952 103.084H263.47C267.167 103.084 270.164 100.089 270.164 96.3951V84.7615C270.164 81.0672 267.167 78.0723 263.47 78.0723Z" stroke="#E9E9E9"/>
<path d="M38.5963 93.5668C38.1989 93.5668 37.8438 93.4987 37.5313 93.3614C37.2207 93.2247 36.9747 93.0345 36.7933 92.792C36.6139 92.5471 36.5174 92.2638 36.5039 91.9416H37.4127C37.4242 92.1172 37.483 92.2696 37.5892 92.3988C37.6972 92.5256 37.8381 92.6239 38.0117 92.6937C38.1854 92.7629 38.3783 92.7978 38.5905 92.7978C38.8239 92.7978 39.0304 92.7571 39.2098 92.6762C39.3912 92.5954 39.533 92.4825 39.6353 92.3377C39.7375 92.1911 39.7886 92.0224 39.7886 91.8316C39.7886 91.6333 39.7375 91.4588 39.6353 91.3081C39.535 91.1563 39.3873 91.0365 39.1925 90.9498C38.9996 90.8631 38.7661 90.8195 38.4921 90.8195H37.9915V90.0907H38.4921C38.7121 90.0907 38.905 90.0511 39.0709 89.9726C39.2388 89.8935 39.37 89.7835 39.4645 89.6428C39.559 89.4997 39.6063 89.3333 39.6063 89.1425C39.6063 88.9593 39.5649 88.7999 39.4819 88.665C39.4008 88.5283 39.2851 88.4212 39.1346 88.3445C38.9861 88.2671 38.8104 88.2287 38.6079 88.2287C38.415 88.2287 38.2346 88.2642 38.0667 88.3357C37.9008 88.405 37.7657 88.505 37.6615 88.6365C37.5573 88.7656 37.5014 88.9209 37.4937 89.1018H36.6284C36.638 88.7819 36.7325 88.5004 36.912 88.2572C37.0933 88.0147 37.3326 87.8244 37.6297 87.6878C37.9268 87.5511 38.2567 87.4824 38.6194 87.4824C38.9996 87.4824 39.3275 87.5569 39.6035 87.7052C39.8813 87.8518 40.0954 88.0472 40.246 88.2921C40.3984 88.537 40.4736 88.8052 40.4716 89.096C40.4736 89.4276 40.381 89.7091 40.1939 89.9406C40.0086 90.1721 39.7616 90.3268 39.4529 90.4059V90.4525C39.8466 90.5124 40.1514 90.6683 40.3675 90.9207C40.5855 91.1732 40.6935 91.4867 40.6916 91.8607C40.6935 92.1864 40.6029 92.4784 40.4195 92.7367C40.2382 92.995 39.9903 93.1986 39.6758 93.3469C39.3613 93.4935 39.0015 93.5668 38.5963 93.5668ZM43.0908 93.5842C42.8091 93.5842 42.5544 93.5324 42.3267 93.4283C42.0991 93.3219 41.9187 93.1689 41.7855 92.9682C41.6544 92.7675 41.5888 92.5221 41.5888 92.2306C41.5888 91.9799 41.637 91.774 41.7334 91.6117C41.83 91.45 41.9602 91.3221 42.1242 91.2273C42.2881 91.133 42.4715 91.0615 42.674 91.0132C42.8766 90.9649 43.0831 90.9283 43.2934 90.9033C43.5596 90.8724 43.7757 90.8474 43.9417 90.8282C44.1076 90.8073 44.2282 90.7736 44.3034 90.727C44.3787 90.6811 44.4163 90.6054 44.4163 90.5013V90.4816C44.4163 90.2285 44.3449 90.0331 44.2021 89.8941C44.0613 89.7556 43.851 89.6858 43.5712 89.6858C43.2798 89.6858 43.0503 89.7504 42.8824 89.8795C42.7165 90.0069 42.6017 90.1488 42.5381 90.3047L41.7248 90.1197C41.8213 89.8498 41.9621 89.6323 42.1473 89.4659C42.3345 89.2984 42.5496 89.1768 42.7927 89.1018C43.0358 89.0244 43.2914 88.9861 43.5596 88.9861C43.7371 88.9861 43.9252 89.0076 44.124 89.05C44.3246 89.0902 44.5118 89.1652 44.6854 89.2752C44.861 89.3851 45.0047 89.5421 45.1166 89.7469C45.2286 89.9493 45.2845 90.2122 45.2845 90.5362V93.4859H44.4394V92.8786H44.4047C44.3487 92.9903 44.2648 93.1003 44.1529 93.2084C44.041 93.3161 43.8972 93.4056 43.7217 93.4772C43.5461 93.5487 43.3358 93.5842 43.0908 93.5842ZM43.2789 92.8903C43.5182 92.8903 43.7227 92.8432 43.8925 92.7483C44.0641 92.6541 44.1944 92.5308 44.2831 92.3784C44.3738 92.2242 44.4192 92.0591 44.4192 91.884V91.311C44.3883 91.3418 44.3285 91.3709 44.2397 91.3983C44.1529 91.4233 44.0535 91.4454 43.9417 91.4646C43.8297 91.482 43.7207 91.4983 43.6146 91.5134C43.5085 91.5274 43.4197 91.5385 43.3484 91.5483C43.1805 91.5693 43.0271 91.6053 42.8882 91.6554C42.7512 91.7054 42.6413 91.7775 42.5583 91.8723C42.4772 91.9648 42.4367 92.0881 42.4367 92.2423C42.4367 92.4563 42.5158 92.6186 42.674 92.728C42.8323 92.8362 43.0339 92.8903 43.2789 92.8903ZM48.9317 92.4162L50.3672 89.0442H51.1139L49.253 93.4859H48.6105L46.7872 89.0442H47.5252L48.9317 92.4162ZM47.285 89.0442V93.4859H46.437V89.0442H47.285ZM50.6016 93.4859V89.0442H51.4438V93.4859H50.6016ZM54.513 93.5755C54.075 93.5755 53.6978 93.4818 53.3814 93.2951C53.0669 93.1061 52.8238 92.8408 52.6521 92.5C52.4823 92.1568 52.3974 91.7548 52.3974 91.2941C52.3974 90.8387 52.4823 90.4379 52.6521 90.0907C52.8238 89.744 53.063 89.4729 53.3698 89.2781C53.6785 89.0838 54.0393 88.9861 54.4521 88.9861C54.703 88.9861 54.9461 89.0274 55.1815 89.1105C55.4168 89.1937 55.6281 89.3234 55.8153 89.5008C56.0024 89.6783 56.15 89.9086 56.2581 90.1919C56.3661 90.4734 56.4201 90.816 56.4201 91.2185V91.5251H52.8865V90.8777H55.5722C55.5722 90.6502 55.5259 90.4484 55.4332 90.2733C55.3406 90.0959 55.2104 89.9557 55.0426 89.8539C54.8766 89.7515 54.6818 89.7004 54.458 89.7004C54.2149 89.7004 54.0026 89.7603 53.8212 89.8795C53.6418 89.9976 53.5029 90.1517 53.4045 90.3425C53.308 90.5316 53.2598 90.7369 53.2598 90.9585V91.4646C53.2598 91.7612 53.3119 92.0137 53.4161 92.2219C53.5222 92.4302 53.6698 92.5895 53.8589 92.6995C54.048 92.8071 54.2689 92.8612 54.5216 92.8612C54.6856 92.8612 54.8352 92.8379 54.9702 92.792C55.1053 92.7437 55.222 92.6721 55.3204 92.5779C55.4188 92.4837 55.494 92.3668 55.5461 92.2277L56.3652 92.3755C56.2996 92.6163 56.1819 92.8274 56.012 93.0089C55.8442 93.1881 55.633 93.3277 55.3783 93.4283C55.1255 93.5266 54.8371 93.5755 54.513 93.5755ZM60.393 90.8916V91.6408H57.9851V90.8916H60.393ZM58.2281 89.0442V93.4859H57.3803V89.0442H58.2281ZM60.9978 89.0442V93.4859H60.1526V89.0442H60.9978ZM64.8066 93.4859V89.7812H63.7413C63.4887 89.7812 63.2919 89.84 63.1511 89.958C63.0102 90.0755 62.9398 90.2297 62.9398 90.4205C62.9398 90.6095 63.0044 90.7619 63.1336 90.8777C63.2646 90.9911 63.4479 91.0481 63.6837 91.0481H65.0581V91.7479H63.6837C63.3554 91.7479 63.0719 91.6938 62.8326 91.5861C62.5951 91.4762 62.4118 91.3209 62.2825 91.1202C62.1556 90.9201 62.0916 90.6828 62.0916 90.4088C62.0916 90.1296 62.1574 89.8882 62.2884 89.6858C62.4217 89.4816 62.612 89.3234 62.8588 89.2117C63.1074 89.1001 63.402 89.0442 63.7413 89.0442H65.6198V93.4859H64.8066ZM61.889 93.4859L63.1423 91.2418H64.0277L62.775 93.4859H61.889ZM68.6876 93.5755C68.2493 93.5755 67.8721 93.4818 67.556 93.2951C67.241 93.1061 66.9983 92.8408 66.8266 92.5C66.6566 92.1568 66.5716 91.7548 66.5716 91.2941C66.5716 90.8387 66.6566 90.4379 66.8266 90.0907C66.9983 89.744 67.2375 89.4729 67.5443 89.2781C67.8528 89.0838 68.2138 88.9861 68.6265 88.9861C68.8774 88.9861 69.1207 89.0274 69.3559 89.1105C69.5911 89.1937 69.8024 89.3234 69.9898 89.5008C70.1767 89.6783 70.3245 89.9086 70.4322 90.1919C70.5405 90.4734 70.5946 90.816 70.5946 91.2185V91.5251H67.0612V90.8777H69.7465C69.7465 90.6502 69.7005 90.4484 69.6079 90.2733C69.5148 90.0959 69.385 89.9557 69.2168 89.8539C69.0508 89.7515 68.8564 89.7004 68.6323 89.7004C68.389 89.7004 68.1771 89.7603 67.9955 89.8795C67.8162 89.9976 67.677 90.1517 67.5787 90.3425C67.4826 90.5316 67.4343 90.7369 67.4343 90.9585V91.4646C67.4343 91.7612 67.4861 92.0137 67.5903 92.2219C67.6968 92.4302 67.8441 92.5895 68.0333 92.6995C68.2225 92.8071 68.4431 92.8612 68.6958 92.8612C68.8599 92.8612 69.0095 92.8379 69.1446 92.792C69.2796 92.7437 69.3966 92.6721 69.495 92.5779C69.5934 92.4837 69.6685 92.3668 69.7203 92.2277L70.5393 92.3755C70.4741 92.6163 70.3565 92.8274 70.1866 93.0089C70.0183 93.1881 69.8076 93.3277 69.5526 93.4283C69.3 93.5266 69.0113 93.5755 68.6876 93.5755ZM74.0495 92.4162L75.485 89.0442H76.2313L74.3709 93.4859H73.7282L71.905 89.0442H72.6425L74.0495 92.4162ZM72.4027 89.0442V93.4859H71.5546V89.0442H72.4027ZM75.719 93.4859V89.0442H76.5614V93.4859H75.719ZM82.7132 89.0442V89.7899H80.7253V93.4859H79.8713V89.0442H82.7132ZM82.9117 93.4859L82.9088 92.7367H83.0677C83.1917 92.7367 83.2948 92.7111 83.3774 92.6588C83.4624 92.6047 83.5323 92.5145 83.5858 92.3871C83.64 92.2597 83.6813 92.0841 83.7104 91.8607C83.7395 91.635 83.7605 91.3517 83.7738 91.0103L83.8524 89.0442H86.9546V93.4859H86.107V89.7899H84.654L84.5847 91.2994C84.5673 91.6658 84.5294 91.9858 84.4718 92.2597C84.4159 92.5337 84.3338 92.7617 84.2256 92.945C84.1173 93.1264 83.9788 93.2625 83.8088 93.3527C83.6388 93.4417 83.4327 93.4859 83.1894 93.4859H82.9117ZM90.346 90.9236V91.6757H87.9756V90.9236H90.346ZM88.6788 89.0442V93.4859H87.8138V89.0442H88.6788ZM91.7 93.5755C91.2873 93.5755 90.9264 93.4789 90.6178 93.2864C90.3093 93.0939 90.0701 92.8257 89.9001 92.4825C89.7301 92.1376 89.6457 91.7374 89.6457 91.2825C89.6457 90.8236 89.7301 90.4222 89.9001 90.079C90.0701 89.7341 90.3093 89.4659 90.6178 89.2752C90.9264 89.0826 91.2873 88.9861 91.7 88.9861C92.1151 88.9861 92.476 89.0826 92.7827 89.2752C93.0913 89.4659 93.3305 89.7341 93.5005 90.079C93.6722 90.4222 93.7578 90.8236 93.7578 91.2825C93.7578 91.7374 93.6722 92.1376 93.5005 92.4825C93.3305 92.8257 93.0913 93.0939 92.7827 93.2864C92.476 93.4789 92.1151 93.5755 91.7 93.5755ZM91.7 92.835C91.98 92.835 92.2088 92.7646 92.3863 92.6239C92.5656 92.4814 92.6978 92.2923 92.7827 92.0573C92.8677 91.8223 92.9102 91.5641 92.9102 91.2825C92.9102 90.9987 92.8677 90.7398 92.7827 90.5042C92.6978 90.2675 92.5656 90.0773 92.3863 89.9348C92.2088 89.7923 91.98 89.7207 91.7 89.7207C91.4223 89.7207 91.1936 89.7923 91.0143 89.9348C90.835 90.0773 90.7028 90.2675 90.6178 90.5042C90.5329 90.7398 90.4904 90.9987 90.4904 91.2825C90.4904 91.5641 90.5329 91.8223 90.6178 92.0573C90.7028 92.2923 90.835 92.4814 91.0143 92.6239C91.1936 92.7646 91.4223 92.835 91.7 92.835ZM94.2427 89.7899V89.0442H97.9933V89.7899H96.5432V93.4859H95.6986V89.7899H94.2427ZM100.618 93.5755C100.18 93.5755 99.8025 93.4818 99.4859 93.2951C99.1715 93.1061 98.9282 92.8408 98.7565 92.5C98.5871 92.1568 98.5021 91.7548 98.5021 91.2941C98.5021 90.8387 98.5871 90.4379 98.7565 90.0907C98.9282 89.744 99.1674 89.4729 99.4742 89.2781C99.7833 89.0838 100.144 88.9861 100.557 88.9861C100.808 88.9861 101.051 89.0274 101.286 89.1105C101.522 89.1937 101.733 89.3234 101.92 89.5008C102.107 89.6783 102.254 89.9086 102.363 90.1919C102.471 90.4734 102.525 90.816 102.525 91.2185V91.5251H98.9911V90.8777H101.677C101.677 90.6502 101.63 90.4484 101.538 90.2733C101.445 90.0959 101.315 89.9557 101.147 89.8539C100.981 89.7515 100.786 89.7004 100.563 89.7004C100.319 89.7004 100.107 89.7603 99.9259 89.8795C99.7467 89.9976 99.6075 90.1517 99.5091 90.3425C99.4125 90.5316 99.3642 90.7369 99.3642 90.9585V91.4646C99.3642 91.7612 99.4166 92.0137 99.5208 92.2219C99.6267 92.4302 99.7746 92.5895 99.9638 92.6995C100.152 92.8071 100.374 92.8612 100.626 92.8612C100.79 92.8612 100.94 92.8379 101.075 92.792C101.21 92.7437 101.327 92.6721 101.425 92.5779C101.523 92.4837 101.598 92.3668 101.651 92.2277L102.47 92.3755C102.404 92.6163 102.286 92.8274 102.116 93.0089C101.949 93.1881 101.738 93.3277 101.483 93.4283C101.23 93.5266 100.942 93.5755 100.618 93.5755ZM106.498 90.8916V91.6408H104.09V90.8916H106.498ZM104.333 89.0442V93.4859H103.485V89.0442H104.333ZM107.102 89.0442V93.4859H106.258V89.0442H107.102Z" fill="#545454"/>
<path d="M257.504 87.9609L260.123 90.5785L257.504 93.196" stroke="#8D8D8D" stroke-width="2.25" stroke-linecap="round" stroke-linejoin="round"/>
<path d="M263.47 110.646H35.4952C31.798 110.646 28.8008 113.641 28.8008 117.336V128.969C28.8008 132.664 31.798 135.659 35.4952 135.659H263.47C267.167 135.659 270.164 132.664 270.164 128.969V117.336C270.164 113.641 267.167 110.646 263.47 110.646Z" fill="white"/>
<path d="M263.47 110.646H35.4952C31.798 110.646 28.8008 113.641 28.8008 117.336V128.969C28.8008 132.664 31.798 135.659 35.4952 135.659H263.47C267.167 135.659 270.164 132.664 270.164 128.969V117.336C270.164 113.641 267.167 110.646 263.47 110.646Z" stroke="#F5F5F5"/>
<path d="M38.3307 126.141C37.9332 126.141 37.5783 126.073 37.2657 125.936C36.955 125.799 36.709 125.609 36.5277 125.366C36.3482 125.121 36.2518 124.838 36.2383 124.516H37.147C37.1586 124.691 37.2175 124.844 37.3236 124.973C37.4316 125.1 37.5724 125.198 37.7461 125.268C37.9197 125.337 38.1127 125.372 38.3249 125.372C38.5584 125.372 38.7648 125.331 38.9442 125.25C39.1256 125.17 39.2674 125.057 39.3697 124.912C39.4719 124.765 39.5231 124.597 39.5231 124.406C39.5231 124.207 39.4719 124.033 39.3697 123.882C39.2693 123.731 39.1218 123.611 38.9269 123.524C38.7339 123.437 38.5005 123.394 38.2265 123.394H37.7258V122.665H38.2265C38.4464 122.665 38.6394 122.625 38.8053 122.547C38.9732 122.468 39.1044 122.358 39.1989 122.217C39.2934 122.074 39.3408 121.908 39.3408 121.717C39.3408 121.534 39.2992 121.374 39.2163 121.239C39.1353 121.102 39.0195 120.995 38.869 120.919C38.7204 120.841 38.5449 120.803 38.3423 120.803C38.1493 120.803 37.9689 120.838 37.8011 120.91C37.6351 120.979 37.5001 121.079 37.3959 121.211C37.2917 121.34 37.2357 121.495 37.2281 121.676H36.3627C36.3724 121.356 36.4669 121.075 36.6463 120.831C36.8277 120.589 37.0669 120.399 37.3641 120.262C37.6612 120.125 37.9911 120.057 38.3538 120.057C38.7339 120.057 39.0619 120.131 39.3378 120.279C39.6157 120.426 39.8298 120.621 39.9803 120.866C40.1327 121.111 40.208 121.379 40.2061 121.67C40.208 122.002 40.1154 122.283 39.9282 122.515C39.743 122.746 39.4961 122.901 39.1874 122.98V123.027C39.5809 123.087 39.8858 123.242 40.1019 123.495C40.3199 123.747 40.4279 124.061 40.426 124.435C40.4279 124.761 40.3372 125.053 40.154 125.311C39.9726 125.569 39.7247 125.773 39.4102 125.921C39.0957 126.068 38.7359 126.141 38.3307 126.141ZM42.8252 126.158C42.5435 126.158 42.2888 126.107 42.0611 126.003C41.8334 125.896 41.6531 125.743 41.52 125.542C41.3888 125.342 41.3232 125.096 41.3232 124.805C41.3232 124.554 41.3714 124.348 41.4679 124.186C41.5643 124.024 41.6946 123.896 41.8585 123.801C42.0226 123.707 42.2058 123.636 42.4084 123.587C42.611 123.539 42.8175 123.502 43.0278 123.477C43.294 123.447 43.5101 123.422 43.676 123.402C43.8419 123.382 43.9626 123.348 44.0378 123.301C44.113 123.255 44.1506 123.18 44.1506 123.076V123.056C44.1506 122.803 44.0793 122.607 43.9365 122.468C43.7957 122.33 43.5853 122.26 43.3056 122.26C43.0143 122.26 42.7846 122.325 42.6168 122.454C42.4509 122.581 42.3361 122.723 42.2724 122.879L41.4592 122.694C41.5557 122.424 41.6965 122.207 41.8817 122.04C42.0689 121.873 42.284 121.751 42.5271 121.676C42.7702 121.599 43.0258 121.56 43.294 121.56C43.4715 121.56 43.6596 121.582 43.8584 121.624C44.059 121.664 44.2462 121.739 44.4198 121.849C44.5954 121.959 44.7391 122.116 44.851 122.321C44.9629 122.524 45.0189 122.786 45.0189 123.11V126.06H44.1738V125.453H44.1391C44.0831 125.565 43.9992 125.674 43.8873 125.783C43.7754 125.89 43.6317 125.98 43.4561 126.051C43.2805 126.123 43.0702 126.158 42.8252 126.158ZM43.0133 125.464C43.2525 125.464 43.457 125.417 43.6268 125.323C43.7986 125.228 43.9288 125.105 44.0175 124.953C44.1082 124.798 44.1535 124.633 44.1535 124.458V123.885C44.1227 123.916 44.0629 123.945 43.9741 123.972C43.8873 123.997 43.7879 124.02 43.676 124.039C43.5642 124.056 43.4551 124.073 43.349 124.088C43.2429 124.102 43.1542 124.113 43.0827 124.123C42.9149 124.144 42.7615 124.18 42.6226 124.23C42.4856 124.28 42.3756 124.352 42.2927 124.447C42.2117 124.539 42.1711 124.662 42.1711 124.817C42.1711 125.031 42.2503 125.193 42.4084 125.302C42.5666 125.41 42.7683 125.464 43.0133 125.464ZM48.6662 124.99L50.1016 121.618H50.8482L48.9874 126.06H48.3449L46.5216 121.618H47.2596L48.6662 124.99ZM47.0194 121.618V126.06H46.1714V121.618H47.0194ZM50.336 126.06V121.618H51.1782V126.06H50.336ZM54.2473 126.15C53.8094 126.15 53.4321 126.056 53.1158 125.869C52.8012 125.68 52.5582 125.415 52.3864 125.074C52.2167 124.731 52.1317 124.329 52.1317 123.868C52.1317 123.413 52.2167 123.012 52.3864 122.665C52.5582 122.318 52.7974 122.047 53.1042 121.852C53.4129 121.658 53.7737 121.56 54.1866 121.56C54.4374 121.56 54.6805 121.602 54.9159 121.685C55.1513 121.768 55.3625 121.898 55.5497 122.075C55.7368 122.252 55.8844 122.483 55.9924 122.766C56.1005 123.048 56.1545 123.39 56.1545 123.793V124.099H52.6208V123.452H55.3066C55.3066 123.224 55.2602 123.023 55.1676 122.848C55.075 122.67 54.9448 122.53 54.777 122.428C54.611 122.326 54.4162 122.275 54.1923 122.275C53.9492 122.275 53.737 122.334 53.5557 122.454C53.3762 122.572 53.2373 122.726 53.1389 122.917C53.0424 123.106 52.9942 123.311 52.9942 123.533V124.039C52.9942 124.335 53.0463 124.588 53.1505 124.796C53.2566 125.004 53.4042 125.164 53.5933 125.274C53.7823 125.381 54.0033 125.435 54.256 125.435C54.42 125.435 54.5696 125.412 54.7046 125.366C54.8397 125.318 54.9564 125.246 55.0548 125.152C55.1532 125.058 55.2284 124.941 55.2805 124.802L56.0995 124.95C56.0339 125.191 55.9162 125.402 55.7465 125.583C55.5786 125.762 55.3673 125.902 55.1127 126.003C54.8599 126.101 54.5715 126.15 54.2473 126.15ZM60.1274 123.466V124.215H57.7195V123.466H60.1274ZM57.9626 121.618V126.06H57.1146V121.618H57.9626ZM60.7322 121.618V126.06H59.887V121.618H60.7322ZM64.541 126.06V122.355H63.4758C63.2231 122.355 63.0264 122.414 62.8855 122.532C62.7446 122.65 62.6742 122.804 62.6742 122.995C62.6742 123.184 62.7388 123.336 62.868 123.452C62.999 123.565 63.1824 123.622 63.4181 123.622H64.7925V124.322H63.4181C63.0898 124.322 62.8063 124.268 62.5671 124.16C62.3296 124.05 62.1462 123.895 62.017 123.694C61.8901 123.494 61.826 123.257 61.826 122.983C61.826 122.704 61.8918 122.462 62.0228 122.26C62.1561 122.056 62.3459 121.898 62.5933 121.786C62.8418 121.674 63.1364 121.618 63.4758 121.618H65.3543V126.06H64.541ZM61.6235 126.06L62.8768 123.816H63.7622L62.5094 126.06H61.6235ZM68.4215 126.15C67.9837 126.15 67.6065 126.056 67.2904 125.869C66.9755 125.68 66.7327 125.415 66.561 125.074C66.391 124.731 66.306 124.329 66.306 123.868C66.306 123.413 66.391 123.012 66.561 122.665C66.7327 122.318 66.972 122.047 67.2788 121.852C67.5873 121.658 67.9482 121.56 68.3609 121.56C68.6118 121.56 68.8551 121.602 69.0903 121.685C69.3255 121.768 69.5368 121.898 69.7242 122.075C69.9111 122.252 70.059 122.483 70.1667 122.766C70.2749 123.048 70.3291 123.39 70.3291 123.793V124.099H66.795V123.452H69.4809C69.4809 123.224 69.4349 123.023 69.3418 122.848C69.2492 122.67 69.1194 122.53 68.9512 122.428C68.7853 122.326 68.5903 122.275 68.3667 122.275C68.1234 122.275 67.9115 122.334 67.7299 122.454C67.5506 122.572 67.4115 122.726 67.3131 122.917C67.2171 123.106 67.1687 123.311 67.1687 123.533V124.039C67.1687 124.335 67.2205 124.588 67.3247 124.796C67.4313 125.004 67.5785 125.164 67.7677 125.274C67.9569 125.381 68.1776 125.435 68.4302 125.435C68.5943 125.435 68.744 125.412 68.879 125.366C69.0141 125.318 69.1311 125.246 69.2294 125.152C69.3278 125.058 69.4029 124.941 69.4547 124.802L70.2738 124.95C70.2086 125.191 70.0904 125.402 69.921 125.583C69.7528 125.762 69.5415 125.902 69.2871 126.003C69.0344 126.101 68.7457 126.15 68.4215 126.15ZM73.784 124.99L75.2195 121.618H75.9657L74.1047 126.06H73.4626L71.6394 121.618H72.377L73.784 124.99ZM72.1371 121.618V126.06H71.289V121.618H72.1371ZM75.4535 126.06V121.618H76.2958V126.06H75.4535ZM81.4784 126.15C81.0482 126.15 80.6774 126.053 80.3672 125.858C80.0581 125.661 79.8211 125.39 79.6552 125.045C79.4893 124.7 79.4061 124.305 79.4061 123.86C79.4061 123.408 79.4911 123.01 79.661 122.665C79.8304 122.318 80.0697 122.047 80.3788 121.852C80.6873 121.658 81.0511 121.56 81.4697 121.56C81.8073 121.56 82.1083 121.623 82.3726 121.748C82.6368 121.871 82.8499 122.045 83.0123 122.269C83.1759 122.493 83.2737 122.754 83.3045 123.053H82.4622C82.4162 122.845 82.3097 122.665 82.1438 122.515C81.9802 122.364 81.7602 122.289 81.4842 122.289C81.2427 122.289 81.0319 122.353 80.8503 122.48C80.671 122.606 80.5307 122.785 80.4306 123.018C80.3305 123.249 80.2804 123.523 80.2804 123.839C80.2804 124.163 80.3293 124.442 80.4277 124.678C80.5261 124.913 80.6652 125.095 80.8445 125.224C81.0261 125.353 81.2392 125.418 81.4842 125.418C81.6478 125.418 81.7968 125.388 81.9296 125.328C82.0646 125.267 82.1775 125.179 82.2684 125.065C82.3609 124.951 82.4255 124.815 82.4622 124.655H83.3045C83.2737 124.942 83.18 125.198 83.024 125.424C82.8674 125.649 82.6584 125.827 82.3959 125.956C82.1351 126.085 81.8294 126.15 81.4784 126.15ZM85.5236 126.158C85.2418 126.158 84.9869 126.107 84.7593 126.003C84.5317 125.896 84.3512 125.743 84.2185 125.542C84.0869 125.342 84.0217 125.096 84.0217 124.805C84.0217 124.554 84.0694 124.348 84.1661 124.186C84.2627 124.024 84.3931 123.896 84.5567 123.801C84.7208 123.707 84.9042 123.636 85.1068 123.587C85.3094 123.539 85.516 123.502 85.7262 123.477C85.9922 123.447 86.2082 123.422 86.3746 123.402C86.5405 123.382 86.661 123.348 86.7361 123.301C86.8112 123.255 86.8491 123.18 86.8491 123.076V123.056C86.8491 122.803 86.7775 122.607 86.6348 122.468C86.494 122.33 86.2838 122.26 86.0038 122.26C85.7128 122.26 85.4828 122.325 85.3152 122.454C85.1493 122.581 85.0346 122.723 84.9706 122.879L84.1573 122.694C84.254 122.424 84.3949 122.207 84.58 122.04C84.7674 121.873 84.9822 121.751 85.2255 121.676C85.4683 121.599 85.7244 121.56 85.9922 121.56C86.1697 121.56 86.3578 121.582 86.5568 121.624C86.7571 121.664 86.9445 121.739 87.118 121.849C87.2938 121.959 87.4376 122.116 87.5494 122.321C87.6611 122.524 87.717 122.786 87.717 123.11V126.06H86.8723V125.453H86.8374C86.7815 125.565 86.6977 125.674 86.5854 125.783C86.4736 125.89 86.3298 125.98 86.1546 126.051C85.9788 126.123 85.7687 126.158 85.5236 126.158ZM85.7116 125.464C85.9509 125.464 86.1552 125.417 86.3252 125.323C86.4969 125.228 86.6273 125.105 86.7158 124.953C86.8066 124.798 86.852 124.633 86.852 124.458V123.885C86.8211 123.916 86.7612 123.945 86.6727 123.972C86.5854 123.997 86.4864 124.02 86.3746 124.039C86.2623 124.056 86.1534 124.073 86.0475 124.088C85.941 124.102 85.8525 124.113 85.7809 124.123C85.6132 124.144 85.4595 124.18 85.321 124.23C85.1842 124.28 85.0742 124.352 84.9909 124.447C84.91 124.539 84.8693 124.662 84.8693 124.817C84.8693 125.031 84.9484 125.193 85.1068 125.302C85.2651 125.41 85.4665 125.464 85.7116 125.464ZM89.553 121.618L90.5339 123.348L91.5235 121.618H92.47L91.084 123.839L92.4817 126.06H91.5351L90.5339 124.4L89.5356 126.06H88.5861L89.9692 123.839L88.6036 121.618H89.553ZM94.6442 126.158C94.3625 126.158 94.1075 126.107 93.8799 126.003C93.6523 125.896 93.4719 125.743 93.3391 125.542C93.2076 125.342 93.1424 125.096 93.1424 124.805C93.1424 124.554 93.1901 124.348 93.2867 124.186C93.3834 124.024 93.5138 123.896 93.6773 123.801C93.8415 123.707 94.0249 123.636 94.2274 123.587C94.43 123.539 94.6367 123.502 94.8468 123.477C95.1129 123.447 95.3288 123.422 95.4947 123.402C95.6612 123.382 95.7817 123.348 95.8568 123.301C95.9319 123.255 95.9697 123.18 95.9697 123.076V123.056C95.9697 122.803 95.8981 122.607 95.7555 122.468C95.6146 122.33 95.4045 122.26 95.1245 122.26C94.8334 122.26 94.6035 122.325 94.4358 122.454C94.2699 122.581 94.1553 122.723 94.0912 122.879L93.278 122.694C93.3746 122.424 93.5155 122.207 93.7006 122.04C93.8881 121.873 94.1029 121.751 94.3462 121.676C94.5889 121.599 94.8451 121.56 95.1129 121.56C95.2904 121.56 95.4784 121.582 95.6775 121.624C95.8778 121.664 96.0652 121.739 96.2387 121.849C96.4145 121.959 96.5583 122.116 96.67 122.321C96.7818 122.524 96.8377 122.786 96.8377 123.11V126.06H95.993V125.453H95.9581C95.9022 125.565 95.8184 125.674 95.706 125.783C95.5943 125.89 95.4505 125.98 95.2753 126.051C95.0995 126.123 94.8893 126.158 94.6442 126.158ZM94.8323 125.464C95.0715 125.464 95.2758 125.417 95.4458 125.323C95.6176 125.228 95.7479 125.105 95.8364 124.953C95.9272 124.798 95.9726 124.633 95.9726 124.458V123.885C95.9418 123.916 95.8818 123.945 95.7934 123.972C95.706 123.997 95.6071 124.02 95.4947 124.039C95.383 124.056 95.2741 124.073 95.1682 124.088C95.0616 124.102 94.9731 124.113 94.9015 124.123C94.7339 124.144 94.5802 124.18 94.4417 124.23C94.3043 124.28 94.1948 124.352 94.1116 124.447C94.0307 124.539 93.9899 124.662 93.9899 124.817C93.9899 125.031 94.0691 125.193 94.2274 125.302C94.3858 125.41 94.5872 125.464 94.8323 125.464ZM97.9903 127.726V121.618H98.8355V122.339H98.9077C98.9578 122.245 99.0305 122.139 99.1248 122.017C99.2191 121.896 99.3507 121.79 99.5183 121.699C99.6866 121.607 99.9084 121.56 100.184 121.56C100.543 121.56 100.863 121.651 101.145 121.832C101.427 122.013 101.648 122.275 101.808 122.616C101.97 122.957 102.051 123.368 102.051 123.848C102.051 124.328 101.971 124.74 101.811 125.083C101.651 125.424 101.431 125.687 101.151 125.872C100.871 126.055 100.552 126.147 100.193 126.147C99.9229 126.147 99.7017 126.101 99.53 126.011C99.36 125.921 99.2273 125.814 99.1307 125.693C99.034 125.572 98.9601 125.463 98.9077 125.369H98.8559V127.726H97.9903ZM98.8384 123.839C98.8384 124.152 98.8838 124.425 98.9746 124.661C99.0649 124.896 99.1964 125.08 99.3682 125.213C99.5399 125.344 99.75 125.409 99.9992 125.409C100.258 125.409 100.474 125.341 100.647 125.204C100.821 125.065 100.952 124.878 101.041 124.64C101.131 124.403 101.177 124.136 101.177 123.839C101.177 123.546 101.133 123.283 101.043 123.05C100.957 122.817 100.826 122.632 100.65 122.497C100.477 122.362 100.259 122.295 99.9992 122.295C99.7483 122.295 99.5358 122.359 99.3623 122.489C99.1906 122.618 99.0602 122.798 98.9717 123.03C98.8827 123.261 98.8384 123.531 98.8384 123.839Z" fill="#545454"/>
<path d="M257.504 120.535L260.123 123.153L257.504 125.77" stroke="#D9D9D9" stroke-width="2.25" stroke-linecap="round" stroke-linejoin="round"/>
<path d="M263.47 143.221H35.4952C31.798 143.221 28.8008 146.216 28.8008 149.91V161.544C28.8008 165.238 31.798 168.233 35.4952 168.233H263.47C267.167 168.233 270.164 165.238 270.164 161.544V149.91C270.164 146.216 267.167 143.221 263.47 143.221Z" fill="white"/>
<path d="M263.47 143.221H35.4952C31.798 143.221 28.8008 146.216 28.8008 149.91V161.544C28.8008 165.238 31.798 168.233 35.4952 168.233H263.47C267.167 168.233 270.164 165.238 270.164 161.544V149.91C270.164 146.216 267.167 143.221 263.47 143.221Z" stroke="#F5F5F5"/>
</g>
<g filter="url(#filter1_f_3111_50038)">
<rect width="387" height="151" transform="translate(-53.5 15.5254)" fill="url(#paint0_linear_3111_50038)"/>
</g>
</g>
<defs>
<filter id="filter0_d_3111_50038" x="-3.64844" y="-13" width="307.418" height="794.65" filterUnits="userSpaceOnUse" color-interpolation-filters="sRGB">
<feFlood flood-opacity="0" result="BackgroundImageFix"/>
<feColorMatrix in="SourceAlpha" type="matrix" values="0 0 0 0 0 0 0 0 0 0 0 0 0 0 0 0 0 0 127 0" result="hardAlpha"/>
<feOffset dx="10"/>
<feGaussianBlur stdDeviation="7"/>
<feComposite in2="hardAlpha" operator="out"/>
<feColorMatrix type="matrix" values="0 0 0 0 0 0 0 0 0 0 0 0 0 0 0 0 0 0 0.06 0"/>
<feBlend mode="normal" in2="BackgroundImageFix" result="effect1_dropShadow_3111_50038"/>
<feBlend mode="normal" in="SourceGraphic" in2="effect1_dropShadow_3111_50038" result="shape"/>
</filter>
<filter id="filter1_f_3111_50038" x="-78.5" y="-9.47461" width="437" height="201" filterUnits="userSpaceOnUse" color-interpolation-filters="sRGB">
<feFlood flood-opacity="0" result="BackgroundImageFix"/>
<feBlend mode="normal" in="SourceGraphic" in2="BackgroundImageFix" result="shape"/>
<feGaussianBlur stdDeviation="12.5" result="effect1_foregroundBlur_3111_50038"/>
</filter>
<linearGradient id="paint0_linear_3111_50038" x1="193.5" y1="62.8871" x2="193.5" y2="195.96" gradientUnits="userSpaceOnUse">
<stop stop-color="#222222" stop-opacity="0"/>
<stop offset="1" stop-color="#222222"/>
</linearGradient>
<clipPath id="clip0_3111_50038">
<rect width="280" height="152" fill="white" transform="translate(0.464844 0.5)"/>
</clipPath>
</defs>
</svg>
