<svg width="41" height="40" viewBox="0 0 41 40" fill="none" xmlns="http://www.w3.org/2000/svg">
<g id="Group 48098575">
<path id="Union" d="M10.1264 0C8.70837 0 7.34656 0.56533 6.33202 1.57518L2.13656 5.75122C1.09004 6.7929 0.5 8.22083 0.5 9.71179V34.4643C0.5 37.5216 2.93152 40 5.93095 40H31.6305C33.078 40 34.4657 39.411 35.4854 38.3637L38.9228 34.8331C39.9323 33.7963 40.4989 32.3947 40.4989 30.9339L40.5 5.53598C40.5001 2.47858 38.0686 0 35.069 0H10.1264Z" fill="#222222"/>
<path id="Vector" d="M29.4615 0.576172L6.90719 6.59344C5.89271 6.86409 5.26936 7.82314 5.5149 8.73554L10.9634 28.9817C11.209 29.8941 12.2304 30.4143 13.2449 30.1437L35.7992 24.1264C36.8137 23.8558 37.4371 22.8967 37.1915 21.9843L31.743 1.73816C31.4975 0.825756 30.476 0.305519 29.4615 0.576172Z" fill="#FF5A00"/>
<path id="Vector 1097" d="M34.217 33.4273L10.3718 39.8166C9.77706 39.976 9.28657 39.3368 9.59441 38.8036L12.1784 34.3279C12.545 33.693 13.1488 33.2297 13.8569 33.04L37.7021 26.6507C38.2968 26.4913 38.7873 27.1305 38.4795 27.6637L35.8955 32.1394C35.5289 32.7743 34.9251 33.2376 34.217 33.4273Z" fill="white"/>
<g id="Group 48098568">
<path id="Vector_2" fill-rule="evenodd" clip-rule="evenodd" d="M33.6327 14.0589L35.4255 20.4484L29.9777 21.9018C30.3844 21.1928 30.432 20.6297 31.1303 20.3809C32.3411 19.9328 33.1267 19.3854 33.4839 18.4144C33.6475 17.9705 33.5485 14.0188 33.6393 14.0446L33.6327 14.0589Z" fill="white"/>
<path id="Vector_3" fill-rule="evenodd" clip-rule="evenodd" d="M16.3939 25.5391L11.8067 26.7629C13.2289 24.2568 12.8651 25.2421 12.7828 21.2359C14.0985 24.8004 14.1762 24.1542 16.4037 25.5365L16.3939 25.5391Z" fill="white"/>
<path id="Vector_4" fill-rule="evenodd" clip-rule="evenodd" d="M7.28484 9.95428L12.0705 8.68905L18.5154 17.5145L19.0148 6.79744L24.6157 5.28952C24.3307 5.86603 23.3265 6.84724 23.2745 7.19892L23.3751 7.57239L26.6529 19.5078C27.2764 21.7058 27.8884 21.2922 29.2143 22.0892L21.9148 24.0631C22.4988 22.8063 23.2564 22.4664 22.8386 20.8765L19.9778 10.2559L19.2123 24.7721L9.37363 11.5984L7.2782 9.96856L7.28484 9.95428Z" fill="white"/>
</g>
</g>
</svg>
