<svg width="33" height="32" viewBox="0 0 33 32" fill="none" xmlns="http://www.w3.org/2000/svg">
<path d="M26.5 27L4.5 5" stroke="white" stroke-width="1.5" stroke-miterlimit="10" stroke-linecap="round"/>
<path d="M15.7081 6.17379C15.4586 6.0392 15.1759 5.97842 14.8932 5.99856C14.6104 6.01871 14.3392 6.11894 14.1112 6.28754L14.07 6.31942L12.2875 7.77879C12.2334 7.82304 12.1892 7.87812 12.1577 7.94049C12.1263 8.00286 12.1082 8.07114 12.1047 8.14092C12.1012 8.21071 12.1124 8.28044 12.1376 8.34563C12.1627 8.41083 12.2012 8.47003 12.2506 8.51942L15.6462 11.915C15.7162 11.9851 15.8053 12.0327 15.9023 12.0521C15.9994 12.0714 16.1 12.0615 16.1914 12.0236C16.2828 11.9857 16.3609 11.9216 16.4159 11.8393C16.4708 11.757 16.5001 11.6602 16.5 11.5613V7.53067C16.5028 7.25408 16.4307 6.98189 16.2912 6.74299C16.1518 6.50409 15.9503 6.3074 15.7081 6.17379ZM16.2081 20.9507L6.54312 11.2882C6.35568 11.1006 6.10142 10.9952 5.83625 10.995H4C3.60218 10.995 3.22064 11.1531 2.93934 11.4344C2.65804 11.7157 2.5 12.0972 2.5 12.495V19.495C2.5 19.8929 2.65804 20.2744 2.93934 20.5557C3.22064 20.837 3.60218 20.995 4 20.995H8.36L14.11 25.7019C14.3408 25.8732 14.6161 25.9743 14.9029 25.993C15.1897 26.0117 15.4758 25.9473 15.7269 25.8075C15.9641 25.6723 16.1608 25.4761 16.2968 25.2393C16.4327 25.0025 16.5029 24.7337 16.5 24.4607V21.6569C16.5 21.3921 16.3951 21.1382 16.2081 20.9507ZM22.5 15.995C22.5 14.46 22.1369 13.0032 21.3906 11.5407C21.3315 11.4228 21.2495 11.3178 21.1496 11.2317C21.0497 11.1456 20.9337 11.0801 20.8084 11.039C20.6831 10.998 20.5508 10.9821 20.4193 10.9923C20.2878 11.0025 20.1597 11.0387 20.0422 11.0986C19.9247 11.1586 19.8203 11.2412 19.7349 11.3417C19.6495 11.4423 19.5848 11.5587 19.5446 11.6843C19.5043 11.8099 19.4893 11.9422 19.5005 12.0736C19.5116 12.2051 19.5486 12.333 19.6094 12.45C20.2087 13.6238 20.5 14.7838 20.5 15.995C20.5 16.1617 20.4935 16.3311 20.4806 16.5032C20.4753 16.5749 20.4855 16.6469 20.5105 16.7143C20.5355 16.7817 20.5748 16.8429 20.6256 16.8938L21.5231 17.7913C21.5879 17.8563 21.6694 17.9021 21.7586 17.9239C21.8477 17.9456 21.9412 17.9424 22.0286 17.9146C22.1161 17.8868 22.1942 17.8354 22.2544 17.7662C22.3146 17.6969 22.3546 17.6124 22.37 17.5219C22.4561 17.0175 22.4996 16.5067 22.5 15.995ZM26.5 15.995C26.5 12.7963 25.6825 10.7519 24.3637 8.49129C24.2283 8.26591 24.0096 8.10294 23.7548 8.03767C23.5001 7.9724 23.2299 8.01008 23.0028 8.14255C22.7757 8.27502 22.6098 8.49162 22.5412 8.74546C22.4726 8.99929 22.5068 9.26994 22.6362 9.49879C23.8169 11.5225 24.5 13.2344 24.5 15.995C24.5 17.4844 24.2944 18.675 23.9144 19.7857C23.8838 19.8742 23.8788 19.9695 23.8998 20.0608C23.9208 20.1521 23.967 20.2356 24.0331 20.3019L24.8125 21.0825C24.8714 21.1415 24.9442 21.1848 25.0241 21.2086C25.104 21.2323 25.1886 21.2356 25.2702 21.2183C25.3517 21.2009 25.4277 21.1635 25.491 21.1093C25.5544 21.0552 25.6033 20.986 25.6331 20.9082C26.1875 19.48 26.5 17.9488 26.5 15.995Z" fill="white"/>
<path d="M30.4975 16.0007C30.4975 11.3601 29.2356 8.43137 27.3406 5.46262C27.1979 5.23885 26.9721 5.08093 26.713 5.02362C26.4538 4.9663 26.1825 5.01428 25.9587 5.157C25.7349 5.29972 25.577 5.52549 25.5197 5.78464C25.4624 6.04379 25.5104 6.3151 25.6531 6.53887C27.3612 9.212 28.4975 11.8445 28.4975 16.0007C28.4975 18.8876 27.9706 21.0176 27.0956 22.9089C27.0527 23.0016 27.0393 23.1051 27.057 23.2057C27.0748 23.3063 27.1229 23.399 27.195 23.4714L27.94 24.2164C27.9963 24.2736 28.0656 24.3165 28.142 24.3413C28.2184 24.3661 28.2996 24.3721 28.3788 24.3589C28.458 24.3456 28.5329 24.3135 28.5971 24.2652C28.6612 24.2169 28.7128 24.1538 28.7475 24.0814C29.9725 21.557 30.4975 19.0632 30.4975 16.0007Z" fill="white"/>
</svg>
