<svg width="866" height="660" viewBox="0 0 866 660" fill="none" xmlns="http://www.w3.org/2000/svg">
<ellipse cx="2.30905" cy="2.35066" rx="2.30905" ry="2.35066" transform="matrix(-0.999282 0.0378914 0.0378914 0.999282 822.207 174.733)" fill="#D9D9D9" fill-opacity="0.35"/>
<ellipse cx="2.30905" cy="2.35066" rx="2.30905" ry="2.35066" transform="matrix(-0.999282 0.0378914 0.0378914 0.999282 827.23 185.492)" fill="#D9D9D9" fill-opacity="0.35"/>
<ellipse cx="2.30905" cy="2.35066" rx="2.30905" ry="2.35066" transform="matrix(-0.999282 0.0378914 0.0378914 0.999282 832.949 197.211)" fill="#D9D9D9" fill-opacity="0.35"/>
<ellipse cx="2.30905" cy="2.35066" rx="2.30905" ry="2.35066" transform="matrix(-0.999282 0.0378914 0.0378914 0.999282 836.938 208.774)" fill="#D9D9D9" fill-opacity="0.35"/>
<ellipse cx="2.30905" cy="2.35066" rx="2.30905" ry="2.35066" transform="matrix(-0.999282 0.0378914 0.0378914 0.999282 842 220.619)" fill="#D9D9D9" fill-opacity="0.35"/>
<ellipse cx="2.30905" cy="2.35066" rx="2.30905" ry="2.35066" transform="matrix(-0.999282 0.0378914 0.0378914 0.999282 844.746 232.057)" fill="#D9D9D9" fill-opacity="0.35"/>
<ellipse cx="2.30905" cy="2.35066" rx="2.30905" ry="2.35066" transform="matrix(-0.999282 0.0378914 0.0378914 0.999282 847.523 244.111)" fill="#D9D9D9" fill-opacity="0.35"/>
<ellipse cx="2.30905" cy="2.35066" rx="2.30905" ry="2.35066" transform="matrix(-0.999282 0.0378914 0.0378914 0.999282 850.27 255.963)" fill="#D9D9D9" fill-opacity="0.35"/>
<ellipse cx="2.30905" cy="2.35066" rx="2.30905" ry="2.35066" transform="matrix(-0.999282 0.0378914 0.0378914 0.999282 852.293 268.674)" fill="#D9D9D9" fill-opacity="0.35"/>
<ellipse cx="2.30905" cy="2.35066" rx="2.30905" ry="2.35066" transform="matrix(-0.999282 0.0378914 0.0378914 0.999282 852.777 281.442)" fill="#D9D9D9" fill-opacity="0.35"/>
<ellipse cx="2.30905" cy="2.35066" rx="2.30905" ry="2.35066" transform="matrix(-0.999282 0.0378914 0.0378914 0.999282 853.258 294.207)" fill="#D9D9D9" fill-opacity="0.35"/>
<ellipse cx="2.30905" cy="2.35066" rx="2.30905" ry="2.35066" transform="matrix(-0.999282 0.0378914 0.0378914 0.999282 854.523 306.949)" fill="#D9D9D9" fill-opacity="0.35"/>
<ellipse cx="2.30905" cy="2.35066" rx="2.30905" ry="2.35066" transform="matrix(-0.999282 0.0378914 0.0378914 0.999282 854.168 318.074)" fill="#D9D9D9" fill-opacity="0.35"/>
<ellipse cx="2.30905" cy="2.35066" rx="2.30905" ry="2.35066" transform="matrix(-0.999282 0.0378914 0.0378914 0.999282 853.117 330.904)" fill="#D9D9D9" fill-opacity="0.35"/>
<ellipse cx="2.30905" cy="2.35066" rx="2.30905" ry="2.35066" transform="matrix(-0.999282 0.0378914 0.0378914 0.999282 851.25 342.471)" fill="#D9D9D9" fill-opacity="0.35"/>
<ellipse cx="2.30905" cy="2.35066" rx="2.30905" ry="2.35066" transform="matrix(-0.999282 0.0378914 0.0378914 0.999282 849.414 355.002)" fill="#D9D9D9" fill-opacity="0.35"/>
<ellipse cx="2.30905" cy="2.35066" rx="2.30905" ry="2.35066" transform="matrix(-0.999282 0.0378914 0.0378914 0.999282 847.562 367.34)" fill="#D9D9D9" fill-opacity="0.35"/>
<ellipse cx="2.30905" cy="2.35066" rx="2.30905" ry="2.35066" transform="matrix(-0.999282 0.0378914 0.0378914 0.999282 844.426 378.766)" fill="#D9D9D9" fill-opacity="0.35"/>
<ellipse cx="1.73178" cy="1.76299" rx="1.73178" ry="1.76299" transform="matrix(-0.999282 0.0378914 0.0378914 0.999282 841.547 390.645)" fill="#D9D9D9" fill-opacity="0.35"/>
<ellipse cx="1.73178" cy="1.76299" rx="1.73178" ry="1.76299" transform="matrix(-0.999282 0.0378914 0.0378914 0.999282 837.543 403.207)" fill="#D9D9D9" fill-opacity="0.35"/>
<ellipse cx="1.73178" cy="1.76299" rx="1.73178" ry="1.76299" transform="matrix(-0.999282 0.0378914 0.0378914 0.999282 833.199 415.254)" fill="#D9D9D9" fill-opacity="0.35"/>
<ellipse cx="1.73178" cy="1.76299" rx="1.73178" ry="1.76299" transform="matrix(-0.999282 0.0378914 0.0378914 0.999282 828.934 426.342)" fill="#D9D9D9" fill-opacity="0.35"/>
<ellipse cx="1.73178" cy="1.76299" rx="1.73178" ry="1.76299" transform="matrix(-0.999282 0.0378914 0.0378914 0.999282 823.25 438.438)" fill="#D9D9D9" fill-opacity="0.35"/>
<ellipse cx="1.73178" cy="1.76299" rx="1.73178" ry="1.76299" transform="matrix(-0.999282 0.0378914 0.0378914 0.999282 817.41 449.266)" fill="#D9D9D9" fill-opacity="0.35"/>
<ellipse cx="1.73178" cy="1.76299" rx="1.73178" ry="1.76299" transform="matrix(-0.999282 0.0378914 0.0378914 0.999282 811.316 459.043)" fill="#D9D9D9" fill-opacity="0.35"/>
<ellipse cx="1.73178" cy="1.76299" rx="1.73178" ry="1.76299" transform="matrix(-0.999282 0.0378914 0.0378914 0.999282 806.184 469.682)" fill="#D9D9D9" fill-opacity="0.35"/>
<ellipse cx="1.15452" cy="1.17533" rx="1.15452" ry="1.17533" transform="matrix(-0.999282 0.0378914 0.0378914 0.999282 798.445 480.244)" fill="#D9D9D9" fill-opacity="0.35"/>
<ellipse cx="1.15452" cy="1.17533" rx="1.15452" ry="1.17533" transform="matrix(-0.999282 0.0378914 0.0378914 0.999282 791.152 489.635)" fill="#D9D9D9" fill-opacity="0.35"/>
<ellipse cx="1.15452" cy="1.17533" rx="1.15452" ry="1.17533" transform="matrix(-0.999282 0.0378914 0.0378914 0.999282 782.91 499.727)" fill="#D9D9D9" fill-opacity="0.35"/>
<ellipse cx="1.15452" cy="1.17533" rx="1.15452" ry="1.17533" transform="matrix(-0.999282 0.0378914 0.0378914 0.999282 774.957 508.979)" fill="#D9D9D9" fill-opacity="0.35"/>
<ellipse cx="1.15452" cy="1.17533" rx="1.15452" ry="1.17533" transform="matrix(-0.999282 0.0378914 0.0378914 0.999282 766.348 518.088)" fill="#D9D9D9" fill-opacity="0.35"/>
<ellipse cx="1.15452" cy="1.17533" rx="1.15452" ry="1.17533" transform="matrix(-0.999282 0.0378914 0.0378914 0.999282 757.254 527.217)" fill="#D9D9D9" fill-opacity="0.35"/>
<ellipse cx="1.15452" cy="1.17533" rx="1.15452" ry="1.17533" transform="matrix(-0.999282 0.0378914 0.0378914 0.999282 748.402 534.184)" fill="#D9D9D9" fill-opacity="0.35"/>
<ellipse cx="1.15452" cy="1.17533" rx="1.15452" ry="1.17533" transform="matrix(-0.999282 0.0378914 0.0378914 0.999282 737.941 541.539)" fill="#D9D9D9" fill-opacity="0.35"/>
<ellipse cx="1.15452" cy="1.17533" rx="1.15452" ry="1.17533" transform="matrix(-0.999282 0.0378914 0.0378914 0.999282 727.801 549.053)" fill="#D9D9D9" fill-opacity="0.35"/>
<ellipse cx="1.15452" cy="1.17533" rx="1.15452" ry="1.17533" transform="matrix(-0.999282 0.0378914 0.0378914 0.999282 717.621 555.234)" fill="#D9D9D9" fill-opacity="0.35"/>
<ellipse cx="1.15452" cy="1.17533" rx="1.15452" ry="1.17533" transform="matrix(-0.999282 0.0378914 0.0378914 0.999282 706.812 562.108)" fill="#D9D9D9" fill-opacity="0.35"/>
<ellipse cx="1.15452" cy="1.17533" rx="1.15452" ry="1.17533" transform="matrix(-0.999282 0.0378914 0.0378914 0.999282 696.766 567.627)" fill="#D9D9D9" fill-opacity="0.35"/>
<ellipse cx="1.15452" cy="1.17533" rx="1.15452" ry="1.17533" transform="matrix(-0.999282 0.0378914 0.0378914 0.999282 685.273 573.531)" fill="#D9D9D9" fill-opacity="0.35"/>
<ellipse cx="1.15452" cy="1.17533" rx="1.15452" ry="1.17533" transform="matrix(-0.999282 0.0378914 0.0378914 0.999282 673.254 578.625)" fill="#D9D9D9" fill-opacity="0.35"/>
<ellipse cx="1.15452" cy="1.17533" rx="1.15452" ry="1.17533" transform="matrix(-0.999282 0.0378914 0.0378914 0.999282 662.68 583.006)" fill="#D9D9D9" fill-opacity="0.35"/>
<ellipse cx="1.15452" cy="1.17533" rx="1.15452" ry="1.17533" transform="matrix(-0.999282 0.0378914 0.0378914 0.999282 651.715 585.773)" fill="#D9D9D9" fill-opacity="0.35"/>
<ellipse cx="1.15452" cy="1.17533" rx="1.15452" ry="1.17533" transform="matrix(-0.999282 0.0378914 0.0378914 0.999282 640.594 588.549)" fill="#D9D9D9" fill-opacity="0.35"/>
<ellipse cx="1.15452" cy="1.17533" rx="1.15452" ry="1.17533" transform="matrix(-0.999282 0.0378914 0.0378914 0.999282 627.512 591.397)" fill="#D9D9D9" fill-opacity="0.35"/>
<ellipse cx="2.30905" cy="2.35066" rx="2.30905" ry="2.35066" transform="matrix(-0.999282 0.0378914 0.0378914 0.999282 822.207 174.733)" fill="#D9D9D9" fill-opacity="0.35"/>
<ellipse cx="2.30905" cy="2.35066" rx="2.30905" ry="2.35066" transform="matrix(-0.999282 0.0378914 0.0378914 0.999282 827.23 185.492)" fill="#D9D9D9" fill-opacity="0.35"/>
<ellipse cx="2.30905" cy="2.35066" rx="2.30905" ry="2.35066" transform="matrix(-0.999282 0.0378914 0.0378914 0.999282 832.949 197.211)" fill="#D9D9D9" fill-opacity="0.35"/>
<ellipse cx="2.30905" cy="2.35066" rx="2.30905" ry="2.35066" transform="matrix(-0.999282 0.0378914 0.0378914 0.999282 836.938 208.774)" fill="#D9D9D9" fill-opacity="0.35"/>
<ellipse cx="2.30905" cy="2.35066" rx="2.30905" ry="2.35066" transform="matrix(-0.999282 0.0378914 0.0378914 0.999282 842 220.619)" fill="#D9D9D9" fill-opacity="0.35"/>
<ellipse cx="2.30905" cy="2.35066" rx="2.30905" ry="2.35066" transform="matrix(-0.999282 0.0378914 0.0378914 0.999282 844.746 232.057)" fill="#D9D9D9" fill-opacity="0.35"/>
<ellipse cx="2.30905" cy="2.35066" rx="2.30905" ry="2.35066" transform="matrix(-0.999282 0.0378914 0.0378914 0.999282 847.523 244.111)" fill="#D9D9D9" fill-opacity="0.35"/>
<ellipse cx="2.30905" cy="2.35066" rx="2.30905" ry="2.35066" transform="matrix(-0.999282 0.0378914 0.0378914 0.999282 850.27 255.963)" fill="#D9D9D9" fill-opacity="0.35"/>
<ellipse cx="2.30905" cy="2.35066" rx="2.30905" ry="2.35066" transform="matrix(-0.999282 0.0378914 0.0378914 0.999282 852.293 268.674)" fill="#D9D9D9" fill-opacity="0.35"/>
<ellipse cx="2.30905" cy="2.35066" rx="2.30905" ry="2.35066" transform="matrix(-0.999282 0.0378914 0.0378914 0.999282 852.777 281.442)" fill="#D9D9D9" fill-opacity="0.35"/>
<ellipse cx="2.30905" cy="2.35066" rx="2.30905" ry="2.35066" transform="matrix(-0.999282 0.0378914 0.0378914 0.999282 853.258 294.207)" fill="#D9D9D9" fill-opacity="0.35"/>
<ellipse cx="2.30905" cy="2.35066" rx="2.30905" ry="2.35066" transform="matrix(-0.999282 0.0378914 0.0378914 0.999282 854.523 306.949)" fill="#D9D9D9" fill-opacity="0.35"/>
<ellipse cx="2.30905" cy="2.35066" rx="2.30905" ry="2.35066" transform="matrix(-0.999282 0.0378914 0.0378914 0.999282 854.168 318.074)" fill="#D9D9D9" fill-opacity="0.35"/>
<ellipse cx="2.30905" cy="2.35066" rx="2.30905" ry="2.35066" transform="matrix(-0.999282 0.0378914 0.0378914 0.999282 853.117 330.904)" fill="#D9D9D9" fill-opacity="0.35"/>
<ellipse cx="2.30905" cy="2.35066" rx="2.30905" ry="2.35066" transform="matrix(-0.999282 0.0378914 0.0378914 0.999282 851.25 342.471)" fill="#D9D9D9" fill-opacity="0.35"/>
<ellipse cx="2.30905" cy="2.35066" rx="2.30905" ry="2.35066" transform="matrix(-0.999282 0.0378914 0.0378914 0.999282 849.414 355.002)" fill="#D9D9D9" fill-opacity="0.35"/>
<ellipse cx="2.30905" cy="2.35066" rx="2.30905" ry="2.35066" transform="matrix(-0.999282 0.0378914 0.0378914 0.999282 847.562 367.34)" fill="#D9D9D9" fill-opacity="0.35"/>
<ellipse cx="2.30905" cy="2.35066" rx="2.30905" ry="2.35066" transform="matrix(-0.999282 0.0378914 0.0378914 0.999282 844.426 378.766)" fill="#D9D9D9" fill-opacity="0.35"/>
<ellipse cx="1.73178" cy="1.76299" rx="1.73178" ry="1.76299" transform="matrix(-0.999282 0.0378914 0.0378914 0.999282 841.547 390.645)" fill="#D9D9D9" fill-opacity="0.35"/>
<ellipse cx="1.73178" cy="1.76299" rx="1.73178" ry="1.76299" transform="matrix(-0.999282 0.0378914 0.0378914 0.999282 837.543 403.207)" fill="#D9D9D9" fill-opacity="0.35"/>
<ellipse cx="1.73178" cy="1.76299" rx="1.73178" ry="1.76299" transform="matrix(-0.999282 0.0378914 0.0378914 0.999282 833.199 415.254)" fill="#D9D9D9" fill-opacity="0.35"/>
<ellipse cx="1.73178" cy="1.76299" rx="1.73178" ry="1.76299" transform="matrix(-0.999282 0.0378914 0.0378914 0.999282 828.934 426.342)" fill="#D9D9D9" fill-opacity="0.35"/>
<ellipse cx="1.73178" cy="1.76299" rx="1.73178" ry="1.76299" transform="matrix(-0.999282 0.0378914 0.0378914 0.999282 823.25 438.438)" fill="#D9D9D9" fill-opacity="0.35"/>
<ellipse cx="1.73178" cy="1.76299" rx="1.73178" ry="1.76299" transform="matrix(-0.999282 0.0378914 0.0378914 0.999282 817.41 449.266)" fill="#D9D9D9" fill-opacity="0.35"/>
<ellipse cx="1.73178" cy="1.76299" rx="1.73178" ry="1.76299" transform="matrix(-0.999282 0.0378914 0.0378914 0.999282 811.316 459.043)" fill="#D9D9D9" fill-opacity="0.35"/>
<ellipse cx="1.73178" cy="1.76299" rx="1.73178" ry="1.76299" transform="matrix(-0.999282 0.0378914 0.0378914 0.999282 806.184 469.682)" fill="#D9D9D9" fill-opacity="0.35"/>
<ellipse cx="1.15452" cy="1.17533" rx="1.15452" ry="1.17533" transform="matrix(-0.999282 0.0378914 0.0378914 0.999282 798.445 480.244)" fill="#D9D9D9" fill-opacity="0.35"/>
<ellipse cx="1.15452" cy="1.17533" rx="1.15452" ry="1.17533" transform="matrix(-0.999282 0.0378914 0.0378914 0.999282 791.152 489.635)" fill="#D9D9D9" fill-opacity="0.35"/>
<ellipse cx="1.15452" cy="1.17533" rx="1.15452" ry="1.17533" transform="matrix(-0.999282 0.0378914 0.0378914 0.999282 782.91 499.727)" fill="#D9D9D9" fill-opacity="0.35"/>
<ellipse cx="1.15452" cy="1.17533" rx="1.15452" ry="1.17533" transform="matrix(-0.999282 0.0378914 0.0378914 0.999282 774.957 508.979)" fill="#D9D9D9" fill-opacity="0.35"/>
<ellipse cx="1.15452" cy="1.17533" rx="1.15452" ry="1.17533" transform="matrix(-0.999282 0.0378914 0.0378914 0.999282 766.348 518.088)" fill="#D9D9D9" fill-opacity="0.35"/>
<ellipse cx="1.15452" cy="1.17533" rx="1.15452" ry="1.17533" transform="matrix(-0.999282 0.0378914 0.0378914 0.999282 757.254 527.217)" fill="#D9D9D9" fill-opacity="0.35"/>
<ellipse cx="1.15452" cy="1.17533" rx="1.15452" ry="1.17533" transform="matrix(-0.999282 0.0378914 0.0378914 0.999282 748.402 534.184)" fill="#D9D9D9" fill-opacity="0.35"/>
<ellipse cx="1.15452" cy="1.17533" rx="1.15452" ry="1.17533" transform="matrix(-0.999282 0.0378914 0.0378914 0.999282 737.941 541.539)" fill="#D9D9D9" fill-opacity="0.35"/>
<ellipse cx="1.15452" cy="1.17533" rx="1.15452" ry="1.17533" transform="matrix(-0.999282 0.0378914 0.0378914 0.999282 727.801 549.053)" fill="#D9D9D9" fill-opacity="0.35"/>
<ellipse cx="1.15452" cy="1.17533" rx="1.15452" ry="1.17533" transform="matrix(-0.999282 0.0378914 0.0378914 0.999282 717.621 555.234)" fill="#D9D9D9" fill-opacity="0.35"/>
<ellipse cx="1.15452" cy="1.17533" rx="1.15452" ry="1.17533" transform="matrix(-0.999282 0.0378914 0.0378914 0.999282 706.812 562.108)" fill="#D9D9D9" fill-opacity="0.35"/>
<ellipse cx="1.15452" cy="1.17533" rx="1.15452" ry="1.17533" transform="matrix(-0.999282 0.0378914 0.0378914 0.999282 696.766 567.627)" fill="#D9D9D9" fill-opacity="0.35"/>
<ellipse cx="1.15452" cy="1.17533" rx="1.15452" ry="1.17533" transform="matrix(-0.999282 0.0378914 0.0378914 0.999282 685.273 573.531)" fill="#D9D9D9" fill-opacity="0.35"/>
<ellipse cx="1.15452" cy="1.17533" rx="1.15452" ry="1.17533" transform="matrix(-0.999282 0.0378914 0.0378914 0.999282 673.254 578.625)" fill="#D9D9D9" fill-opacity="0.35"/>
<ellipse cx="1.15452" cy="1.17533" rx="1.15452" ry="1.17533" transform="matrix(-0.999282 0.0378914 0.0378914 0.999282 662.68 583.006)" fill="#D9D9D9" fill-opacity="0.35"/>
<ellipse cx="1.15452" cy="1.17533" rx="1.15452" ry="1.17533" transform="matrix(-0.999282 0.0378914 0.0378914 0.999282 651.715 585.773)" fill="#D9D9D9" fill-opacity="0.35"/>
<ellipse cx="1.15452" cy="1.17533" rx="1.15452" ry="1.17533" transform="matrix(-0.999282 0.0378914 0.0378914 0.999282 640.594 588.549)" fill="#D9D9D9" fill-opacity="0.35"/>
<ellipse cx="1.15452" cy="1.17533" rx="1.15452" ry="1.17533" transform="matrix(-0.999282 0.0378914 0.0378914 0.999282 627.512 591.397)" fill="#D9D9D9" fill-opacity="0.35"/>
<ellipse cx="2.30905" cy="2.35066" rx="2.30905" ry="2.35066" transform="matrix(0.999282 -0.0378914 -0.0378914 -0.999282 76.2148 476.943)" fill="#D9D9D9" fill-opacity="0.35"/>
<ellipse cx="2.30905" cy="2.35066" rx="2.30905" ry="2.35066" transform="matrix(0.999282 -0.0378914 -0.0378914 -0.999282 71.1914 466.184)" fill="#D9D9D9" fill-opacity="0.35"/>
<ellipse cx="2.30905" cy="2.35066" rx="2.30905" ry="2.35066" transform="matrix(0.999282 -0.0378914 -0.0378914 -0.999282 65.4727 454.465)" fill="#D9D9D9" fill-opacity="0.35"/>
<ellipse cx="2.30905" cy="2.35066" rx="2.30905" ry="2.35066" transform="matrix(0.999282 -0.0378914 -0.0378914 -0.999282 61.4844 442.902)" fill="#D9D9D9" fill-opacity="0.35"/>
<ellipse cx="2.30905" cy="2.35066" rx="2.30905" ry="2.35066" transform="matrix(0.999282 -0.0378914 -0.0378914 -0.999282 56.4219 431.057)" fill="#D9D9D9" fill-opacity="0.35"/>
<ellipse cx="2.30905" cy="2.35066" rx="2.30905" ry="2.35066" transform="matrix(0.999282 -0.0378914 -0.0378914 -0.999282 53.6758 419.619)" fill="#D9D9D9" fill-opacity="0.35"/>
<ellipse cx="2.30905" cy="2.35066" rx="2.30905" ry="2.35066" transform="matrix(0.999282 -0.0378914 -0.0378914 -0.999282 50.8984 407.565)" fill="#D9D9D9" fill-opacity="0.35"/>
<ellipse cx="2.30905" cy="2.35066" rx="2.30905" ry="2.35066" transform="matrix(0.999282 -0.0378914 -0.0378914 -0.999282 48.1523 395.713)" fill="#D9D9D9" fill-opacity="0.35"/>
<ellipse cx="2.30905" cy="2.35066" rx="2.30905" ry="2.35066" transform="matrix(0.999282 -0.0378914 -0.0378914 -0.999282 46.1289 383.002)" fill="#D9D9D9" fill-opacity="0.35"/>
<ellipse cx="2.30905" cy="2.35066" rx="2.30905" ry="2.35066" transform="matrix(0.999282 -0.0378914 -0.0378914 -0.999282 45.6445 370.234)" fill="#D9D9D9" fill-opacity="0.35"/>
<ellipse cx="2.30905" cy="2.35066" rx="2.30905" ry="2.35066" transform="matrix(0.999282 -0.0378914 -0.0378914 -0.999282 45.1641 357.469)" fill="#D9D9D9" fill-opacity="0.35"/>
<ellipse cx="2.30905" cy="2.35066" rx="2.30905" ry="2.35066" transform="matrix(0.999282 -0.0378914 -0.0378914 -0.999282 43.8984 344.729)" fill="#D9D9D9" fill-opacity="0.35"/>
<ellipse cx="2.30905" cy="2.35066" rx="2.30905" ry="2.35066" transform="matrix(0.999282 -0.0378914 -0.0378914 -0.999282 44.2539 333.602)" fill="#D9D9D9" fill-opacity="0.35"/>
<ellipse cx="2.30905" cy="2.35066" rx="2.30905" ry="2.35066" transform="matrix(0.999282 -0.0378914 -0.0378914 -0.999282 45.3047 320.772)" fill="#D9D9D9" fill-opacity="0.35"/>
<ellipse cx="2.30905" cy="2.35066" rx="2.30905" ry="2.35066" transform="matrix(0.999282 -0.0378914 -0.0378914 -0.999282 47.1719 309.205)" fill="#D9D9D9" fill-opacity="0.35"/>
<ellipse cx="2.30905" cy="2.35066" rx="2.30905" ry="2.35066" transform="matrix(0.999282 -0.0378914 -0.0378914 -0.999282 49.0078 296.674)" fill="#D9D9D9" fill-opacity="0.35"/>
<ellipse cx="2.30905" cy="2.35066" rx="2.30905" ry="2.35066" transform="matrix(0.999282 -0.0378914 -0.0378914 -0.999282 50.8594 284.336)" fill="#D9D9D9" fill-opacity="0.35"/>
<ellipse cx="2.30905" cy="2.35066" rx="2.30905" ry="2.35066" transform="matrix(0.999282 -0.0378914 -0.0378914 -0.999282 53.9961 272.91)" fill="#D9D9D9" fill-opacity="0.35"/>
<ellipse cx="1.73178" cy="1.76299" rx="1.73178" ry="1.76299" transform="matrix(0.999282 -0.0378914 -0.0378914 -0.999282 56.875 261.031)" fill="#D9D9D9" fill-opacity="0.35"/>
<ellipse cx="1.73178" cy="1.76299" rx="1.73178" ry="1.76299" transform="matrix(0.999282 -0.0378914 -0.0378914 -0.999282 60.8789 248.469)" fill="#D9D9D9" fill-opacity="0.35"/>
<ellipse cx="1.73178" cy="1.76299" rx="1.73178" ry="1.76299" transform="matrix(0.999282 -0.0378914 -0.0378914 -0.999282 65.2227 236.422)" fill="#D9D9D9" fill-opacity="0.35"/>
<ellipse cx="1.73178" cy="1.76299" rx="1.73178" ry="1.76299" transform="matrix(0.999282 -0.0378914 -0.0378914 -0.999282 69.4883 225.334)" fill="#D9D9D9" fill-opacity="0.35"/>
<ellipse cx="1.73178" cy="1.76299" rx="1.73178" ry="1.76299" transform="matrix(0.999282 -0.0378914 -0.0378914 -0.999282 75.1719 213.238)" fill="#D9D9D9" fill-opacity="0.35"/>
<ellipse cx="1.73178" cy="1.76299" rx="1.73178" ry="1.76299" transform="matrix(0.999282 -0.0378914 -0.0378914 -0.999282 81.0117 202.41)" fill="#D9D9D9" fill-opacity="0.35"/>
<ellipse cx="1.73178" cy="1.76299" rx="1.73178" ry="1.76299" transform="matrix(0.999282 -0.0378914 -0.0378914 -0.999282 87.1055 192.633)" fill="#D9D9D9" fill-opacity="0.35"/>
<ellipse cx="1.73178" cy="1.76299" rx="1.73178" ry="1.76299" transform="matrix(0.999282 -0.0378914 -0.0378914 -0.999282 92.2383 181.994)" fill="#D9D9D9" fill-opacity="0.35"/>
<ellipse cx="1.15452" cy="1.17533" rx="1.15452" ry="1.17533" transform="matrix(0.999282 -0.0378914 -0.0378914 -0.999282 99.9766 171.432)" fill="#D9D9D9" fill-opacity="0.35"/>
<ellipse cx="1.15452" cy="1.17533" rx="1.15452" ry="1.17533" transform="matrix(0.999282 -0.0378914 -0.0378914 -0.999282 107.27 162.041)" fill="#D9D9D9" fill-opacity="0.35"/>
<ellipse cx="1.15452" cy="1.17533" rx="1.15452" ry="1.17533" transform="matrix(0.999282 -0.0378914 -0.0378914 -0.999282 115.508 151.949)" fill="#D9D9D9" fill-opacity="0.35"/>
<ellipse cx="1.15452" cy="1.17533" rx="1.15452" ry="1.17533" transform="matrix(0.999282 -0.0378914 -0.0378914 -0.999282 123.465 142.697)" fill="#D9D9D9" fill-opacity="0.35"/>
<ellipse cx="1.15452" cy="1.17533" rx="1.15452" ry="1.17533" transform="matrix(0.999282 -0.0378914 -0.0378914 -0.999282 132.074 133.588)" fill="#D9D9D9" fill-opacity="0.35"/>
<ellipse cx="1.15452" cy="1.17533" rx="1.15452" ry="1.17533" transform="matrix(0.999282 -0.0378914 -0.0378914 -0.999282 141.168 124.459)" fill="#D9D9D9" fill-opacity="0.35"/>
<ellipse cx="1.15452" cy="1.17533" rx="1.15452" ry="1.17533" transform="matrix(0.999282 -0.0378914 -0.0378914 -0.999282 150.02 117.492)" fill="#D9D9D9" fill-opacity="0.35"/>
<ellipse cx="1.15452" cy="1.17533" rx="1.15452" ry="1.17533" transform="matrix(0.999282 -0.0378914 -0.0378914 -0.999282 160.48 110.137)" fill="#D9D9D9" fill-opacity="0.35"/>
<ellipse cx="1.15452" cy="1.17533" rx="1.15452" ry="1.17533" transform="matrix(0.999282 -0.0378914 -0.0378914 -0.999282 170.621 102.623)" fill="#D9D9D9" fill-opacity="0.35"/>
<ellipse cx="1.15452" cy="1.17533" rx="1.15452" ry="1.17533" transform="matrix(0.999282 -0.0378914 -0.0378914 -0.999282 180.801 96.4415)" fill="#D9D9D9" fill-opacity="0.35"/>
<ellipse cx="1.15452" cy="1.17533" rx="1.15452" ry="1.17533" transform="matrix(0.999282 -0.0378914 -0.0378914 -0.999282 191.609 89.5685)" fill="#D9D9D9" fill-opacity="0.35"/>
<ellipse cx="1.15452" cy="1.17533" rx="1.15452" ry="1.17533" transform="matrix(0.999282 -0.0378914 -0.0378914 -0.999282 201.656 84.049)" fill="#D9D9D9" fill-opacity="0.35"/>
<ellipse cx="1.15452" cy="1.17533" rx="1.15452" ry="1.17533" transform="matrix(0.999282 -0.0378914 -0.0378914 -0.999282 213.148 78.1447)" fill="#D9D9D9" fill-opacity="0.35"/>
<ellipse cx="1.15452" cy="1.17533" rx="1.15452" ry="1.17533" transform="matrix(0.999282 -0.0378914 -0.0378914 -0.999282 225.168 73.0509)" fill="#D9D9D9" fill-opacity="0.35"/>
<ellipse cx="1.15452" cy="1.17533" rx="1.15452" ry="1.17533" transform="matrix(0.999282 -0.0378914 -0.0378914 -0.999282 235.742 68.6701)" fill="#D9D9D9" fill-opacity="0.35"/>
<ellipse cx="1.15452" cy="1.17533" rx="1.15452" ry="1.17533" transform="matrix(0.999282 -0.0378914 -0.0378914 -0.999282 246.707 65.9025)" fill="#D9D9D9" fill-opacity="0.35"/>
<ellipse cx="1.15452" cy="1.17533" rx="1.15452" ry="1.17533" transform="matrix(0.999282 -0.0378914 -0.0378914 -0.999282 257.828 63.1269)" fill="#D9D9D9" fill-opacity="0.35"/>
<ellipse cx="1.15452" cy="1.17533" rx="1.15452" ry="1.17533" transform="matrix(0.999282 -0.0378914 -0.0378914 -0.999282 270.91 60.2794)" fill="#D9D9D9" fill-opacity="0.35"/>
<ellipse cx="2.07028" cy="2.24332" rx="2.07028" ry="2.24332" transform="matrix(-0.999282 0.0378914 0.0378914 0.999282 787.125 176.822)" fill="#D9D9D9" fill-opacity="0.25"/>
<ellipse cx="2.07028" cy="2.24332" rx="2.07028" ry="2.24332" transform="matrix(-0.999282 0.0378914 0.0378914 0.999282 791.66 187.098)" fill="#D9D9D9" fill-opacity="0.25"/>
<ellipse cx="2.07028" cy="2.24332" rx="2.07028" ry="2.24332" transform="matrix(-0.999282 0.0378914 0.0378914 0.999282 796.809 198.299)" fill="#D9D9D9" fill-opacity="0.25"/>
<ellipse cx="2.07028" cy="2.24332" rx="2.07028" ry="2.24332" transform="matrix(-0.999282 0.0378914 0.0378914 0.999282 800.41 209.342)" fill="#D9D9D9" fill-opacity="0.25"/>
<ellipse cx="2.07028" cy="2.24332" rx="2.07028" ry="2.24332" transform="matrix(-0.999282 0.0378914 0.0378914 0.999282 804.988 220.653)" fill="#D9D9D9" fill-opacity="0.25"/>
<ellipse cx="2.07028" cy="2.24332" rx="2.07028" ry="2.24332" transform="matrix(-0.999282 0.0378914 0.0378914 0.999282 807.473 231.574)" fill="#D9D9D9" fill-opacity="0.25"/>
<ellipse cx="2.07028" cy="2.24332" rx="2.07028" ry="2.24332" transform="matrix(-0.999282 0.0378914 0.0378914 0.999282 809.977 243.084)" fill="#D9D9D9" fill-opacity="0.25"/>
<ellipse cx="2.07028" cy="2.24332" rx="2.07028" ry="2.24332" transform="matrix(-0.999282 0.0378914 0.0378914 0.999282 812.477 254.399)" fill="#D9D9D9" fill-opacity="0.25"/>
<ellipse cx="2.07028" cy="2.24332" rx="2.07028" ry="2.24332" transform="matrix(-0.999282 0.0378914 0.0378914 0.999282 814.312 266.533)" fill="#D9D9D9" fill-opacity="0.25"/>
<ellipse cx="2.07028" cy="2.24332" rx="2.07028" ry="2.24332" transform="matrix(-0.999282 0.0378914 0.0378914 0.999282 814.773 278.721)" fill="#D9D9D9" fill-opacity="0.25"/>
<ellipse cx="2.07028" cy="2.24332" rx="2.07028" ry="2.24332" transform="matrix(-0.999282 0.0378914 0.0378914 0.999282 815.238 290.905)" fill="#D9D9D9" fill-opacity="0.25"/>
<ellipse cx="2.07028" cy="2.24332" rx="2.07028" ry="2.24332" transform="matrix(-0.999282 0.0378914 0.0378914 0.999282 816.398 303.059)" fill="#D9D9D9" fill-opacity="0.25"/>
<ellipse cx="2.07028" cy="2.24332" rx="2.07028" ry="2.24332" transform="matrix(-0.999282 0.0378914 0.0378914 0.999282 816.098 313.68)" fill="#D9D9D9" fill-opacity="0.25"/>
<ellipse cx="2.07028" cy="2.24332" rx="2.07028" ry="2.24332" transform="matrix(-0.999282 0.0378914 0.0378914 0.999282 815.188 325.914)" fill="#D9D9D9" fill-opacity="0.25"/>
<ellipse cx="2.07028" cy="2.24332" rx="2.07028" ry="2.24332" transform="matrix(-0.999282 0.0378914 0.0378914 0.999282 813.539 336.951)" fill="#D9D9D9" fill-opacity="0.25"/>
<ellipse cx="2.07028" cy="2.24332" rx="2.07028" ry="2.24332" transform="matrix(-0.999282 0.0378914 0.0378914 0.999282 811.922 348.906)" fill="#D9D9D9" fill-opacity="0.25"/>
<ellipse cx="2.07028" cy="2.24332" rx="2.07028" ry="2.24332" transform="matrix(-0.999282 0.0378914 0.0378914 0.999282 810.301 360.674)" fill="#D9D9D9" fill-opacity="0.25"/>
<ellipse cx="2.07028" cy="2.24332" rx="2.07028" ry="2.24332" transform="matrix(-0.999282 0.0378914 0.0378914 0.999282 807.5 371.571)" fill="#D9D9D9" fill-opacity="0.25"/>
<ellipse cx="1.55271" cy="1.68249" rx="1.55271" ry="1.68249" transform="matrix(-0.999282 0.0378914 0.0378914 0.999282 804.949 382.899)" fill="#D9D9D9" fill-opacity="0.25"/>
<ellipse cx="1.55271" cy="1.68249" rx="1.55271" ry="1.68249" transform="matrix(-0.999282 0.0378914 0.0378914 0.999282 801.371 394.877)" fill="#D9D9D9" fill-opacity="0.25"/>
<ellipse cx="1.55271" cy="1.68249" rx="1.55271" ry="1.68249" transform="matrix(-0.999282 0.0378914 0.0378914 0.999282 797.52 406.364)" fill="#D9D9D9" fill-opacity="0.25"/>
<ellipse cx="1.55271" cy="1.68249" rx="1.55271" ry="1.68249" transform="matrix(-0.999282 0.0378914 0.0378914 0.999282 793.715 416.932)" fill="#D9D9D9" fill-opacity="0.25"/>
<ellipse cx="1.55271" cy="1.68249" rx="1.55271" ry="1.68249" transform="matrix(-0.999282 0.0378914 0.0378914 0.999282 788.637 428.467)" fill="#D9D9D9" fill-opacity="0.25"/>
<ellipse cx="1.55271" cy="1.68249" rx="1.55271" ry="1.68249" transform="matrix(-0.999282 0.0378914 0.0378914 0.999282 783.43 438.785)" fill="#D9D9D9" fill-opacity="0.25"/>
<ellipse cx="1.55271" cy="1.68249" rx="1.55271" ry="1.68249" transform="matrix(-0.999282 0.0378914 0.0378914 0.999282 777.992 448.106)" fill="#D9D9D9" fill-opacity="0.25"/>
<ellipse cx="1.55271" cy="1.68249" rx="1.55271" ry="1.68249" transform="matrix(-0.999282 0.0378914 0.0378914 0.999282 773.406 458.242)" fill="#D9D9D9" fill-opacity="0.25"/>
<ellipse cx="1.03514" cy="1.12166" rx="1.03514" ry="1.12166" transform="matrix(-0.999282 0.0378914 0.0378914 0.999282 766.496 468.309)" fill="#D9D9D9" fill-opacity="0.25"/>
<ellipse cx="1.03514" cy="1.12166" rx="1.03514" ry="1.12166" transform="matrix(-0.999282 0.0378914 0.0378914 0.999282 759.969 477.25)" fill="#D9D9D9" fill-opacity="0.25"/>
<ellipse cx="1.03514" cy="1.12166" rx="1.03514" ry="1.12166" transform="matrix(-0.999282 0.0378914 0.0378914 0.999282 752.605 486.865)" fill="#D9D9D9" fill-opacity="0.25"/>
<ellipse cx="1.03514" cy="1.12166" rx="1.03514" ry="1.12166" transform="matrix(-0.999282 0.0378914 0.0378914 0.999282 745.492 495.674)" fill="#D9D9D9" fill-opacity="0.25"/>
<ellipse cx="1.03514" cy="1.12166" rx="1.03514" ry="1.12166" transform="matrix(-0.999282 0.0378914 0.0378914 0.999282 737.801 504.354)" fill="#D9D9D9" fill-opacity="0.25"/>
<ellipse cx="1.03514" cy="1.12166" rx="1.03514" ry="1.12166" transform="matrix(-0.999282 0.0378914 0.0378914 0.999282 729.656 513.037)" fill="#D9D9D9" fill-opacity="0.25"/>
<ellipse cx="1.03514" cy="1.12166" rx="1.03514" ry="1.12166" transform="matrix(-0.999282 0.0378914 0.0378914 0.999282 721.742 519.672)" fill="#D9D9D9" fill-opacity="0.25"/>
<ellipse cx="1.03514" cy="1.12166" rx="1.03514" ry="1.12166" transform="matrix(-0.999282 0.0378914 0.0378914 0.999282 712.375 526.662)" fill="#D9D9D9" fill-opacity="0.25"/>
<ellipse cx="1.03514" cy="1.12166" rx="1.03514" ry="1.12166" transform="matrix(-0.999282 0.0378914 0.0378914 0.999282 703.301 533.809)" fill="#D9D9D9" fill-opacity="0.25"/>
<ellipse cx="1.03514" cy="1.12166" rx="1.03514" ry="1.12166" transform="matrix(-0.999282 0.0378914 0.0378914 0.999282 694.176 539.69)" fill="#D9D9D9" fill-opacity="0.25"/>
<ellipse cx="1.03514" cy="1.12166" rx="1.03514" ry="1.12166" transform="matrix(-0.999282 0.0378914 0.0378914 0.999282 684.504 546.223)" fill="#D9D9D9" fill-opacity="0.25"/>
<ellipse cx="1.03514" cy="1.12166" rx="1.03514" ry="1.12166" transform="matrix(-0.999282 0.0378914 0.0378914 0.999282 675.508 551.471)" fill="#D9D9D9" fill-opacity="0.25"/>
<ellipse cx="1.03514" cy="1.12166" rx="1.03514" ry="1.12166" transform="matrix(-0.999282 0.0378914 0.0378914 0.999282 665.219 557.076)" fill="#D9D9D9" fill-opacity="0.25"/>
<ellipse cx="1.03514" cy="1.12166" rx="1.03514" ry="1.12166" transform="matrix(-0.999282 0.0378914 0.0378914 0.999282 654.453 561.914)" fill="#D9D9D9" fill-opacity="0.25"/>
<ellipse cx="1.03514" cy="1.12166" rx="1.03514" ry="1.12166" transform="matrix(-0.999282 0.0378914 0.0378914 0.999282 644.98 566.073)" fill="#D9D9D9" fill-opacity="0.25"/>
<ellipse cx="1.03514" cy="1.12166" rx="1.03514" ry="1.12166" transform="matrix(-0.999282 0.0378914 0.0378914 0.999282 635.145 568.684)" fill="#D9D9D9" fill-opacity="0.25"/>
<ellipse cx="1.03514" cy="1.12166" rx="1.03514" ry="1.12166" transform="matrix(-0.999282 0.0378914 0.0378914 0.999282 625.18 571.309)" fill="#D9D9D9" fill-opacity="0.25"/>
<ellipse cx="1.03514" cy="1.12166" rx="1.03514" ry="1.12166" transform="matrix(-0.999282 0.0378914 0.0378914 0.999282 613.457 574)" fill="#D9D9D9" fill-opacity="0.25"/>
<ellipse cx="2.07028" cy="2.24332" rx="2.07028" ry="2.24332" transform="matrix(-0.999282 0.0378914 0.0378914 0.999282 787.125 176.822)" fill="#D9D9D9" fill-opacity="0.25"/>
<ellipse cx="2.07028" cy="2.24332" rx="2.07028" ry="2.24332" transform="matrix(-0.999282 0.0378914 0.0378914 0.999282 791.66 187.098)" fill="#D9D9D9" fill-opacity="0.25"/>
<ellipse cx="2.07028" cy="2.24332" rx="2.07028" ry="2.24332" transform="matrix(-0.999282 0.0378914 0.0378914 0.999282 796.809 198.299)" fill="#D9D9D9" fill-opacity="0.25"/>
<ellipse cx="2.07028" cy="2.24332" rx="2.07028" ry="2.24332" transform="matrix(-0.999282 0.0378914 0.0378914 0.999282 800.41 209.342)" fill="#D9D9D9" fill-opacity="0.25"/>
<ellipse cx="2.07028" cy="2.24332" rx="2.07028" ry="2.24332" transform="matrix(-0.999282 0.0378914 0.0378914 0.999282 804.988 220.653)" fill="#D9D9D9" fill-opacity="0.25"/>
<ellipse cx="2.07028" cy="2.24332" rx="2.07028" ry="2.24332" transform="matrix(-0.999282 0.0378914 0.0378914 0.999282 807.473 231.574)" fill="#D9D9D9" fill-opacity="0.25"/>
<ellipse cx="2.07028" cy="2.24332" rx="2.07028" ry="2.24332" transform="matrix(-0.999282 0.0378914 0.0378914 0.999282 809.977 243.084)" fill="#D9D9D9" fill-opacity="0.25"/>
<ellipse cx="2.07028" cy="2.24332" rx="2.07028" ry="2.24332" transform="matrix(-0.999282 0.0378914 0.0378914 0.999282 812.477 254.399)" fill="#D9D9D9" fill-opacity="0.25"/>
<ellipse cx="2.07028" cy="2.24332" rx="2.07028" ry="2.24332" transform="matrix(-0.999282 0.0378914 0.0378914 0.999282 814.312 266.533)" fill="#D9D9D9" fill-opacity="0.25"/>
<ellipse cx="2.07028" cy="2.24332" rx="2.07028" ry="2.24332" transform="matrix(-0.999282 0.0378914 0.0378914 0.999282 814.773 278.721)" fill="#D9D9D9" fill-opacity="0.25"/>
<ellipse cx="2.07028" cy="2.24332" rx="2.07028" ry="2.24332" transform="matrix(-0.999282 0.0378914 0.0378914 0.999282 815.238 290.905)" fill="#D9D9D9" fill-opacity="0.25"/>
<ellipse cx="2.07028" cy="2.24332" rx="2.07028" ry="2.24332" transform="matrix(-0.999282 0.0378914 0.0378914 0.999282 816.398 303.059)" fill="#D9D9D9" fill-opacity="0.25"/>
<ellipse cx="2.07028" cy="2.24332" rx="2.07028" ry="2.24332" transform="matrix(-0.999282 0.0378914 0.0378914 0.999282 816.098 313.68)" fill="#D9D9D9" fill-opacity="0.25"/>
<ellipse cx="2.07028" cy="2.24332" rx="2.07028" ry="2.24332" transform="matrix(-0.999282 0.0378914 0.0378914 0.999282 815.188 325.914)" fill="#D9D9D9" fill-opacity="0.25"/>
<ellipse cx="2.07028" cy="2.24332" rx="2.07028" ry="2.24332" transform="matrix(-0.999282 0.0378914 0.0378914 0.999282 813.539 336.951)" fill="#D9D9D9" fill-opacity="0.25"/>
<ellipse cx="2.07028" cy="2.24332" rx="2.07028" ry="2.24332" transform="matrix(-0.999282 0.0378914 0.0378914 0.999282 811.922 348.906)" fill="#D9D9D9" fill-opacity="0.25"/>
<ellipse cx="2.07028" cy="2.24332" rx="2.07028" ry="2.24332" transform="matrix(-0.999282 0.0378914 0.0378914 0.999282 810.301 360.674)" fill="#D9D9D9" fill-opacity="0.25"/>
<ellipse cx="2.07028" cy="2.24332" rx="2.07028" ry="2.24332" transform="matrix(-0.999282 0.0378914 0.0378914 0.999282 807.5 371.571)" fill="#D9D9D9" fill-opacity="0.25"/>
<ellipse cx="1.55271" cy="1.68249" rx="1.55271" ry="1.68249" transform="matrix(-0.999282 0.0378914 0.0378914 0.999282 804.949 382.899)" fill="#D9D9D9" fill-opacity="0.25"/>
<ellipse cx="1.55271" cy="1.68249" rx="1.55271" ry="1.68249" transform="matrix(-0.999282 0.0378914 0.0378914 0.999282 801.371 394.877)" fill="#D9D9D9" fill-opacity="0.25"/>
<ellipse cx="1.55271" cy="1.68249" rx="1.55271" ry="1.68249" transform="matrix(-0.999282 0.0378914 0.0378914 0.999282 797.52 406.364)" fill="#D9D9D9" fill-opacity="0.25"/>
<ellipse cx="1.55271" cy="1.68249" rx="1.55271" ry="1.68249" transform="matrix(-0.999282 0.0378914 0.0378914 0.999282 793.715 416.932)" fill="#D9D9D9" fill-opacity="0.25"/>
<ellipse cx="1.55271" cy="1.68249" rx="1.55271" ry="1.68249" transform="matrix(-0.999282 0.0378914 0.0378914 0.999282 788.637 428.467)" fill="#D9D9D9" fill-opacity="0.25"/>
<ellipse cx="1.55271" cy="1.68249" rx="1.55271" ry="1.68249" transform="matrix(-0.999282 0.0378914 0.0378914 0.999282 783.43 438.785)" fill="#D9D9D9" fill-opacity="0.25"/>
<ellipse cx="1.55271" cy="1.68249" rx="1.55271" ry="1.68249" transform="matrix(-0.999282 0.0378914 0.0378914 0.999282 777.992 448.106)" fill="#D9D9D9" fill-opacity="0.25"/>
<ellipse cx="1.55271" cy="1.68249" rx="1.55271" ry="1.68249" transform="matrix(-0.999282 0.0378914 0.0378914 0.999282 773.406 458.242)" fill="#D9D9D9" fill-opacity="0.25"/>
<ellipse cx="1.03514" cy="1.12166" rx="1.03514" ry="1.12166" transform="matrix(-0.999282 0.0378914 0.0378914 0.999282 766.496 468.309)" fill="#D9D9D9" fill-opacity="0.25"/>
<ellipse cx="1.03514" cy="1.12166" rx="1.03514" ry="1.12166" transform="matrix(-0.999282 0.0378914 0.0378914 0.999282 759.969 477.25)" fill="#D9D9D9" fill-opacity="0.25"/>
<ellipse cx="1.03514" cy="1.12166" rx="1.03514" ry="1.12166" transform="matrix(-0.999282 0.0378914 0.0378914 0.999282 752.605 486.865)" fill="#D9D9D9" fill-opacity="0.25"/>
<ellipse cx="1.03514" cy="1.12166" rx="1.03514" ry="1.12166" transform="matrix(-0.999282 0.0378914 0.0378914 0.999282 745.492 495.674)" fill="#D9D9D9" fill-opacity="0.25"/>
<ellipse cx="1.03514" cy="1.12166" rx="1.03514" ry="1.12166" transform="matrix(-0.999282 0.0378914 0.0378914 0.999282 737.801 504.354)" fill="#D9D9D9" fill-opacity="0.25"/>
<ellipse cx="1.03514" cy="1.12166" rx="1.03514" ry="1.12166" transform="matrix(-0.999282 0.0378914 0.0378914 0.999282 729.656 513.037)" fill="#D9D9D9" fill-opacity="0.25"/>
<ellipse cx="1.03514" cy="1.12166" rx="1.03514" ry="1.12166" transform="matrix(-0.999282 0.0378914 0.0378914 0.999282 721.742 519.672)" fill="#D9D9D9" fill-opacity="0.25"/>
<ellipse cx="1.03514" cy="1.12166" rx="1.03514" ry="1.12166" transform="matrix(-0.999282 0.0378914 0.0378914 0.999282 712.375 526.662)" fill="#D9D9D9" fill-opacity="0.25"/>
<ellipse cx="1.03514" cy="1.12166" rx="1.03514" ry="1.12166" transform="matrix(-0.999282 0.0378914 0.0378914 0.999282 703.301 533.809)" fill="#D9D9D9" fill-opacity="0.25"/>
<ellipse cx="1.03514" cy="1.12166" rx="1.03514" ry="1.12166" transform="matrix(-0.999282 0.0378914 0.0378914 0.999282 694.176 539.69)" fill="#D9D9D9" fill-opacity="0.25"/>
<ellipse cx="1.03514" cy="1.12166" rx="1.03514" ry="1.12166" transform="matrix(-0.999282 0.0378914 0.0378914 0.999282 684.504 546.223)" fill="#D9D9D9" fill-opacity="0.25"/>
<ellipse cx="1.03514" cy="1.12166" rx="1.03514" ry="1.12166" transform="matrix(-0.999282 0.0378914 0.0378914 0.999282 675.508 551.471)" fill="#D9D9D9" fill-opacity="0.25"/>
<ellipse cx="1.03514" cy="1.12166" rx="1.03514" ry="1.12166" transform="matrix(-0.999282 0.0378914 0.0378914 0.999282 665.219 557.076)" fill="#D9D9D9" fill-opacity="0.25"/>
<ellipse cx="1.03514" cy="1.12166" rx="1.03514" ry="1.12166" transform="matrix(-0.999282 0.0378914 0.0378914 0.999282 654.453 561.914)" fill="#D9D9D9" fill-opacity="0.25"/>
<ellipse cx="1.03514" cy="1.12166" rx="1.03514" ry="1.12166" transform="matrix(-0.999282 0.0378914 0.0378914 0.999282 644.98 566.073)" fill="#D9D9D9" fill-opacity="0.25"/>
<ellipse cx="1.03514" cy="1.12166" rx="1.03514" ry="1.12166" transform="matrix(-0.999282 0.0378914 0.0378914 0.999282 635.145 568.684)" fill="#D9D9D9" fill-opacity="0.25"/>
<ellipse cx="1.03514" cy="1.12166" rx="1.03514" ry="1.12166" transform="matrix(-0.999282 0.0378914 0.0378914 0.999282 625.18 571.309)" fill="#D9D9D9" fill-opacity="0.25"/>
<ellipse cx="1.03514" cy="1.12166" rx="1.03514" ry="1.12166" transform="matrix(-0.999282 0.0378914 0.0378914 0.999282 613.457 574)" fill="#D9D9D9" fill-opacity="0.25"/>
<ellipse cx="2.07028" cy="2.24332" rx="2.07028" ry="2.24332" transform="matrix(0.999282 -0.0378914 -0.0378914 -0.999282 118.871 463.584)" fill="#D9D9D9" fill-opacity="0.25"/>
<ellipse cx="2.07028" cy="2.24332" rx="2.07028" ry="2.24332" transform="matrix(0.999282 -0.0378914 -0.0378914 -0.999282 114.336 453.309)" fill="#D9D9D9" fill-opacity="0.25"/>
<ellipse cx="2.07028" cy="2.24332" rx="2.07028" ry="2.24332" transform="matrix(0.999282 -0.0378914 -0.0378914 -0.999282 109.188 442.107)" fill="#D9D9D9" fill-opacity="0.25"/>
<ellipse cx="2.07028" cy="2.24332" rx="2.07028" ry="2.24332" transform="matrix(0.999282 -0.0378914 -0.0378914 -0.999282 105.586 431.064)" fill="#D9D9D9" fill-opacity="0.25"/>
<ellipse cx="2.07028" cy="2.24332" rx="2.07028" ry="2.24332" transform="matrix(0.999282 -0.0378914 -0.0378914 -0.999282 101.008 419.754)" fill="#D9D9D9" fill-opacity="0.25"/>
<ellipse cx="2.07028" cy="2.24332" rx="2.07028" ry="2.24332" transform="matrix(0.999282 -0.0378914 -0.0378914 -0.999282 98.5234 408.832)" fill="#D9D9D9" fill-opacity="0.25"/>
<ellipse cx="2.07028" cy="2.24332" rx="2.07028" ry="2.24332" transform="matrix(0.999282 -0.0378914 -0.0378914 -0.999282 96.0195 397.322)" fill="#D9D9D9" fill-opacity="0.25"/>
<ellipse cx="2.07028" cy="2.24332" rx="2.07028" ry="2.24332" transform="matrix(0.999282 -0.0378914 -0.0378914 -0.999282 93.5195 386.008)" fill="#D9D9D9" fill-opacity="0.25"/>
<ellipse cx="2.07028" cy="2.24332" rx="2.07028" ry="2.24332" transform="matrix(0.999282 -0.0378914 -0.0378914 -0.999282 91.6836 373.873)" fill="#D9D9D9" fill-opacity="0.25"/>
<ellipse cx="2.07028" cy="2.24332" rx="2.07028" ry="2.24332" transform="matrix(0.999282 -0.0378914 -0.0378914 -0.999282 91.2227 361.685)" fill="#D9D9D9" fill-opacity="0.25"/>
<ellipse cx="2.07028" cy="2.24332" rx="2.07028" ry="2.24332" transform="matrix(0.999282 -0.0378914 -0.0378914 -0.999282 90.7578 349.502)" fill="#D9D9D9" fill-opacity="0.25"/>
<ellipse cx="2.07028" cy="2.24332" rx="2.07028" ry="2.24332" transform="matrix(0.999282 -0.0378914 -0.0378914 -0.999282 89.5977 337.348)" fill="#D9D9D9" fill-opacity="0.25"/>
<ellipse cx="2.07028" cy="2.24332" rx="2.07028" ry="2.24332" transform="matrix(0.999282 -0.0378914 -0.0378914 -0.999282 89.8984 326.728)" fill="#D9D9D9" fill-opacity="0.25"/>
<ellipse cx="2.07028" cy="2.24332" rx="2.07028" ry="2.24332" transform="matrix(0.999282 -0.0378914 -0.0378914 -0.999282 90.8086 314.492)" fill="#D9D9D9" fill-opacity="0.25"/>
<ellipse cx="2.07028" cy="2.24332" rx="2.07028" ry="2.24332" transform="matrix(0.999282 -0.0378914 -0.0378914 -0.999282 92.457 303.455)" fill="#D9D9D9" fill-opacity="0.25"/>
<ellipse cx="2.07028" cy="2.24332" rx="2.07028" ry="2.24332" transform="matrix(0.999282 -0.0378914 -0.0378914 -0.999282 94.0742 291.5)" fill="#D9D9D9" fill-opacity="0.25"/>
<ellipse cx="2.07028" cy="2.24332" rx="2.07028" ry="2.24332" transform="matrix(0.999282 -0.0378914 -0.0378914 -0.999282 95.6953 279.732)" fill="#D9D9D9" fill-opacity="0.25"/>
<ellipse cx="2.07028" cy="2.24332" rx="2.07028" ry="2.24332" transform="matrix(0.999282 -0.0378914 -0.0378914 -0.999282 98.4961 268.836)" fill="#D9D9D9" fill-opacity="0.25"/>
<ellipse cx="1.55271" cy="1.68249" rx="1.55271" ry="1.68249" transform="matrix(0.999282 -0.0378914 -0.0378914 -0.999282 101.047 257.508)" fill="#D9D9D9" fill-opacity="0.25"/>
<ellipse cx="1.55271" cy="1.68249" rx="1.55271" ry="1.68249" transform="matrix(0.999282 -0.0378914 -0.0378914 -0.999282 104.621 245.529)" fill="#D9D9D9" fill-opacity="0.25"/>
<ellipse cx="1.55271" cy="1.68249" rx="1.55271" ry="1.68249" transform="matrix(0.999282 -0.0378914 -0.0378914 -0.999282 108.477 234.043)" fill="#D9D9D9" fill-opacity="0.25"/>
<ellipse cx="1.55271" cy="1.68249" rx="1.55271" ry="1.68249" transform="matrix(0.999282 -0.0378914 -0.0378914 -0.999282 112.281 223.475)" fill="#D9D9D9" fill-opacity="0.25"/>
<ellipse cx="1.55271" cy="1.68249" rx="1.55271" ry="1.68249" transform="matrix(0.999282 -0.0378914 -0.0378914 -0.999282 117.359 211.939)" fill="#D9D9D9" fill-opacity="0.25"/>
<ellipse cx="1.55271" cy="1.68249" rx="1.55271" ry="1.68249" transform="matrix(0.999282 -0.0378914 -0.0378914 -0.999282 122.566 201.621)" fill="#D9D9D9" fill-opacity="0.25"/>
<ellipse cx="1.55271" cy="1.68249" rx="1.55271" ry="1.68249" transform="matrix(0.999282 -0.0378914 -0.0378914 -0.999282 128.004 192.301)" fill="#D9D9D9" fill-opacity="0.25"/>
<ellipse cx="1.55271" cy="1.68249" rx="1.55271" ry="1.68249" transform="matrix(0.999282 -0.0378914 -0.0378914 -0.999282 132.59 182.164)" fill="#D9D9D9" fill-opacity="0.25"/>
<ellipse cx="1.03514" cy="1.12166" rx="1.03514" ry="1.12166" transform="matrix(0.999282 -0.0378914 -0.0378914 -0.999282 139.5 172.1)" fill="#D9D9D9" fill-opacity="0.25"/>
<ellipse cx="1.03514" cy="1.12166" rx="1.03514" ry="1.12166" transform="matrix(0.999282 -0.0378914 -0.0378914 -0.999282 146.027 163.156)" fill="#D9D9D9" fill-opacity="0.25"/>
<ellipse cx="1.03514" cy="1.12166" rx="1.03514" ry="1.12166" transform="matrix(0.999282 -0.0378914 -0.0378914 -0.999282 153.391 153.541)" fill="#D9D9D9" fill-opacity="0.25"/>
<ellipse cx="1.03514" cy="1.12166" rx="1.03514" ry="1.12166" transform="matrix(0.999282 -0.0378914 -0.0378914 -0.999282 160.504 144.732)" fill="#D9D9D9" fill-opacity="0.25"/>
<ellipse cx="1.03514" cy="1.12166" rx="1.03514" ry="1.12166" transform="matrix(0.999282 -0.0378914 -0.0378914 -0.999282 168.195 136.055)" fill="#D9D9D9" fill-opacity="0.25"/>
<ellipse cx="1.03514" cy="1.12166" rx="1.03514" ry="1.12166" transform="matrix(0.999282 -0.0378914 -0.0378914 -0.999282 176.34 127.369)" fill="#D9D9D9" fill-opacity="0.25"/>
<ellipse cx="1.03514" cy="1.12166" rx="1.03514" ry="1.12166" transform="matrix(0.999282 -0.0378914 -0.0378914 -0.999282 184.254 120.734)" fill="#D9D9D9" fill-opacity="0.25"/>
<ellipse cx="1.03514" cy="1.12166" rx="1.03514" ry="1.12166" transform="matrix(0.999282 -0.0378914 -0.0378914 -0.999282 193.617 113.744)" fill="#D9D9D9" fill-opacity="0.25"/>
<ellipse cx="1.03514" cy="1.12166" rx="1.03514" ry="1.12166" transform="matrix(0.999282 -0.0378914 -0.0378914 -0.999282 202.695 106.598)" fill="#D9D9D9" fill-opacity="0.25"/>
<ellipse cx="1.03514" cy="1.12166" rx="1.03514" ry="1.12166" transform="matrix(0.999282 -0.0378914 -0.0378914 -0.999282 211.816 100.717)" fill="#D9D9D9" fill-opacity="0.25"/>
<ellipse cx="1.03514" cy="1.12166" rx="1.03514" ry="1.12166" transform="matrix(0.999282 -0.0378914 -0.0378914 -0.999282 221.492 94.1836)" fill="#D9D9D9" fill-opacity="0.25"/>
<ellipse cx="1.03514" cy="1.12166" rx="1.03514" ry="1.12166" transform="matrix(0.999282 -0.0378914 -0.0378914 -0.999282 230.488 88.9355)" fill="#D9D9D9" fill-opacity="0.25"/>
<ellipse cx="1.03514" cy="1.12166" rx="1.03514" ry="1.12166" transform="matrix(0.999282 -0.0378914 -0.0378914 -0.999282 240.777 83.33)" fill="#D9D9D9" fill-opacity="0.25"/>
<ellipse cx="1.03514" cy="1.12166" rx="1.03514" ry="1.12166" transform="matrix(0.999282 -0.0378914 -0.0378914 -0.999282 251.543 78.4921)" fill="#D9D9D9" fill-opacity="0.25"/>
<ellipse cx="1.03514" cy="1.12166" rx="1.03514" ry="1.12166" transform="matrix(0.999282 -0.0378914 -0.0378914 -0.999282 261.016 74.3339)" fill="#D9D9D9" fill-opacity="0.25"/>
<ellipse cx="1.03514" cy="1.12166" rx="1.03514" ry="1.12166" transform="matrix(0.999282 -0.0378914 -0.0378914 -0.999282 270.852 71.7226)" fill="#D9D9D9" fill-opacity="0.25"/>
<ellipse cx="1.03514" cy="1.12166" rx="1.03514" ry="1.12166" transform="matrix(0.999282 -0.0378914 -0.0378914 -0.999282 280.812 69.0976)" fill="#D9D9D9" fill-opacity="0.25"/>
<ellipse cx="1.03514" cy="1.12166" rx="1.03514" ry="1.12166" transform="matrix(0.999282 -0.0378914 -0.0378914 -0.999282 292.535 66.4042)" fill="#D9D9D9" fill-opacity="0.25"/>
<circle opacity="0.48" cx="329.703" cy="329.703" r="327.703" stroke="url(#paint0_linear_3146_23567)" stroke-width="4"/>
<defs>
<linearGradient id="paint0_linear_3146_23567" x1="-61.1357" y1="407.37" x2="311.664" y2="-30.3193" gradientUnits="userSpaceOnUse">
<stop stop-color="#FFBAA9"/>
<stop offset="0.364296" stop-color="#F486A4"/>
<stop offset="0.788364" stop-color="#C588D4"/>
<stop offset="1" stop-color="#869BE9"/>
</linearGradient>
</defs>
</svg>
